<?xml version="1.0" encoding="utf-8"?>
<!-- Generator: Adobe Illustrator 19.0.0, SVG Export Plug-In . SVG Version: 6.00 Build 0)  -->
<svg version="1.1" id="Layer_4" xmlns="http://www.w3.org/2000/svg" xmlns:xlink="http://www.w3.org/1999/xlink" x="0px" y="0px"
	 viewBox="0 0 1600 1200" style="enable-background:new 0 0 1600 1200;" xml:space="preserve">
<style type="text/css">
	.st0{fill:#FF4F03;}
	.st1{fill:#FFFFFF;}
	.st2{opacity:0.68;fill:#FF4F03;}
	.st3{opacity:0.68;}
	.st4{fill:#FF4F03;stroke:#FF4F03;stroke-miterlimit:10;}
	.st5{opacity:0.68;fill:none;stroke:#FF4F03;stroke-width:4;stroke-miterlimit:10;}
	.st6{fill:#D9AD91;}
	.st7{fill:#E8CC7E;}
	.st8{stroke:#000000;stroke-miterlimit:10;}
</style>
<path class="st0" d="M667.3,344.6c-6.4,7.6-6.3,18.1-6.1,23.8c0.6,15.8,3.1,33.2,12.2,62.9c3.4,11.1,4.8,14.3,6.1,14.2
	c3.1-0.3,3.6-20.2,4.1-39c0.5-24,5.4-38.4-0.5-54.3c-1.3-3.5-4.3-11.4-9.1-11.7C671,340.4,668.5,343.2,667.3,344.6z"/>
<path class="st0" d="M533.5,370.5c-10.6-18.7-14.8-35.3-16.7-46.7c-2.3-13.9-6.6-39.4,5.6-47.7c4-2.7,9.9-3.7,14.2-1.5
	c2.1,1.1,6.6,4.3,8.1,21.8c1.1,12.9-0.1,25.6-5.6,50.7C536.9,356.9,534.9,364.9,533.5,370.5z"/>
<path class="st0" d="M800.8,172.1c-12.2-23.4-16.7-43.4-18.6-56.7c-2-13.8-4.2-30.2,4.7-36.5c3.7-2.6,9.1-3.3,13.2-1.6
	c7.9,3.4,9.2,15.1,10.9,29.5c2.8,24.9-2.2,43.2-3.9,48.9C804.9,162.8,802.5,168.3,800.8,172.1z"/>
<path class="st0" d="M1310.2,274.6c-7.5-11.5-17.4-30.6-14-49.7c0.7-4,2-11.4,7-13.2c4.9-1.8,11.6,2.6,14.8,7.8
	c3.2,5.2,2.3,10.7-0.8,24.9C1315.3,253.2,1313,263.4,1310.2,274.6z"/>
<ellipse class="st1" cx="671.4" cy="377.3" rx="7.2" ry="11.7"/>
<ellipse class="st1" cx="526.6" cy="305.7" rx="7.2" ry="11.2"/>
<ellipse class="st1" cx="795.5" cy="114.1" rx="7.6" ry="14.8"/>
<ellipse class="st1" cx="1305.8" cy="233.3" rx="5" ry="5.1"/>
<path class="st2" d="M966.2,451.7H777.7c-6.6,0-12-5.4-12-12v-37.5c0-6.6,5.4-12,12-12h188.5c6.6,0,12,5.4,12,12v37.5
	C978.2,446.3,972.8,451.7,966.2,451.7z"/>
<path class="st2" d="M825.3,564.3h-35c-6.6,0-12-5.4-12-12v-58.5c0-6.6,5.4-12,12-12h35c6.6,0,12,5.4,12,12v58.5
	C837.3,558.9,831.9,564.3,825.3,564.3z"/>
<g class="st3">
	<g>
		<g>
			<path class="st4" d="M983.9,478.4c-0.1,0.5-3.5,0.1-8.8,0.9c-2.7,0.3-5.8,1-9.3,1.7c-3.5,0.8-7.4,1.7-11.7,2.3
				c-8.5,1.3-16.5,0.2-21.8-1.4c-5.4-1.6-8.3-3.5-8.2-3.9c0.2-0.5,3.4,0.6,8.7,1.6c5.3,1,12.7,1.7,20.8,0.4c4.1-0.6,8-1.4,11.6-2
				c3.6-0.6,6.9-1,9.7-1.1C980.6,476.8,984,478.1,983.9,478.4z"/>
		</g>
	</g>
</g>
<g class="st3">
	<g>
		<g>
			<path class="st4" d="M943.6,492.3c0.1,0.9-4.7,2.2-10.8,2.7c-6.1,0.5-11.1,0-11.1-0.9c0-0.9,4.8-1.9,10.8-2.4
				C938.6,491.2,943.5,491.4,943.6,492.3z"/>
		</g>
	</g>
</g>
<g class="st3">
	<g>
		<g>
			<path class="st4" d="M986.1,501.1c0,0.9-11.3,1.5-25.2,2.3c-13.9,0.7-25.2,1.3-25.3,0.4c-0.1-0.9,11.1-2.9,25.1-3.6
				C974.7,499.4,986.1,500.3,986.1,501.1z"/>
		</g>
	</g>
</g>
<g class="st3">
	<g>
		<g>
			
				<ellipse transform="matrix(0.9999 -1.062253e-002 1.062253e-002 0.9999 -5.4141 10.0219)" class="st4" cx="940.7" cy="514.7" rx="12.4" ry="1.6"/>
		</g>
	</g>
</g>
<g class="st3">
	<g>
		<g>
			<ellipse class="st4" cx="955" cy="528.4" rx="27.4" ry="1.6"/>
		</g>
	</g>
</g>
<path class="st5" d="M1289.7,409.8h-150.9c-6.6,0-12-5.4-12-12v-8.9c0-6.6,5.4-12,12-12h150.9c6.6,0,12,5.4,12,12v8.9
	C1301.7,404.4,1296.3,409.8,1289.7,409.8z"/>
<g class="st3">
	<g>
		<g>
			<path class="st4" d="M1268.7,386c0,0.4-7.1,1.2-18.6,1.9c-11.5,0.7-27.4,1.4-45,1.8c-17.6,0.4-33.5,0.4-45,0.2
				c-11.5-0.2-18.7-0.6-18.7-1c0-0.5,7.1-0.9,18.6-1.3c11.5-0.4,27.4-0.8,45-1.2c17.6-0.4,33.5-0.7,45-0.8
				C1261.6,385.4,1268.7,385.5,1268.7,386z"/>
		</g>
	</g>
</g>
<g class="st3">
	<g>
		<g>
			<ellipse class="st4" cx="1158.6" cy="395.1" rx="0.4" ry="1.6"/>
		</g>
	</g>
</g>
<g class="st3">
	<g>
		<g>
			<path class="st4" d="M1202.8,395.5c0.1,0.9-9.9,2.3-22.3,2.4c-12.4,0.1-22.4-1.3-22.3-2.1c0.1-0.9,10-1.1,22.3-1.1
				C1192.8,394.6,1202.8,394.6,1202.8,395.5z"/>
		</g>
	</g>
</g>
<g class="st3">
	<g>
		<g>
			<path class="st4" d="M1272.4,400.4c-0.1,0.5-3.1,0.2-7.9-0.1c-2.4-0.2-5.3-0.3-8.5-0.4c-3.2-0.1-6.7-0.1-10.4-0.1
				c-7.4,0.1-14.1,0.2-18.9,0.3c-4.9,0-7.9-0.2-7.9-0.6c0-0.4,2.9-1.1,7.8-1.7c4.8-0.6,11.6-1.2,19.1-1.2c3.7,0,7.3,0.1,10.6,0.4
				c3.2,0.3,6.1,0.6,8.6,1.1C1269.6,398.9,1272.5,399.9,1272.4,400.4z"/>
		</g>
	</g>
</g>
<g class="st3">
	<g>
		<g>
			<path class="st4" d="M1303.1,430.9c0,0.9-16.7,2.3-37.4,1.8c-20.7-0.5-37.3-2.9-37.2-3.7c0.1-0.9,16.7,0,37.3,0.5
				C1286.4,430,1303.1,430,1303.1,430.9z"/>
		</g>
	</g>
</g>
<g class="st3">
	<g>
		<g>
			<path class="st4" d="M1244.6,439.8c0,0.9-6.5,1.6-14.5,1.6c-5.2,0-9.8-0.3-12.3-0.8l0.7-1.4c0.1,0.4,0.5,0.7,0.7,0.8
				c0.3,0.2,0.5,0.3,0.5,0.4c0,0.1-0.1,0.4-0.6,0.5c-0.5,0.1-1.3,0-2-0.7l-1-1.1l1.7-0.3c2.6-0.5,7.1-0.8,12.3-0.8
				C1238.1,438.1,1244.6,438.9,1244.6,439.8z"/>
		</g>
	</g>
</g>
<g class="st3">
	<g>
		<g>
			<path class="st4" d="M1303.2,446.7c0.1,0.9-19.4,3-43.4,4.7c-24.1,1.7-43.6,2.4-43.7,1.5s19.4-3,43.4-4.7
				C1283.5,446.4,1303.1,445.8,1303.2,446.7z"/>
		</g>
	</g>
</g>
<g class="st3">
	<g>
		<g>
			<path class="st4" d="M1258.5,460.8c0.1,0.9-6.1,2.4-13.8,2.6c-7.8,0.3-14-0.8-14-1.7c0-0.9,6.2-1.3,13.9-1.6
				C1252.1,460,1258.4,459.9,1258.5,460.8z"/>
		</g>
	</g>
</g>
<g class="st3">
	<g>
		<g>
			<path class="st4" d="M1296.6,472.1c-0.1,0.5-4.7-0.2-12-0.4c-0.9,0-1.9-0.1-2.9-0.1c-1,0-2.1,0-3.1,0c-2.2,0-4.5,0.1-6.9,0.1
				c-4.9,0.2-10.2,0.6-15.9,1.2c-11.3,1.2-21.5,2.6-28.9,3.2c-7.5,0.6-12.1,0.6-12.1,0.2c0-0.5,4.5-1.2,11.9-2.4
				c7.3-1.2,17.5-2.9,28.9-4.1c5.7-0.6,11.2-0.9,16.1-1c2.5,0,4.9,0,7.1,0.2c1.1,0.1,2.2,0.1,3.2,0.2c1,0.1,2,0.2,2.9,0.3
				C1292.2,470.3,1296.6,471.8,1296.6,472.1z"/>
		</g>
	</g>
</g>
<g class="st3">
	<g>
		<g>
			<path class="st4" d="M1289.2,483.4c-0.1,0.5-3.4,0-8.6,0.1c-0.7,0-1.3,0-2.1,0c-0.7,0-1.5,0.1-2.2,0.1c-1.5,0.1-3.2,0.3-4.9,0.4
				c-3.5,0.4-7.2,1-11.2,1.6c-4,0.7-7.8,1.3-11.4,1.8c-3.5,0.5-6.7,0.7-9.4,0.8c-5.4,0.1-8.7-0.5-8.7-0.9c0-0.5,3.3-0.7,8.5-1.4
				c2.6-0.3,5.7-0.9,9.2-1.5c3.5-0.6,7.2-1.3,11.3-2c4-0.7,7.9-1.2,11.5-1.4c1.8-0.1,3.5-0.2,5.1-0.1c0.8,0,1.6,0,2.3,0.1
				c0.7,0.1,1.5,0.1,2.1,0.2C1286.2,481.7,1289.3,483,1289.2,483.4z"/>
		</g>
	</g>
</g>
<path class="st6" d="M843.8,458.6c1.4,7.7,4.3,18.2,10.3,29.5c8.1,15.4,18.4,25.5,25.3,31.4c5.9,18,13.7,37.9,24.1,59.1
	c14.5,29.6,30.5,54,45.2,73.6c0.2-11.7,1.2-24.9,3.6-39.2c1.5-9.1,3.4-17.6,5.4-25.3c-3.5-3.2-8.3-7.9-13.9-13.9
	c-16.7-18-29.2-31.5-35-50.6c-2.1-7,0.2-3.2-4.8-36.8c-4-26.7-3.7-17.4-4.8-27.7c-1-8.7-1.2-15.8-3.6-16.3c-2.2-0.4-5,5.1-5.4,6
	c-3.9,7.7-2.1,14.9-3,15.1c-1.2,0.2-4.5-12.5-8.4-25.9c-4-13.9-6.3-20.2-12.1-22.9c-0.8-0.4-4.5-2.1-7.8-0.6
	c-3.3,1.5-4.5,5.6-5.4,10.3c-2.1,10.5-3.8,18.8-1.2,32.6c2.2,11.9,5.9,18.7,4.8,19.3C856.3,476.5,853.4,473.9,843.8,458.6z"/>
<path class="st6" d="M997.5,892.2c-5.4,10.2-11.9,25.1-15.1,44c-2,12-2.3,22.7-1.8,31.4c13.3,30.8,26.5,61.5,39.8,92.3
	c3.8-2,9.5-4.4,16.9-5.4c10.8-1.5,19.5,0.8,24.1,2.4c-3-15.4-5.2-27.9-6.6-36.2c-4.8-27.9-5.6-37.3-10.3-52.5
	c-4.1-13.4-8.8-23.7-12.1-30.1c2.9-3.2,6.8-7.9,10.9-13.9c8.9-13,13.4-19.7,13.3-28.3c-0.2-10.4-7.2-22.5-18.1-26.5
	C1024.4,864.1,1005.1,872.9,997.5,892.2z"/>
<path class="st6" d="M1136.2,910.3c1.9,5.3,4.5,13.2,6.6,22.9c1.4,6.3,2.3,11.9,4.2,28.9c3,26.1,2.4,25.9,3.6,33.2
	c1.5,8.8,4.4,21.3,10.9,36.2c5.7-1.1,12.6-1.9,20.5-1.8c5.4,0.1,10.2,0.5,14.5,1.2c-0.2-8.2-0.7-19.8-1.8-33.8
	c-3.1-39.5-6.5-41.2-13.9-93.5c-4.2-29.4-4.6-39.8-12.7-43.4c-9.1-4.1-22.1,3-28.9,11.5C1130.9,882,1129.7,897,1136.2,910.3z"/>
<path class="st6" d="M1148.2,486.4c2.5,8.4,6.4,13.3,9.6,16.3c5.4,5,9.4,4.9,12.1,10.3c0.8,1.6,1.1,2.9,2.4,13.9
	c0.5,4.1,0.9,7.6,1.2,10.3c8.1,13.1,16.1,26.1,24.1,39.2c5.4,8.8,10.9,17.7,16.3,26.5c0.7-13.2-0.2-24.3-1.2-32.6
	c-1-8-2.9-22-9-38.6c-4.5-12.1-6.9-13.9-9-24.1c-2-9.6-0.5-11.3-3-22.9c-0.8-3.7-3-9.7-7.2-21.7c-2.6-7.4-4.2-11.4-8.4-13.9
	c-1.1-0.6-4.5-2.4-7.8-1.8c-6.5,1.2-12,11.4-11.5,25.3c3.2,9.4,3.4,16.6,0.6,18.1C1154.7,492,1150.1,488,1148.2,486.4z"/>
<path class="st7" d="M1042.7,381.4c-5.8,21.2-7,38.6-7,50.8c0,23.7,4.6,36.4,1.6,60.2c-1.9,14.4-5.6,26-8.6,33.6
	c4.4-2.1,8.9-4.2,13.3-6.3c0.1,4.5,0.5,10.8,2.3,18c1.2,4.8,3.7,14.3,10.9,24.2c6.9,9.4,14.5,14.5,18.8,17.2
	c13.1,8.5,18.2,4.2,37.5,12.5c13.8,5.9,14.7,9.4,20.3,8.6c12.9-1.8,22.2-21.6,24.2-37.5c0.5-3.9,1-10.7-5.5-38.3
	c-4.4-18.7-6.1-22-9.4-35.2c-10.2-41.2-12.5-71.9-12.5-71.9c-0.7-8.9-1.3-22.6-10.9-32.8c-2.6-2.8-5.1-4.5-10.2-7.8
	c-10.8-7.2-18.6-12.4-29.7-13.3c-3.9-0.3-14.9-1-25,6.3C1047.4,373.6,1044.3,378.4,1042.7,381.4z"/>
<path class="st0" d="M963.5,665.2c-3.5-2.1-5.2-7.2-3.7-36.9c0.8-15,2-27.5,2.9-36.4c15-10.3,26.6-18.6,34.2-24
	c6.2-3.1,11-6.4,14.4-9.1c5.7-4.4,8.6-6.6,9.9-9.1c1.2-2.2,2-4.9,4.7-6.3c1.7-0.9,3.5-0.9,4.7-0.8c1.1,4.9,3.7,13.4,10.3,21.5
	c12.5,15.3,33.4,21.9,36.3,18.1c1.9-2.5-3.6-9-2.5-9.8c1.1-0.8,6.5,6.5,13,11.7c13.6,10.6,36.6,14.7,47.3,5.1
	c3.8-3.4,7.1-9.4,8.2-15.4c0.6-3.6,1.8-14.1,4.1-18.5c2-3.8,3.4-4.4,4.8-6.9c2.9-5-6.5-26.2-3.4-28.8c1.6-1.3,7.1,1.6,15.8,9.6
	c10.1,9.3,18.4,20.1,31.5,43.2c8.2,14.4,12.3,21.6,14,27.6c4.2,15,2.8,27.3,1.2,40.6c-2,17-3.1,26.7-9.2,28.9
	c-9.4,3.4-23-13.8-23.6-14.6c1.1,8.6,2.9,22.7,5.3,40.1c8,59.1,9.4,64.7,8.9,80.9c-0.7,25.4-1.5,38.1-3.5,46.8
	c-0.7,3-2.7,10.8-1.8,20.9c0.6,7.4,2.5,13.4,4,17.2c0,2.4,0,5.8-0.3,9.9c-0.6,9-1,14-3.1,18.2c-2.3,4.5-6.6,8.1-14.8,11.3
	c-47.8,18.9-99,12.7-99,12.7c-18.9-2.3-45.9-7.5-76.8-20.6c2-8,5.4-19.6,10.5-33.1c4.1-10.6,7.8-18.6,17.4-37.8
	c22.4-44.8,22.2-41.9,24.7-49.4c5.9-18,6-31.7,6.2-56.5c0.1-17.5,0.1-52-13.7-58.3c-1.7-0.8-4.5-1.5-8.2-4.1
	c-5.5-3.9-7.8-12.7-12.3-13.7c-2.8-0.6-4.7,2.1-9.6,5.9c-3.9,3.1-8.8,5.6-18.6,10.5C978.3,664,969.1,668.6,963.5,665.2z"/>
<path class="st0" d="M1023.5,1058.8c8.5,18.2,14.7,33.2,19.1,44.2c3.3,8.2,6.3,16.5,4,18.1c-2,1.4-7.2-2.7-11.5-6.5
	c-13.6,6.6-23.6,11.4-29.1,14c-15.3,7.4-24,11.5-23.6,16.1c0.2,2.3,2.5,3.9,4.5,5c43.8-3.5,70.1-4.2,86.3-3.5
	c4.3,0.2,16.1,0.8,18.6-4.5c1.6-3.5-1.4-7.8-4-12c-5.9-9.6-9.5-19.6-16.6-39.6c-7.5-21.1-3.8-25.8-10-31.1
	C1055.9,1054.4,1045.6,1051.3,1023.5,1058.8z"/>
<path class="st0" d="M1163.5,1032.3c2.8,9.4,4.2,17.3,5,23.1c1.7,12.2,3.2,24.1-2,27.1c-2.4,1.4-3.7-0.5-8,0
	c-7.5,0.8-12.4,7.2-19.6,16.6c-3.1,4-7.1,9.9-11,17.6c14.3,0.2,29.2,0.1,44.7-0.5c9.1-0.4,18-0.9,26.6-1.5c0.3-17.3-0.3-35.9-2-55.7
	c-0.8-9.2-1.8-18.1-3-26.6C1183.9,1032.3,1173.7,1032.3,1163.5,1032.3z"/>
<g>
	<g>
		<g>
			<path class="st8" d="M1028.8,530.2c0.1,0,0,0.7-0.6,1.7c-0.6,1-1.6,2.5-3.5,3.9c-0.2,0.1-0.5,0.4-0.9,0.6c-0.3,0.2-0.7,0.4-1,0.6
				c-0.7,0.4-1.5,0.6-2.3,0.9c-0.4,0.1-0.8,0.2-1.3,0.4c-0.2,0.1-0.5,0.1-0.7,0.2c0-0.2,0.1-0.4,0.1-0.6c0.1-0.4,0.2-0.9,0.3-1.3
				c0-0.2,0.1-0.4,0.1-0.7c0.1-0.3,0.1-0.5,0.2-0.8c0.5-1.7,1-3.5,1.6-5.5c0.4-1.7,0.8-3.5,1.2-5.5c1.7-7.7,3-16.9,3.7-27.3
				c0.7-10.4,0.8-21.8,0.7-33.8c-0.1-12-0.2-23.6,0.2-34c0.1-2.6,0.2-5.2,0.4-7.7c0.2-2.5,0.4-4.9,0.6-7.2c0.6-4.6,0.9-9,1.7-12.9
				c0.7-3.9,1.8-7.5,3.1-10.4c1.3-3,2.8-5.3,4.3-7c1.5-1.7,2.9-2.8,3.9-3.4c1-0.6,1.6-0.8,1.7-0.7c0.2,0.3-2,1.5-4.6,5
				c-1.3,1.7-2.6,4-3.6,6.9c-1,2.9-1.9,6.3-2.5,10.1c-0.6,3.8-0.9,8.2-1.3,12.7c-0.1,2.3-0.3,4.7-0.4,7.1c-0.1,2.5-0.2,5-0.2,7.6
				c-0.2,10.4-0.1,21.9,0,33.9c0.1,12.1-0.1,23.6-1,34.1c-0.8,10.5-2.5,19.9-4.4,27.6c-0.5,1.9-1,3.8-1.5,5.5
				c-0.3,0.9-0.6,1.7-0.8,2.5c-0.3,1-0.4,1.1-0.6,1.6c-0.2,0.5-0.3,0.9-0.5,1.3l-0.1,0.3l0.3,0c0.2,0,0.4-0.1,0.6-0.1
				c0.4-0.1,0.8-0.2,1.1-0.4c0.2-0.1,0.4-0.2,0.5-0.3c0.2-0.1,0.3-0.2,0.6-0.3c1.8-1.1,2.9-2.4,3.7-3.2
				C1028.4,530.7,1028.7,530.2,1028.8,530.2z"/>
		</g>
	</g>
</g>
<g>
	<g>
		<g>
			<path class="st8" d="M1126.7,592.4c0,0.1-0.4,0.2-1.2,0.4c-0.4,0.1-0.9,0.2-1.4,0.3c-0.6,0.1-1.2,0.2-2,0.2
				c-3,0.3-7.5,0.3-12.9-0.5c-5.5-0.8-11.9-2.7-18.6-6c-3.3-1.7-6.7-3.8-9.9-6.3c-0.6-0.4-1.1-0.9-1.7-1.3c-0.2-0.2-0.4-0.3-0.6-0.5
				c-0.2-0.2-0.4-0.4-0.5-0.5l-0.1-0.1l0,0l0,0l0.1,0.1c0.1,0.1,0.1,0.3,0.2,0.4c0.2,0.5,0.3,0.9,0.4,1.5c0.1,0.9,0.2,1.8,0.3,2.7
				l0.1,1.3l0,0.7c0,0.1,0,0.2,0,0.3l-0.3-0.1c-0.9-0.2-1.7-0.2-2.6-0.5c-0.8-0.2-1.6-0.3-2.4-0.5c-10.2-2.3-19-7.5-25.6-13.5
				c-0.4-0.4-0.8-0.7-1.2-1.1c-0.4-0.4-0.8-0.8-1.1-1.2c-0.8-0.8-1.5-1.6-2.2-2.3c-0.7-0.8-1.3-1.6-2-2.4c-0.7-0.8-1.3-1.6-1.8-2.4
				c-1.1-1.6-2.3-3.2-3.1-4.8c-0.5-0.8-0.9-1.6-1.3-2.4c-0.4-0.8-0.7-1.6-1.1-2.3c-0.4-0.8-0.7-1.5-1-2.2c-0.3-0.8-0.5-1.5-0.8-2.2
				c-0.3-0.7-0.5-1.4-0.7-2.1c-0.2-0.7-0.4-1.4-0.6-2c-0.3-1.3-0.7-2.5-0.9-3.6c-0.2-1.1-0.3-2.2-0.5-3.1c-0.2-0.9-0.2-1.8-0.2-2.5
				c0-0.7,0-1.3,0-1.8c0-1,0.1-1.5,0.2-1.5c0.1,0,0.3,0.5,0.5,1.4c0.1,0.5,0.2,1.1,0.3,1.8c0.1,0.7,0.2,1.5,0.5,2.4
				c0.2,0.9,0.5,1.9,0.7,3c0.2,1.1,0.7,2.2,1.1,3.4c0.2,0.6,0.4,1.3,0.7,1.9c0.3,0.6,0.6,1.3,0.8,2c0.3,0.7,0.6,1.4,0.9,2.1
				c0.4,0.7,0.7,1.4,1.1,2.1c0.4,0.7,0.7,1.5,1.2,2.2c0.5,0.7,0.9,1.5,1.4,2.2c0.9,1.5,2,3,3.1,4.5c0.5,0.8,1.2,1.5,1.8,2.3
				c0.6,0.7,1.3,1.5,2,2.3c0.7,0.7,1.4,1.4,2.2,2.2c0.4,0.4,0.7,0.7,1.1,1.1c0.4,0.3,0.8,0.7,1.2,1c6.4,5.6,14.7,10.4,24.3,12.6
				c0.4,0.1,0.7,0.1,1.1,0.2l0,0c0,0,0,0,0,0l0-0.1l0-0.2c0-0.1,0-0.2,0-0.4l-0.1-0.6c0-0.3-0.1-0.5-0.2-0.7
				c-0.1-0.5-0.2-0.9-0.4-1.4c-0.1-0.5-0.3-1-0.5-1.5l-0.3-0.8l-0.5-1l-1.1-2.3l-1.4-2.7c-1.1-2-2.1-4.1-3.1-6.1l1.3,1.3l0.6,0.6
				l0.2,0.1l0.1,0.1l0.3,0.3l1.1,1.1c1.4,1.5,2.8,3,4.2,4.4c1.4,1.5,2.9,2.9,4.3,4.3c0.3,0.3,0.7,0.6,1,0.9l0.9,0.7
				c0.4,0.3,0.8,0.6,1.1,0.9c3.1,2.4,6.2,4.5,9.4,6.2c6.3,3.4,12.4,5.4,17.7,6.5c5.2,1.1,9.6,1.4,12.5,1.4c0.7,0,1.4,0.1,2,0
				c0.6,0,1.1,0,1.5,0C1126.3,592.2,1126.7,592.3,1126.7,592.4z"/>
		</g>
	</g>
</g>
<g>
	<g>
		<g>
			<path class="st8" d="M1097.5,370.6c0,0.2-0.8,0.3-2.2,0c-1.4-0.3-3.3-1.1-5.5-2.1c-1.1-0.5-2.3-1.1-3.5-1.6
				c-1.3-0.5-2.7-0.9-4.1-1.3c-3-0.7-6.3-1.1-9.9-0.9c-3.5,0.2-6.9,0.9-9.8,1.9c-2.9,1-5.4,2.3-7.4,3.5c-4,2.5-6.1,4.7-6.4,4.4
				c-0.3-0.2,1.2-3,5.1-6.2c2-1.5,4.6-3.2,7.7-4.4c3.1-1.3,6.7-2.1,10.6-2.4c3.9-0.2,7.6,0.3,10.8,1.3c3.2,1,6,2.4,8,3.8
				c2.1,1.3,3.6,2.3,4.8,3C1096.9,370,1097.6,370.4,1097.5,370.6z"/>
		</g>
	</g>
</g>
<g>
	<g>
		<g>
			<path class="st8" d="M1130.7,600.1c-0.2-0.1,2-4.1,5.2-11.4c3.2-7.3,7.3-18.2,9.9-32.2l1.2-6.5l1.2,6.6c0.5,2.6,0.9,5.3,1.4,8.1
				l-2.5-0.2c1.8-5.5,2.9-11.6,3.1-18c0.2-6.5-0.4-13.2-1.7-20.2c-2.4-14-7.2-28.6-10.7-44.3c-2.1-9.5-3.6-18.8-5-27.8
				c-1.3-9-2.5-17.7-3.8-26c-1.3-8.2-2.6-16.1-4.3-23.2c-0.8-3.6-1.9-7-3.1-10.1c-1.2-3.1-2.7-6-4.5-8.5c-3.5-5-8.2-8.3-12.6-10.3
				c-4.5-2.1-8.6-3.2-12-4c-3.4-0.8-6.1-1.3-7.9-1.7c-1.8-0.4-2.8-0.6-2.8-0.7c0-0.1,1-0.1,2.9,0.1c1.9,0.2,4.6,0.5,8.1,1.1
				c3.5,0.7,7.8,1.6,12.5,3.6c2.4,1,4.8,2.3,7.2,4.1c2.4,1.7,4.6,4,6.6,6.6c1.9,2.6,3.6,5.7,5,8.9c1.3,3.3,2.5,6.8,3.4,10.4
				c1.8,7.3,3.2,15.1,4.6,23.4c2.8,16.5,4.8,34.8,8.9,53.6c3.5,15.5,8.3,30.2,10.6,44.5c1.2,7.1,1.8,14.1,1.5,20.8
				c-0.3,6.7-1.5,13.1-3.5,18.7l-1.7,4.8l-0.8-5.1c-0.4-2.8-0.9-5.5-1.3-8.1l2.4,0c-2.9,14.1-7.5,25-11.1,32.3
				c-1.8,3.6-3.4,6.4-4.5,8.2C1131.5,599.3,1130.8,600.2,1130.7,600.1z"/>
		</g>
	</g>
</g>
<g>
	<g>
		<g>
			<path class="st8" d="M959.6,583.3c-0.2-0.4,3.4-2.5,9.1-6.1c2.8-1.8,6.2-4,9.8-6.5c3.6-2.5,7.6-5.4,11.6-8.5
				c8.1-6.3,15.3-12.2,20.6-16.4c5.3-4.2,8.7-6.7,9-6.3c0.3,0.3-2.6,3.4-7.5,8.1c-4.9,4.7-11.9,10.9-20.1,17.3
				c-4.1,3.2-8.2,6-12,8.4c-3.8,2.4-7.3,4.5-10.3,6C963.8,582.3,959.8,583.7,959.6,583.3z"/>
		</g>
	</g>
</g>
<g>
	<g>
		<g>
			<path class="st8" d="M955.5,680.2c-0.4,0.1-2.3-5-4-13.5c-0.2-1.1-0.4-2.2-0.7-3.4c-0.2-1.2-0.4-2.4-0.6-3.7
				c-0.4-2.5-0.7-5.3-1-8.1c-0.5-5.8-0.7-12.1-0.4-18.8c0.3-6.7,1-13,2-18.7c0.5-2.8,1-5.5,1.6-8c0.3-1.2,0.6-2.5,0.9-3.6
				c0.3-1.1,0.6-2.2,0.9-3.3c2.4-8.4,4.7-13.3,5.1-13.1c0.5,0.2-1,5.3-2.9,13.7c-0.2,1.1-0.5,2.2-0.7,3.3c-0.2,1.1-0.4,2.4-0.7,3.6
				c-0.5,2.5-0.9,5.1-1.3,7.9c-0.8,5.6-1.4,11.8-1.7,18.4c-0.2,6.5-0.1,12.8,0.2,18.4c0.2,2.8,0.4,5.5,0.7,8
				c0.1,1.3,0.2,2.5,0.4,3.6c0.2,1.2,0.3,2.3,0.4,3.3C954.9,674.8,956,680.1,955.5,680.2z"/>
		</g>
	</g>
</g>
<g>
	<g>
		<g>
			<path class="st8" d="M1040.7,623.9c0.3,0.3-3.8,4.4-10.9,10.3c-3.6,3-7.9,6.3-12.9,9.9c-5,3.6-10.6,7.3-16.6,11
				c-6,3.7-11.9,6.9-17.3,9.7c-5.4,2.8-10.4,5.1-14.7,7c-8.5,3.7-13.9,5.4-14.1,5c-0.2-0.4,4.9-2.9,13.1-7.1
				c4.1-2.1,8.9-4.6,14.2-7.5c5.3-2.9,11.1-6.2,17-9.9c6-3.7,11.5-7.3,16.6-10.7c5-3.4,9.5-6.6,13.2-9.3
				C1035.8,627,1040.4,623.6,1040.7,623.9z"/>
		</g>
	</g>
</g>
<g>
	<g>
		<g>
			<path class="st8" d="M855.5,476.9c-0.4,0.2-4.2-5.1-10-13.9c-1.4-2.2-3-4.6-4.7-7.2c-0.3-0.4-0.6-0.9-0.9-1.4
				c-0.1-0.2-0.3-0.4-0.4-0.6l-0.2-0.3c0,0,0,0,0,0.1l0,0.1l0,0.2c0.1,0.6,0.1,1.1,0.2,1.6l0.1,0.4l0.1,0.8c0.1,0.9,0.3,1.8,0.5,2.7
				c0.2,0.9,0.3,1.8,0.5,2.8c0.2,0.9,0.5,1.8,0.7,2.8c0.2,0.9,0.4,1.9,0.7,2.8c0.3,0.9,0.6,1.9,0.9,2.8c2.4,7.5,5.7,14.4,9.2,20.3
				c3.5,6,7,11.1,10.2,15.2c6.3,8.4,10.8,13.1,10.5,13.5c-0.3,0.3-5.4-3.9-12.3-12c-3.5-4-7.3-9.1-11-15.1c-3.7-6-7.2-13-9.7-20.9
				c-0.3-1-0.6-2-0.9-2.9c-0.3-1-0.5-2-0.7-2.9c-0.2-1-0.5-1.9-0.7-2.9c-0.2-1-0.3-1.9-0.5-2.9c-0.2-1-0.4-1.9-0.4-2.8
				c-0.1-0.7-0.1-1.3-0.2-2c-0.1-0.8-0.2-1.6-0.2-2.3c0-0.7-0.1-1.4-0.1-2.1c0-0.7-0.1-1.5-0.1-2.2c-0.1-1.4-0.1-2.9-0.2-4.3l0-1
				l0-0.5c0-0.1-0.1-0.5,0.1-0.2c0.4,0.6,0.7,1.2,1.1,1.7c0.7,1.1,1.4,2.2,2.1,3.3c1.4,2.3,2.8,4.6,4.1,6.7c1.6,2.7,3.1,5.2,4.4,7.4
				C852.8,470.9,855.9,476.6,855.5,476.9z"/>
		</g>
	</g>
</g>
<g>
	<g>
		<g>
			<path class="st8" d="M867.9,465.5c-0.4,0.1-2-5.2-4.6-13.7c-1.3-4.3-2.9-9.4-4.7-15c-0.9-2.8-1.9-5.8-3-8.9
				c-0.3-0.7-0.5-1.5-0.8-2.2l-0.2-0.6c-0.1-0.4-0.3-0.7-0.4-1.1c-0.1,0.3-0.1,0.6-0.2,0.9l-0.1,0.6c-0.1,0.6-0.2,1.1-0.3,1.7
				c-0.3,1.8-0.5,3.5-0.8,5.2c-0.4,3.4-0.8,6.7-0.9,9.9c-0.3,6.3,0,12,0.7,16.7c1.4,9.5,4.1,14.9,3.6,15.1c-0.2,0.1-1-1.2-2.3-3.6
				c-1.2-2.5-2.6-6.3-3.6-11.1c-1-4.8-1.6-10.7-1.4-17.2c0.1-3.3,0.4-6.7,0.7-10.2c0.2-1.7,0.4-3.5,0.8-5.3l0.2-1.4
				c0.1-0.7,0.3-1.5,0.4-2.3c0.3-1.6,0.6-3.1,0.9-4.7c0.5-2.2,0.9-4.4,1.4-6.5c1,2.9,2,5.7,3,8.5c0.5,1.4,1,2.8,1.4,4.1
				c0.3,0.8,0.5,1.7,0.8,2.5c1,3.1,1.9,6.1,2.8,9c1.7,5.8,3,11,4.1,15.3C867.5,459.9,868.3,465.4,867.9,465.5z"/>
		</g>
	</g>
</g>
<g>
	<g>
		<g>
			<path class="st8" d="M874.2,462.7c-0.9,0.1-3.4-13.3-8.2-29.4c-1.3-4.4-2.6-8.6-3.8-12.3c-0.6-1.9-1.2-3.5-2-4.7
				c-0.2-0.3-0.4-0.5-0.7-0.8c-0.2-0.2-0.5-0.4-0.6-0.5c-0.3-0.2-0.7-0.4-1-0.2c-0.3,0.2-0.3,0.4-0.5,0.7c-0.1,0.1-0.1,0.4-0.2,0.6
				c-0.1,0.2-0.1,0.4-0.2,0.6c-0.2,0.8-0.4,1.6-0.5,2.2c-0.2,1.2-0.3,1.9-0.5,2c-0.2,0-0.5-0.7-0.6-2c-0.1-0.7-0.1-1.5,0-2.5
				c0-0.2,0.1-0.5,0.1-0.7c0-0.3,0.1-0.5,0.2-0.9c0.2-0.7,0.4-1.6,1-2.1c0.4-0.3,0.9-0.4,1.5-0.4c0.3,0,0.5,0.1,0.8,0.1
				c0.3,0.1,0.6,0.2,0.8,0.3c0.6,0.3,0.9,0.5,1.4,0.8c0.4,0.3,0.7,0.7,1.1,1c1.3,1.5,2.1,3.4,2.8,5.3c1.4,3.7,2.9,7.9,4.2,12.3
				C874,448.8,875,462.7,874.2,462.7z"/>
		</g>
	</g>
</g>
<g>
	<g>
		<g>
			<path class="st8" d="M886.1,467.6c-0.5,0.1-1.2-3.6-2.6-9.3c-1.4-5.7-3.7-13.5-7.3-21.7c-1.8-4.1-3.7-7.9-5.5-11.3
				c-1.8-3.3-4.1-7-4.4-7.5c-0.1-0.2-0.2-0.4-0.3-0.5l-0.2-0.3c-0.1-0.1-0.1-0.3-0.1-0.1c-0.1,0.2-0.3,0.5-0.4,0.7
				c-0.2,0.5-0.4,1.1-0.5,1.7c0,0.1-0.1,0.3-0.1,0.5c0,0.2,0,0.3-0.1,0.5c0,0.3-0.1,0.6-0.1,0.8c-0.1,0.4-0.1,0.7-0.2,0.7
				c-0.1,0-0.3-0.2-0.4-0.6c-0.1-0.2-0.1-0.5-0.2-0.8c0-0.2-0.1-0.3-0.1-0.5c0-0.2-0.1-0.4-0.1-0.7c-0.1-1.1,0-2.5,0.4-4
				c0.2-0.8,0.4-1.6,0.7-2.5c0.1-0.4,0.2,0,0.4,0.1c0.1,0.2,0.3,0.3,0.4,0.5c0.3,0.3,0.6,0.7,0.9,1.1c0.3,0.4,0.7,0.8,1,1.1
				c0.2,0.2,0.3,0.4,0.5,0.6c0.2,0.2,0.4,0.5,0.6,0.7c0.6,0.8,1.1,1.6,1.7,2.4c1,1.5,2.1,3,3.1,4.7c2.1,3.4,4.1,7.3,5.9,11.5
				c3.6,8.5,5.7,16.6,6.5,22.5C886.7,463.8,886.5,467.5,886.1,467.6z"/>
		</g>
	</g>
</g>
<g>
	<g>
		<g>
			<path class="st8" d="M909.9,526.3c-0.2,0.1-1.1-1.1-2.4-3.5c-1.2-2.4-2.6-6.2-3.5-11c-0.9-4.8-1.3-10.6-1.5-17
				c-0.1-3.2-0.2-6.5-0.4-9.9c-0.1-1.7-0.3-3.4-0.4-5.2c-0.2-1.7-0.4-3.5-0.8-5.2c-0.3-1.8-0.8-3.5-1.2-5.1
				c-0.5-1.7-1.1-3.3-1.6-4.9c-1.1-3.3-2.2-6.6-2.5-10c-0.1-0.9-0.1-1.7,0-2.5c0-0.8,0.1-1.7,0.3-2.4c0.1-0.7,0.2-1.4,0.2-2
				c0-0.6-0.1-1.1-0.3-1.5c-0.2-0.4-0.5-0.8-0.9-1c-0.4-0.2-0.6-0.2-0.9-0.2c-0.4,0-1.2,1.3-1.8,2.2c-2.4,4-3.5,7.7-4.1,10.2
				c-0.6,2.6-0.7,4.1-0.9,4.1c-0.2,0-0.5-1.5-0.3-4.3c0.2-2.7,1-6.8,3.3-11.2c0.3-0.6,0.6-1.1,1-1.7c0.2-0.3,0.4-0.6,0.7-0.9
				c0.3-0.3,0.8-0.7,1.2-0.8c1-0.4,2.2-0.2,3,0.3c0.8,0.5,1.5,1.1,2,2c1,1.8,0.7,3.6,0.6,5.1c-0.1,0.8-0.2,1.5-0.2,2.2
				c0,0.7,0,1.4,0.1,2.2c0.3,2.9,1.4,6,2.5,9.2c0.6,1.6,1.2,3.3,1.7,5.1c0.5,1.8,1,3.6,1.3,5.5c0.4,1.9,0.6,3.7,0.8,5.5
				c0.1,1.8,0.3,3.6,0.4,5.3c0.2,3.5,0.2,6.9,0.2,10c0,6.4,0.2,12,0.8,16.7c0.6,4.7,1.6,8.4,2.4,10.9
				C909.6,524.8,910.1,526.2,909.9,526.3z"/>
		</g>
	</g>
</g>
<g>
	<g>
		<g>
			<path class="st8" d="M944.8,650.5c-0.2,0.2-1.6-1.2-4.2-3.7c-0.6-0.6-1.3-1.3-2.1-2.1c-0.7-0.8-1.5-1.7-2.4-2.7
				c-1.7-1.9-3.7-4.1-5.6-6.6c-1-1.3-2-2.6-3.1-4c-1.1-1.4-2.1-2.9-3.2-4.4c-2.3-3-4.4-6.5-6.8-10c-4.5-7.2-9.1-15.4-13.5-24.1
				c-8.7-17.6-15.2-34.1-19.6-46.1c-4.4-12-6.8-19.6-6.4-19.7c0.4-0.2,3.6,7.1,8.6,18.9c5,11.8,11.7,28.1,20.4,45.5
				c4.4,8.7,8.9,16.8,13.2,24c2.2,3.6,4.3,7,6.4,10.1c1.1,1.5,2,3.1,3,4.5c1,1.4,2,2.8,2.9,4.1c1.8,2.6,3.6,4.9,5.2,6.9
				c0.8,1,1.5,1.9,2.2,2.8c0.7,0.8,1.3,1.6,1.9,2.3C943.8,648.8,945,650.4,944.8,650.5z"/>
		</g>
	</g>
</g>
<g>
	<g>
		<g>
			<path class="st8" d="M956.5,586.4c0,0.1-0.2,0.3-0.8,0.4c-0.6,0.1-1.6-0.2-2.4-0.9c-0.4-0.3-0.9-0.7-1.3-1.2
				c-0.4-0.5-0.9-1-1.3-1.5c-1-1.1-2-2.3-3.2-3.7c-4.6-5.5-10.8-13.4-17.2-22.3c-12.8-17.9-21.7-33.5-20.9-33.9
				c0.8-0.5,10.8,14.2,23.6,32c6.4,8.9,12.2,17,16.4,22.8c1,1.5,2,2.8,2.8,4c0.4,0.6,0.8,1.1,1.1,1.6c0.3,0.5,0.6,0.9,1,1.2
				c0.6,0.7,1.2,1,1.6,1.2C956.2,586.3,956.5,586.3,956.5,586.4z"/>
		</g>
	</g>
</g>
<g>
	<g>
		<g>
			<path class="st8" d="M1089.3,564.3c-0.3,0.3-4.7-4.1-10.7-12.1c-0.7-1-1.5-2.1-2.3-3.2c-0.8-1.1-1.5-2.3-2.4-3.5
				c-1.7-2.4-3.2-5.2-4.9-8c-3.3-5.8-6.5-12.3-9.4-19.4c-2.9-7.1-5.1-14.1-6.8-20.5c-0.8-3.2-1.6-6.3-2.1-9.2
				c-0.3-1.4-0.6-2.8-0.8-4.2c-0.2-1.4-0.4-2.6-0.6-3.9c-1.4-9.9-1.2-16.1-0.8-16.1c0.5,0,1.2,6.1,3.1,15.8c0.2,1.2,0.5,2.5,0.8,3.8
				c0.3,1.3,0.6,2.7,1,4.1c0.6,2.8,1.5,5.8,2.3,9c1.8,6.3,4.1,13,6.9,20c2.9,6.9,6,13.4,9.1,19.1c1.6,2.8,3.1,5.6,4.6,8
				c0.8,1.2,1.4,2.5,2.2,3.6c0.7,1.1,1.4,2.2,2.1,3.3C1085.9,559.1,1089.7,564,1089.3,564.3z"/>
		</g>
	</g>
</g>
<g>
	<g>
		<g>
			<path class="st8" d="M1214.2,604.7c-0.4,0.2-3.8-4.8-9.1-13.2c-2.6-4.2-5.7-9.2-9.1-14.8c-3.4-5.6-7-11.8-10.9-18.2
				c-3.9-6.4-7.9-12.4-11.8-17.5c-3.9-5.1-7.9-9.4-11.5-12.6c-3.6-3.3-6.9-5.5-9.1-7.1c-2.3-1.5-3.6-2.3-3.5-2.6
				c0.1-0.2,1.6,0.3,4.1,1.5c2.5,1.3,6.1,3.3,10,6.4c3.9,3.1,8.2,7.4,12.4,12.5c4.2,5.1,8.3,11.2,12.2,17.6
				c4,6.5,7.5,12.7,10.7,18.4c3.2,5.7,6.1,10.8,8.5,15.2C1211.8,598.9,1214.6,604.4,1214.2,604.7z"/>
		</g>
	</g>
</g>
<g>
	<g>
		<g>
			<path class="st8" d="M1207.8,659.5c-1-0.3,3-13.2,3.4-29.5c0.5-16.4-2.7-29.4-1.8-29.7c0.4-0.1,1.7,3,3,8.4
				c0.6,2.7,1.2,5.9,1.6,9.5c0.4,3.6,0.6,7.6,0.5,11.8c-0.1,4.2-0.5,8.2-1.1,11.8c-0.6,3.6-1.3,6.8-2.1,9.4
				C1209.7,656.5,1208.2,659.6,1207.8,659.5z"/>
		</g>
	</g>
</g>
<g>
	<g>
		<g>
			<path class="st8" d="M991.4,883.3c-0.2,0,0-2.1,0.6-5.7c0.2-0.9,0.3-1.9,0.5-3c0.2-1.1,0.5-2.3,0.8-3.6c0.6-2.5,1.2-5.5,2.2-8.6
				c0.4-1.6,0.9-3.2,1.4-5c0.5-1.7,1.1-3.5,1.7-5.3c1.2-3.7,2.6-7.6,4.2-11.7c3.2-8.1,7-16.9,11.5-25.9c9-18,18.4-33.5,25.4-44.6
				c7-11.1,11.6-17.8,12-17.5c0.4,0.2-3.5,7.4-10,18.7c-6.5,11.4-15.5,27.1-24.4,44.9c-4.4,8.9-8.3,17.6-11.6,25.6
				c-1.6,4-3.1,7.8-4.4,11.4c-0.6,1.8-1.3,3.5-1.9,5.2c-0.6,1.7-1.1,3.3-1.6,4.9c-1.1,3.1-1.8,5.9-2.6,8.4c-0.4,1.2-0.7,2.4-1,3.5
				c-0.3,1.1-0.6,2.1-0.8,2.9C992.3,881.4,991.6,883.3,991.4,883.3z"/>
		</g>
	</g>
</g>
<g>
	<g>
		<g>
			<path class="st8" d="M1193.1,885.6c0.1,0.1-0.4,0.7-1.5,1.7c-0.5,0.5-1.2,1.2-2,1.9c-0.8,0.7-1.8,1.5-2.9,2.4
				c-4.4,3.6-11.1,8.3-20.2,12.7c-4.6,2.1-9.7,4.3-15.4,6.1c-5.7,1.8-11.8,3.4-18.4,4.5c-13.2,2.4-28,2.9-43.3,1.7
				c-15.3-1.2-29.8-4.1-42.7-7.2c-6.5-1.6-12.5-3.2-18.2-4.8c-5.7-1.6-11-3.2-15.7-4.9c-4.7-1.7-9-3.6-12.5-5.6
				c-3.5-2-6.3-4.1-8.4-6c-0.5-0.5-1-0.9-1.4-1.4c-0.4-0.5-0.9-0.9-1.2-1.3c-0.7-0.8-1.3-1.5-1.7-2.1c-0.8-1.2-1.2-1.9-1.1-2
				c0.2-0.2,2,2.4,6.4,5.8c2.2,1.7,5,3.6,8.5,5.4c3.5,1.8,7.6,3.5,12.4,5c4.7,1.5,10,3,15.7,4.5c5.7,1.5,11.8,3,18.2,4.5
				c12.8,2.9,27.1,5.6,42.2,6.9c15.1,1.2,29.6,0.8,42.5-1.4c6.5-1.1,12.5-2.5,18.1-4.1c5.6-1.6,10.6-3.6,15.2-5.6
				c9.1-4,15.9-8.4,20.4-11.6c1.1-0.8,2.2-1.5,3-2.2c0.9-0.7,1.6-1.2,2.2-1.7C1192.4,886,1193.1,885.6,1193.1,885.6z"/>
		</g>
	</g>
</g>
<g>
	<g>
		<g>
			<path class="st8" d="M1187.7,886.6c-0.9-0.3,1.7-9,1.9-20c0.3-11-1.8-19.8-0.9-20.1c0.4-0.1,1.5,2,2.5,5.6c0.5,1.8,0.9,4,1.3,6.5
				c0.3,2.5,0.5,5.2,0.4,8.1c-0.1,2.9-0.4,5.6-0.8,8.1c-0.4,2.5-1,4.6-1.6,6.4C1189.3,884.7,1188.1,886.7,1187.7,886.6z"/>
		</g>
	</g>
</g>
<g>
	<g>
		<g>
			<path class="st8" d="M1096.7,888.9c-0.4-0.2,1.4-3.9,5-9.3c1.8-2.7,4.1-5.9,6.8-9.3c2.7-3.4,5.8-7,9.3-10.6
				c3.5-3.6,6.9-6.9,10.2-9.7c3.3-2.8,6.3-5.3,9-7.2c5.3-3.8,8.9-5.8,9.1-5.4c0.6,0.8-12.4,10.3-26,24.6
				C1106.5,876.1,1097.5,889.5,1096.7,888.9z"/>
		</g>
	</g>
</g>
<g>
	<g>
		<g>
			<path class="st8" d="M1034.7,939.9c-0.4-0.1-0.3-2,0.5-4.8c0.8-2.8,2.3-6.6,4.6-10.5c2.2-3.9,4.7-7.1,6.7-9.3
				c2-2.1,3.5-3.2,3.9-2.9c0.7,0.6-3.5,6.3-7.8,13.8C1038.4,933.7,1035.6,940.2,1034.7,939.9z"/>
		</g>
	</g>
</g>
<g>
	<g>
		<g>
			<path class="st8" d="M1087.7,1128.8c-0.2,0.1-1.6-2.3-4-6.9c-2.3-4.5-5.5-11.2-9-19.6c-3.5-8.4-7.3-18.6-10.9-30.2
				c-3.6-11.5-7-24.4-9.6-38.1c-2.7-13.7-4.6-26.8-6.7-38.6c-2-11.8-4.2-22.4-6.4-31.2c-2.3-8.8-4.5-15.8-6.3-20.5
				c-0.4-1.2-0.8-2.3-1.2-3.2c-0.3-0.9-0.6-1.7-0.8-2.3c-0.4-1.3-0.6-2-0.5-2c0.1,0,0.5,0.6,1.1,1.7c0.3,0.6,0.7,1.3,1.1,2.2
				c0.4,0.9,1,1.9,1.4,3.1c2.1,4.7,4.7,11.6,7.3,20.4c2.6,8.8,5,19.4,7.2,31.3c2.2,11.9,4.2,24.9,6.9,38.5
				c2.6,13.6,5.9,26.4,9.3,37.9c3.4,11.5,7,21.7,10.2,30.2c3.2,8.5,6,15.3,8,20C1086.8,1126.1,1087.9,1128.7,1087.7,1128.8z"/>
		</g>
	</g>
</g>
<g>
	<g>
		<g>
			<path class="st8" d="M976.3,960.4c-0.4,0-0.7-4-0.4-10.5c0.1-3.2,0.5-7.1,1-11.4c0.6-4.3,1.3-8.9,2.4-13.8
				c1.1-4.8,2.3-9.4,3.5-13.5c1.3-4.1,2.5-7.8,3.8-10.8c2.4-6,4.3-9.6,4.7-9.4c0.9,0.4-4.8,15.3-8.8,34.4
				C978.3,944.6,977.3,960.5,976.3,960.4z"/>
		</g>
	</g>
</g>
<g>
	<g>
		<g>
			<path class="st8" d="M1046.4,1121.2c-0.2,0.1-1.6-1.9-3.9-5.6c-1.2-1.9-2.5-4.2-4.1-6.9c-1.6-2.7-3.4-5.8-5.2-9.2
				c-3.8-6.9-8.2-15.1-13-24.4c-4.7-9.3-9.7-19.6-14.7-30.5c-5-10.9-9.5-21.4-13.5-31c-3.9-9.6-7.3-18.4-10-25.7
				c-1.4-3.7-2.5-7-3.6-10c-1-2.9-1.9-5.5-2.5-7.6c-1.3-4.2-2-6.5-1.8-6.6c0.2-0.1,1.2,2.1,2.9,6.2c1.7,4.1,4.1,9.9,7.1,17.2
				c3,7.3,6.6,15.9,10.6,25.4c4.1,9.5,8.7,20,13.7,30.8c5,10.9,9.9,21.2,14.5,30.5c4.6,9.3,8.7,17.7,12.3,24.6
				c3.6,7,6.4,12.7,8.4,16.6C1045.6,1118.9,1046.6,1121.1,1046.4,1121.2z"/>
		</g>
	</g>
</g>
<g>
	<g>
		<g>
			<path class="st8" d="M1065.1,1059.1c-0.2,0.4-3-0.8-7.7-2c-4.7-1.2-11.3-2.2-18.6-1.2c-3.6,0.4-7,1.3-10,2.4
				c-0.8,0.2-1.5,0.6-2.2,0.8c-0.7,0.3-1.4,0.6-2,0.9c-1.2,0.6-2.3,1.3-3.2,2c-1.8,1.4-2.8,3-3.2,4.2c-0.4,1.2-0.4,2-0.7,2
				c-0.2,0-0.6-0.7-0.6-2.3c0.1-1.5,1-3.7,2.9-5.6c0.9-1,2.1-1.9,3.4-2.7c0.7-0.4,1.4-0.8,2.1-1.1c0.7-0.3,1.5-0.7,2.3-1
				c3.1-1.3,6.8-2.3,10.7-2.8c7.8-1,15,0.4,19.7,2.3C1062.8,1056.7,1065.3,1058.8,1065.1,1059.1z"/>
		</g>
	</g>
</g>
<g>
	<g>
		<g>
			<path class="st8" d="M982.3,1147.5c-0.1,0-0.3-0.1-0.5-0.7c-0.2-0.5-0.1-1.4,0.3-2.3c0.4-0.9,1.2-1.8,2.2-2.7
				c1-0.8,2-1.7,3.2-2.7c4.8-4,11.7-9.3,19.9-14.3c8.2-5,16.3-8.6,22.4-10.3c1.5-0.4,2.9-0.9,4.2-1.1c1.3-0.2,2.4-0.3,3.4-0.2
				c1.9,0.2,2.7,1,2.6,1.2c-0.1,0.2-1-0.1-2.7,0.1c-1.6,0.1-3.9,0.9-6.8,2.1c-5.7,2.3-13.4,6-21.5,10.9c-8.1,4.9-15.1,9.9-20.3,13.4
				c-1.3,0.9-2.5,1.6-3.5,2.3c-1,0.6-1.7,1.3-2.2,1.9C982.2,1146.4,982.5,1147.4,982.3,1147.5z"/>
		</g>
	</g>
</g>
<g>
	<g>
		<g>
			<path class="st8" d="M1092,1144.6c0,0.4-6,1.3-15.6,2.2c-9.7,1-23.1,2.1-37.9,3.1c-14.8,1-28.4,1.3-38.1,1
				c-9.8-0.4-15.8-1.2-15.8-1.7c0-0.5,6.1-0.4,15.8-0.7c9.7-0.2,23.1-0.9,37.9-1.9c14.8-1,28.3-1.8,38-2.1
				C1085.9,1144.2,1092,1144.2,1092,1144.6z"/>
		</g>
	</g>
</g>
<g>
	<g>
		<g>
			<path class="st8" d="M1091,1145.2c-0.9-0.4-0.1-3.9-0.8-8.1c-0.6-4.2-2.4-7.4-1.7-8c0.3-0.3,1.3,0.2,2.4,1.5
				c1.1,1.3,2.1,3.4,2.5,6c0.4,2.6,0,4.9-0.6,6.5C1092.2,1144.6,1091.4,1145.4,1091,1145.2z"/>
		</g>
	</g>
</g>
<g>
	<g>
		<g>
			<path class="st8" d="M1165.4,1083.2c-0.6,0-0.9-9.2-4.1-23.7c-1.5-7.2-3.8-15.8-6.5-25.2c-2.7-9.4-5.9-19.8-8.6-30.9
				c-2.7-11.1-4.6-21.9-5.2-31.8c-0.4-5-0.3-9.7-0.4-14c0-4.4-0.1-8.4-0.3-12.1c-0.2-3.7-0.7-7-1.3-9.8c-0.2-0.7-0.3-1.4-0.5-2
				c-0.2-0.7-0.4-1.3-0.5-1.9c-0.3-1.2-0.8-2.3-1.1-3.2c-0.8-1.9-1.4-3.4-1.9-4.3c-0.5-1-0.7-1.5-0.6-1.6c0.1-0.1,0.5,0.4,1.2,1.2
				c0.7,0.9,1.6,2.3,2.5,4.2c0.4,1,1,2,1.4,3.2c0.2,0.6,0.5,1.2,0.7,1.9c0.2,0.7,0.4,1.4,0.6,2.1c0.8,2.9,1.4,6.3,1.8,10
				c0.4,3.7,0.6,7.9,0.7,12.2c0.2,4.4,0.2,9,0.6,13.9c0.7,9.7,2.7,20.3,5.4,31.3c2.7,11,5.8,21.3,8.3,30.9
				c2.6,9.5,4.7,18.2,5.9,25.6c0.4,1.8,0.6,3.6,0.8,5.3c0.2,1.7,0.5,3.2,0.6,4.7c0.3,3,0.5,5.5,0.6,7.6
				C1165.7,1080.9,1165.6,1083.2,1165.4,1083.2z"/>
		</g>
	</g>
</g>
<g>
	<g>
		<g>
			<path class="st8" d="M1198.2,1114.7c-0.2,0-0.4-3-0.6-8.5c-0.2-5.5-0.4-13.4-0.7-23.2c-0.2-4.9-0.3-10.3-0.6-16
				c-0.2-5.8-0.5-11.9-0.9-18.4c-0.7-12.9-1.6-27.1-2.8-42c-1.2-14.9-2.6-29.1-4-41.9c-0.7-6.4-1.4-12.5-2.1-18.3
				c-0.7-5.7-1.4-11-2-15.9c-1.3-9.7-2.3-17.6-3.1-23c-0.7-5.4-1-8.5-0.8-8.5c0.2,0,0.9,2.9,2,8.3c0.6,2.7,1.2,6,1.9,9.8
				c0.7,3.8,1.5,8.2,2.2,13.1c0.8,4.8,1.6,10.2,2.4,15.9c0.8,5.7,1.6,11.8,2.4,18.3c1.6,12.9,3.1,27.1,4.3,42
				c1.2,14.9,2,29.2,2.6,42.2c0.2,6.5,0.5,12.6,0.6,18.4c0.1,5.8,0.2,11.1,0.2,16.1c0,4.9,0,9.3-0.1,13.2c0,3.9-0.1,7.3-0.2,10
				C1198.7,1111.6,1198.4,1114.7,1198.2,1114.7z"/>
		</g>
	</g>
</g>
<g>
	<g>
		<g>
			<path class="st8" d="M1126.8,1119.1c-0.4-0.1-0.1-3.2,1.6-7.9c0.2-0.6,0.5-1.2,0.7-1.8c0.3-0.6,0.6-1.3,0.9-1.9
				c0.6-1.3,1.4-2.7,2.2-4.1c1.7-2.8,3.9-5.8,6.5-8.6c2.7-2.8,5.5-5.1,8.2-7c1.4-0.9,2.7-1.8,4-2.5c0.7-0.3,1.3-0.7,1.9-1
				c0.6-0.3,1.2-0.6,1.8-0.8c4.6-2,7.7-2.4,7.8-2c0.2,0.5-2.6,1.7-6.8,4.1c-0.5,0.3-1.1,0.6-1.6,1c-0.6,0.3-1.1,0.7-1.7,1.1
				c-1.2,0.7-2.4,1.7-3.6,2.6c-2.5,1.9-5.1,4.2-7.6,6.8c-2.5,2.6-4.6,5.4-6.4,8c-0.8,1.3-1.7,2.6-2.4,3.8c-0.3,0.6-0.7,1.2-1,1.8
				c-0.3,0.6-0.6,1.1-0.9,1.7C1128.3,1116.4,1127.2,1119.2,1126.8,1119.1z"/>
		</g>
	</g>
</g>
<g>
	<g>
		<g>
			
				<ellipse transform="matrix(0.9999 1.149810e-002 -1.149810e-002 0.9999 12.9045 -13.2509)" class="st8" cx="1158.9" cy="1115.7" rx="23.3" ry="1.6"/>
		</g>
	</g>
</g>
<g>
	<g>
		<g>
			<path class="st8" d="M1201.9,1035c-0.4,0.9-9.4-2.5-21.1-3.1c-11.7-0.8-21.1,1.4-21.3,0.5c-0.1-0.4,2.1-1.5,6-2.5
				c1.9-0.5,4.3-0.9,6.9-1.2c2.6-0.2,5.6-0.3,8.6-0.1c3.1,0.2,5.9,0.6,8.5,1.2c2.6,0.6,4.9,1.3,6.7,2
				C1200,1033.3,1202.1,1034.6,1201.9,1035z"/>
		</g>
	</g>
</g>
<g>
	<g>
		<g>
			<path class="st8" d="M1041.1,659.8c-0.5,0.7-6.2-2.8-11.5-8.8c-5.4-6-8.2-12-7.4-12.5c0.8-0.5,4.7,4.5,9.8,10.3
				C1037.2,654.6,1041.7,659.1,1041.1,659.8z"/>
		</g>
	</g>
</g>
<g>
	<g>
		<g>
			<path class="st8" d="M1046,766.6c-0.5-0.1,0.7-6.7,1.8-17.5c0.1-1.3,0.3-2.8,0.4-4.2c0.1-1.5,0.2-3,0.3-4.6
				c0.3-3.2,0.3-6.6,0.5-10.1c0.2-7.2,0.1-15-0.5-23.3c-0.6-8.2-1.6-16-2.7-23.1c-0.6-3.5-1.2-6.9-1.9-10c-0.3-1.6-0.6-3.1-0.9-4.5
				c-0.3-1.4-0.7-2.8-1-4.1c-2.6-10.5-4.6-17-4.1-17.1c0.4-0.1,3.2,6,6.4,16.5c0.4,1.3,0.8,2.7,1.2,4.1c0.4,1.4,0.7,3,1.1,4.5
				c0.8,3.1,1.5,6.5,2.2,10.1c1.3,7.1,2.4,15,3,23.4c0.5,8.4,0.5,16.3,0.2,23.6c-0.2,3.6-0.4,7.1-0.8,10.3c-0.2,1.6-0.3,3.2-0.5,4.6
				c-0.2,1.5-0.4,2.9-0.6,4.3C1048.3,760.2,1046.3,766.7,1046,766.6z"/>
		</g>
	</g>
</g>
<g>
	<g>
		<g>
			<path class="st8" d="M1176.9,642.3c-0.8,0.2-5.1-13.7-6.5-31.5c-1.5-17.8,0.6-32.2,1.4-32.2c1,0.1,0.4,14.4,1.9,31.9
				C1175.1,628,1177.9,642.1,1176.9,642.3z"/>
		</g>
	</g>
</g>
<g>
	<g>
		<g>
			<path class="st8" d="M1182.3,868.5c-0.2-0.1,0.3-3.3,1.4-9.2c0.3-1.5,0.6-3.1,1-4.9c0.3-1.8,0.6-3.8,0.9-5.9
				c0.6-4.2,1.5-9,2-14.3c0.3-2.7,0.6-5.4,1-8.3c0.3-2.9,0.5-5.9,0.7-9.1c0.6-6.3,0.7-13,1-20c0.2-14.1-0.1-29.7-1.2-45.9
				c-1.1-16.3-2.9-31.7-4.6-45.8c-0.9-7-1.8-13.7-2.7-19.9c-0.9-6.2-1.7-12-2.5-17.3c-1.6-10.6-2.9-19.2-3.7-25.1
				c-0.8-5.9-1.2-9.2-1-9.3c0.2,0,1,3.2,2.2,9.1c1.2,5.9,2.9,14.4,4.8,25c0.9,5.3,2,11.1,2.9,17.3c1,6.2,2,12.9,3,19.9
				c1.9,14.1,3.8,29.6,4.9,45.9c1.1,16.4,1.3,32,0.9,46.2c-0.4,7.1-0.6,13.9-1.3,20.2c-0.3,3.1-0.5,6.2-0.9,9.1
				c-0.4,2.9-0.8,5.7-1.2,8.4c-0.7,5.3-1.7,10.1-2.5,14.3c-0.4,2.1-0.8,4-1.2,5.8c-0.5,1.8-0.9,3.4-1.2,4.8
				C1183.5,865.3,1182.5,868.5,1182.3,868.5z"/>
		</g>
	</g>
</g>
<g>
	<g>
		<g>
			<path class="st8" d="M1206.4,661.3c0.2-0.1,0.6,0.4,0.8,1.6c0.1,0.6,0.1,1.3-0.1,2.1c-0.2,0.8-0.6,1.7-1.2,2.6
				c-0.6,0.9-1.4,1.7-2.4,2.4c-1,0.7-2.4,1.3-3.7,1.5c-2.8,0.5-5.8-0.1-8.6-1.3c-5.5-2.4-9.4-6.1-11.8-9c-2.4-3-3.3-5.2-2.9-5.4
				c0.4-0.3,1.9,1.4,4.6,3.8c1.3,1.2,3,2.6,4.9,3.9c1.9,1.3,4.1,2.7,6.5,3.7c2.4,1,4.8,1.6,6.9,1.3c2-0.2,3.7-1.2,4.8-2.4
				c0.5-0.6,1-1.2,1.2-1.7c0.3-0.6,0.5-1.1,0.5-1.6C1206.2,661.9,1206.1,661.3,1206.4,661.3z"/>
		</g>
	</g>
</g>
<g>
	<g>
		<g>
			<path class="st8" d="M1167.4,511.2c0.8-0.3,3.3,5.3,4.4,12.6c1.1,7.3,0.3,13.4-0.6,13.3c-0.9,0-1.6-5.8-2.6-12.9
				C1167.5,517.2,1166.5,511.5,1167.4,511.2z"/>
		</g>
	</g>
</g>
<g>
	<g>
		<g>
			<path class="st8" d="M1160.4,493.8c-0.3,0.4-3.3-1.3-8.1-4.3c-1.2-0.8-2.5-1.6-3.9-2.5l-0.5-0.3l-0.2-0.1
				c-0.1-0.1-0.2-0.1-0.4-0.2c-0.2-0.1-0.4-0.2-0.6-0.4l-0.1-0.1c0,0-0.1-0.1-0.1,0l0.1,0.4c0.1,0.3,0.2,0.5,0.3,0.8
				c0.2,0.7,0.4,1.3,0.6,2c0.3,1,0.6,2,1,3c1.3,4,3,7.6,4.9,10.6c1.9,3,4.1,5.4,6.1,7.2c4.1,3.5,7.6,4.4,7.4,4.9
				c0,0.2-1,0.3-2.6-0.1c-1.6-0.4-3.8-1.3-6.3-2.9c-2.4-1.7-5-4.1-7.2-7.3c-2.2-3.2-4-7.1-5.4-11.2c-0.4-1-0.7-2.1-1-3.1
				c-0.1-0.5-0.3-1-0.4-1.5c-0.2-0.8-0.4-1.6-0.7-2.4c-0.4-1.7-0.9-3.3-1.3-4.9c-0.2-0.8-0.4-1.6-0.6-2.3c-0.3-0.7,0.3-0.1,0.6,0.1
				c0.3,0.2,0.7,0.5,1,0.7c1.3,0.9,2.5,1.8,3.8,2.7c0.6,0.4,1.2,0.9,1.8,1.3c0.5,0.4,0.9,0.7,1.4,1c1.3,1,2.5,2,3.6,2.8
				C1158,491.1,1160.6,493.5,1160.4,493.8z"/>
		</g>
	</g>
</g>
<g>
	<g>
		<g>
			<path class="st8" d="M1166.4,442.4c0.9,0.5-4.5,10.6-7,24.2c-2.6,13.6-1.2,25-2.2,25.1c-0.4,0.1-1.3-2.7-1.8-7.4
				c-0.3-2.3-0.4-5.1-0.3-8.3c0.1-3.1,0.4-6.5,1.1-10.1c0.7-3.5,1.6-6.8,2.6-9.8c1-2.9,2.1-5.5,3.2-7.6
				C1164.2,444.5,1166,442.2,1166.4,442.4z"/>
		</g>
	</g>
</g>
<g>
	<g>
		<g>
			<path class="st8" d="M1170.7,488.4c-0.9-0.1-1-10.2-2.4-22.7c-1.4-12.4-3.6-22.4-2.7-22.6c0.8-0.3,4.5,9.5,6,22.3
				C1173,478.1,1171.6,488.5,1170.7,488.4z"/>
		</g>
	</g>
</g>
<g>
	<g>
		<g>
			<path class="st8" d="M1179.2,493.4c-1-0.1-0.4-11.4-2.9-25.1c-0.6-3.4-1.3-6.6-2-9.5c-0.4-1.5-0.7-2.8-1.1-4.1
				c-0.4-1.3-0.6-2.5-1.1-3.4c-0.8-2-1.9-3.3-2.8-3.8c-0.9-0.6-1.7-0.5-1.7-0.7c0-0.1,0.1-0.2,0.5-0.4c0.4-0.1,1-0.2,1.7-0.1
				c1.5,0.3,3.2,1.8,4.5,4c0.3,0.5,0.6,1.1,0.9,1.7c0.3,0.6,0.5,1.2,0.7,1.9c0.5,1.3,0.9,2.7,1.4,4.2c0.9,3,1.7,6.3,2.3,9.8
				c1.2,7,1.4,13.5,1.1,18.2C1180.3,490.6,1179.7,493.4,1179.2,493.4z"/>
		</g>
	</g>
</g>
<g>
	<g>
		<g>
			<path class="st8" d="M1188.1,496.9c-0.5,0-0.9-2.9-1.3-7.5c-0.4-4.6-0.8-10.9-2.2-17.7c-1.3-6.8-3.5-12.6-5.6-16.6
				c-2.1-4-3.8-6.3-3.5-6.6c0.3-0.3,2.7,1.5,5.4,5.4c2.7,3.9,5.5,10.1,6.8,17.2c1.4,7.1,1.4,13.6,1.3,18.3
				C1188.9,494,1188.5,496.9,1188.1,496.9z"/>
		</g>
	</g>
</g>
<g>
	<g>
		<g>
			<path class="st8" d="M1193.4,498.5c-0.9,0-1.3-7-3.3-15.2c-1.9-8.3-4.5-14.7-3.7-15.1c0.4-0.2,1.6,1.2,3,3.8
				c1.4,2.6,2.9,6.3,3.9,10.7c1,4.3,1.3,8.4,1.1,11.3C1194.3,496.7,1193.9,498.5,1193.4,498.5z"/>
		</g>
	</g>
</g>
<g>
	<g>
		<g>
			<path class="st8" d="M1215.1,608.5c-0.5,0-1.1-6.4-2.2-16.8c-0.5-5.2-1.2-11.3-2-18.2c-0.9-6.8-1.7-14.3-3.1-22.1
				c-0.7-3.9-1.6-7.6-2.7-11.1c-1.1-3.5-2.4-6.8-3.7-10c-1.3-3.2-2.5-6.2-3.6-9.1c-1.1-2.9-1.9-5.7-2.6-8.2
				c-1.3-5.2-1.5-9.6-1.2-12.5c0.1-0.7,0.1-1.4,0.2-2c0.1-0.6,0.2-1,0.3-1.4c0.2-0.8,0.4-1.1,0.5-1.1c0.1,0,0.2,0.4,0.2,1.2
				c0,0.4,0,0.9,0,1.4c0,0.6,0,1.2,0.1,1.9c0.1,2.9,0.6,7,2.1,11.9c0.8,2.4,1.7,5.1,2.9,7.9c1.2,2.8,2.5,5.8,3.8,9
				c1.4,3.2,2.8,6.6,4,10.2c1.2,3.6,2.1,7.5,2.9,11.4c1.5,7.9,2.2,15.5,2.9,22.3c0.7,6.9,1.1,13.1,1.3,18.3
				C1215.7,602.1,1215.5,608.5,1215.1,608.5z"/>
		</g>
	</g>
</g>
<g>
	<g>
		<g>
			<path class="st8" d="M769.6,599.3c-0.2,0-0.8-3.1-1.6-8.6c-0.8-5.6-1.8-13.7-2.9-23.7c-2.3-20-5.1-47.7-7.6-78.4
				c-2.5-30.6-4.2-58.4-5.2-78.6c-0.5-10.1-0.8-18.2-0.9-23.8c-0.1-5.6-0.1-8.8,0.1-8.8c0.2,0,0.6,3.1,1.1,8.7
				c0.5,5.6,1.2,13.7,2,23.8c1.6,20.1,3.8,47.8,6.2,78.4c2.6,30.6,4.9,58.3,6.6,78.4c0.9,10,1.5,18.2,1.9,23.8
				C769.7,596.2,769.8,599.3,769.6,599.3z"/>
		</g>
	</g>
</g>
<g>
	<g>
		<g>
			<path class="st8" d="M897.7,592.9c0,0.5-6.3,0.5-16.4,0.4c-10.1,0-24.1,0-39.5,0.5c-15.4,0.5-29.3,1.4-39.4,2
				c-10.1,0.7-16.3,1.1-16.4,0.6c-0.1-0.4,6.1-1.6,16.2-2.9c10.1-1.3,24-2.5,39.5-3c15.5-0.5,29.5-0.2,39.6,0.5
				C891.5,591.6,897.7,592.4,897.7,592.9z"/>
		</g>
	</g>
</g>
<g>
	<g>
		<g>
			<path class="st8" d="M985.9,354.5c0,0.2-3.2,0.2-9,0c-1.4-0.1-3.1-0.1-4.8-0.2c-1.8,0-3.7-0.1-5.7-0.2c-4.1-0.1-8.8-0.3-14-0.4
				c-2.6-0.1-5.3-0.1-8.1-0.2c-2.8,0-5.8-0.1-8.8-0.1c-6.1-0.1-12.6,0-19.4,0c-13.7,0.2-28.7,0.6-44.5,1.4
				c-15.8,0.9-30.8,2.1-44.4,3.4c-6.8,0.7-13.3,1.3-19.3,2.1c-3,0.4-5.9,0.7-8.8,1c-2.8,0.4-5.5,0.7-8.1,1
				c-5.1,0.6-9.8,1.3-13.9,1.9c-2,0.3-3.9,0.5-5.7,0.8c-1.7,0.3-3.3,0.5-4.8,0.7c-5.7,0.8-8.9,1.2-9,0.9c0-0.2,3.1-1,8.8-2.2
				c1.4-0.3,3-0.6,4.7-1c1.7-0.3,3.6-0.7,5.7-1c4.1-0.7,8.7-1.6,13.8-2.4c2.6-0.4,5.3-0.8,8.1-1.3c2.8-0.4,5.7-0.8,8.8-1.2
				c6-0.9,12.5-1.6,19.4-2.4c13.7-1.5,28.7-2.8,44.5-3.7c15.8-0.8,30.9-1.2,44.7-1.2c6.9,0.1,13.4,0.1,19.5,0.3
				c3.1,0.1,6,0.1,8.8,0.3c2.8,0.1,5.5,0.3,8.1,0.4c5.2,0.2,9.9,0.6,14,0.9c2.1,0.2,4,0.3,5.7,0.4c1.8,0.2,3.4,0.3,4.8,0.5
				C982.7,353.9,985.9,354.3,985.9,354.5z"/>
		</g>
	</g>
</g>
<g>
	<g>
		<g>
			<path class="st8" d="M1002.9,548.7c-0.2,0-0.7-2.5-1.3-7.1c-0.7-4.6-1.5-11.3-2.4-19.5c-1.8-16.5-3.8-39.4-5.4-64.7
				c-1.6-25.3-2.3-48.2-2.6-64.8c-0.1-8.3-0.1-15,0-19.7c0.1-4.6,0.2-7.2,0.5-7.2c0.2,0,0.5,2.6,0.8,7.2c0.3,4.6,0.7,11.3,1.1,19.6
				c0.8,16.6,2,39.4,3.5,64.7c1.6,25.3,3.2,48.1,4.4,64.7c0.6,8.3,1.1,15,1.3,19.6C1003.1,546.1,1003.1,548.7,1002.9,548.7z"/>
		</g>
	</g>
</g>
<g>
	<g>
		<g>
			<path class="st8" d="M1109.2,372.4c-0.9,0.2-2.1-2.2-2.2-5.4c-0.1-3.2,1-5.7,1.8-5.6c0.9,0.1,1.3,2.6,1.4,5.4
				C1110.4,369.8,1110.1,372.2,1109.2,372.4z"/>
		</g>
	</g>
</g>
<g>
	<g>
		<g>
			<path class="st8" d="M1314.5,354.1c0,0.2-2.8,0.6-7.8,1c-5,0.5-12.4,1-21.4,1.6c-18.1,1.2-43.1,2.7-70.7,4.1
				c-13.8,0.7-27,1.3-38.9,1.9c-12,0.5-22.8,1-31.9,0.9c-9.1-0.1-16.5-0.7-21.5-1.4c-5-0.7-7.8-1.4-7.7-1.6c0-0.2,2.8,0.1,7.9,0.4
				c5,0.3,12.3,0.6,21.4,0.4c9-0.2,19.8-0.9,31.7-1.6c12-0.7,25.1-1.4,38.9-2.1c27.6-1.4,52.6-2.5,70.7-3.1
				c9.1-0.3,16.4-0.5,21.5-0.6S1314.5,353.8,1314.5,354.1z"/>
		</g>
	</g>
</g>
<g>
	<g>
		<g>
			<path class="st8" d="M1319.6,532.7c-0.2,0-0.6-2.2-1.2-6.3c-0.6-4.1-1.3-10-2-17.3c-1.5-14.6-3-34.9-3.8-57.3
				c-0.8-22.4-0.8-42.7-0.5-57.4c0.2-7.3,0.4-13.3,0.7-17.4c0.3-4.1,0.5-6.4,0.7-6.4c0.2,0,0.4,2.3,0.5,6.4c0.1,4.1,0.2,10,0.3,17.4
				c0.2,14.7,0.6,34.9,1.4,57.3c0.8,22.4,2,42.6,2.9,57.2c0.4,7.3,0.8,13.2,1,17.3C1319.8,530.4,1319.8,532.7,1319.6,532.7z"/>
		</g>
	</g>
</g>
<g>
	<g>
		<g>
			<path class="st8" d="M1300.5,530.1c0,0.5-5,1-13.1,1.7c-8.1,0.7-19.3,1.7-31.7,2.7c-12.4,0.9-23.6,1.6-31.8,1.9
				c-8.2,0.3-13.2,0.3-13.2-0.2c0-0.4,5-1.2,13.1-2.1c8.1-0.9,19.3-1.9,31.7-2.9c12.4-1,23.7-1.6,31.8-1.7
				C1295.4,529.4,1300.4,529.7,1300.5,530.1z"/>
		</g>
	</g>
</g>
<g>
	<g>
		<g>
			<path class="st8" d="M678.8,450.2c-0.2,0,0-3.3,0.5-9.3s1.3-14.6,2.5-25.3c0.6-5.3,1.2-11.2,1.8-17.4c0.6-6.3,1.3-12.9,1.4-19.9
				c0.2-7-0.2-14.4-1.7-21.8c-0.7-3.7-1.7-7.5-3.7-10.4c-1-1.5-2.2-2.7-3.8-3.4c-1.5-0.8-3.3-1.1-4.8-0.8c-1.5,0.3-2.8,1.3-3.8,2.8
				c-1,1.4-1.8,3.3-2.5,5.1c-1.5,3.6-2.7,7.2-3.5,10.9c-0.9,3.7-1.4,7.4-1.7,11c-0.3,3.6-0.4,7.2-0.2,10.7c0.6,14,4.1,26.3,7.7,36.2
				c3.7,10,7.4,17.8,9.9,23.2c2.6,5.4,4,8.4,3.8,8.5c-0.2,0.1-2-2.7-4.9-8c-2.9-5.3-7-13-11-23c-2-5-3.9-10.6-5.5-16.8
				c-1.6-6.2-2.7-12.9-3.1-20.1c-0.2-3.6-0.2-7.3,0.1-11.1c0.3-3.8,0.8-7.6,1.7-11.4c0.9-3.8,2.1-7.7,3.6-11.5
				c0.8-1.9,1.6-3.8,2.9-5.7c0.6-0.9,1.4-1.8,2.4-2.6c1-0.7,2.2-1.3,3.4-1.6c5-1,9.6,1.9,12,5.6c1.2,1.8,2.1,3.8,2.7,5.8
				c0.6,2,1,3.9,1.4,5.8c1.5,7.7,1.8,15.3,1.5,22.5c-0.3,7.2-1,13.9-1.7,20.2c-0.8,6.3-1.6,12.1-2.2,17.4
				c-1.4,10.6-2.6,19.2-3.5,25.1C679.6,447,679,450.3,678.8,450.2z"/>
		</g>
	</g>
</g>
<g>
	<g>
		<g>
			<path class="st8" d="M533.3,372.3c-0.2-0.1,0.4-3.1,1.7-8.7c1.2-5.5,3.2-13.5,5.1-23.4c1-4.9,1.9-10.4,2.6-16.3
				c0.7-5.9,1.2-12.2,1.3-18.8c0-3.3-0.1-6.7-0.3-10.1c-0.2-1.7-0.3-3.5-0.5-5.2c-0.2-1.7-0.6-3.4-1.1-5.1c-0.9-3.3-2.4-6.6-4.8-8.9
				c-2.4-2.3-5.8-3.2-9.1-2.3c-3.3,0.9-6.1,3.2-8.3,6c-1.1,1.4-2.1,2.9-2.8,4.4c-0.4,0.8-0.7,1.6-1.1,2.4c-0.4,0.8-0.6,1.7-0.9,2.5
				c-1.1,3.3-1.9,6.7-2.2,10.1l-0.1,1.3l-0.1,1.3c0,0.8-0.1,1.7-0.1,2.5c0,1.7,0,3.3,0.1,5c0.4,6.5,1.6,12.7,3.1,18.4
				c1.4,5.7,3.1,11,4.7,15.8c3.1,9.6,6.6,17,9.5,21.8c2.9,4.8,5,7.2,4.7,7.4c-0.1,0.1-2.5-2-5.8-6.7c-3.3-4.7-7.1-12.1-10.6-21.7
				c-1.7-4.8-3.6-10-5.2-15.8c-1.6-5.8-3-12.1-3.4-18.9c-0.2-1.7-0.2-3.4-0.2-5.2c0-0.9,0.1-1.8,0.1-2.7l0.1-1.3l0.1-1.3
				c0.3-3.6,1.1-7.2,2.3-10.8c0.3-0.9,0.6-1.8,1-2.7c0.4-0.9,0.8-1.7,1.2-2.6c0.9-1.8,1.9-3.4,3.2-5c1.2-1.6,2.7-3,4.3-4.3
				c1.7-1.2,3.6-2.3,5.7-2.8c2.1-0.6,4.4-0.6,6.5,0c2.1,0.5,4.1,1.7,5.6,3.1c3.1,3,4.7,6.7,5.7,10.4c0.5,1.8,0.9,3.7,1.1,5.5
				c0.3,1.9,0.3,3.6,0.5,5.4c0.2,3.5,0.3,7,0.2,10.4c-0.1,6.8-0.8,13.2-1.6,19.1c-0.9,5.9-1.9,11.4-3.1,16.4
				c-2.2,9.9-4.5,17.8-6.2,23.2C534.5,369.4,533.5,372.3,533.3,372.3z"/>
		</g>
	</g>
</g>
<g>
	<g>
		<g>
			<path class="st8" d="M802.3,176.5c-0.2-0.1,0.5-3.1,1.7-8.5c1.2-5.4,2.9-13.2,4.3-23c0.7-4.9,1.4-10.3,1.9-16
				c0.5-5.8,0.8-11.9,0.5-18.4c-0.4-6.4-1.5-13.1-4.1-19.5c-1.3-3.2-3.1-6.3-5.2-9c-2.1-2.6-5-4.8-8.1-4.8c-3.1,0-5.9,2.2-7.8,5
				c-1,1.4-1.7,2.9-2.4,4.5c-0.3,0.8-0.6,1.6-0.8,2.5c-0.3,0.8-0.5,1.7-0.7,2.5c-1.8,6.7-2,13.5-1.5,19.9c0.3,3.2,0.7,6.3,1.2,9.4
				c0.5,3,1.1,6,1.8,8.8c1.3,5.6,2.8,10.9,4.3,15.5c2.9,9.4,6.3,16.6,9.1,21.4c2.8,4.8,4.8,7.1,4.5,7.3c-0.1,0.1-0.7-0.5-1.7-1.5
				c-0.5-0.5-1.1-1.3-1.8-2.1c-0.6-0.9-1.4-1.8-2.2-3c-3.2-4.6-7-11.9-10.3-21.3c-1.6-4.7-3.2-9.9-4.7-15.6c-0.7-2.8-1.4-5.8-2-8.9
				c-0.6-3.1-1-6.3-1.3-9.6c-0.5-6.6-0.4-13.8,1.4-21c0.2-0.9,0.4-1.8,0.8-2.7c0.3-0.9,0.5-1.8,0.9-2.7c0.7-1.8,1.6-3.5,2.7-5.2
				c1.1-1.6,2.5-3.2,4.2-4.4c1.7-1.2,3.9-2,6.2-2.1c2.3,0,4.4,0.8,6.2,1.9c1.8,1.1,3.2,2.6,4.5,4.1c2.4,3.1,4.2,6.4,5.7,9.8
				c2.8,6.9,3.9,13.9,4.2,20.6c0.3,6.7-0.2,13-0.8,18.8c-0.6,5.8-1.4,11.2-2.3,16.1c-1.7,9.8-3.8,17.6-5.4,23
				C803.6,173.7,802.5,176.6,802.3,176.5z"/>
		</g>
	</g>
</g>
<g>
	<g>
		<g>
			<path class="st8" d="M1309.4,276.1c-0.2-0.1,0.4-2,1.5-5.6c1.1-3.5,2.7-8.6,4.4-14.9c0.8-3.2,1.8-6.6,2.5-10.4
				c0.7-3.7,1.2-7.8,1.1-12c-0.1-4.2-1-8.6-3.1-12.4c-1.1-1.9-2.5-3.7-4.2-4.9c-1.7-1.3-3.8-2.1-6-2.2c-1.1-0.1-2.2,0.1-3.1,0.3
				c-1,0.3-1.9,0.8-2.7,1.4c-0.8,0.7-1.4,1.4-2,2.3c-0.5,0.9-0.9,1.9-1.2,2.9c-0.6,2.1-0.8,4.3-0.8,6.5c0,2.2,0.2,4.3,0.4,6.5
				c0.8,8.6,2.2,16.3,3.7,22.6c0.7,3.2,1.4,6.1,2.2,8.5c0.8,2.4,1.8,4.4,2.8,5.8c1,1.5,2,2.4,2.7,3c0.7,0.6,1.2,0.9,1.1,1
				c0,0.1-0.6,0-1.5-0.5c-0.9-0.5-2.1-1.3-3.4-2.8c-1.3-1.4-2.5-3.5-3.5-6c-1-2.5-1.9-5.4-2.8-8.6c-1.8-6.4-3.4-14.2-4.4-22.9
				c-0.5-4.3-1-9.2,0.3-14.2c0.4-1.2,0.8-2.5,1.5-3.7c0.7-1.2,1.6-2.3,2.7-3.2c1.1-0.9,2.4-1.6,3.8-2c1.4-0.4,2.8-0.6,4.3-0.5
				c2.9,0.2,5.6,1.2,7.8,2.9c2.2,1.6,3.8,3.8,5.1,6c2.4,4.5,3.2,9.4,3.3,13.9c0.1,4.5-0.6,8.7-1.5,12.6c-0.9,3.8-1.9,7.3-2.9,10.5
				c-2,6.3-4,11.3-5.4,14.7C1310.6,274.3,1309.6,276.1,1309.4,276.1z"/>
		</g>
	</g>
</g>
<g>
	<g>
		<g>
			<path class="st8" d="M568,350.3c0.7,0.6-1.4,4.4-3.9,9c-2.5,4.6-4.7,8.4-5.5,8c-0.8-0.3,0-4.8,2.7-9.6
				C563.9,352.8,567.3,349.8,568,350.3z"/>
		</g>
	</g>
</g>
<g>
	<g>
		<g>
			<path class="st8" d="M522.9,315.1c0.2-0.2,0.8,0.5,2.2,0.7c0.7,0.1,1.5,0.1,2.5-0.2c0.9-0.3,1.9-0.8,2.8-1.6
				c0.4-0.4,0.8-0.9,1.1-1.5c0.3-0.6,0.5-1.2,0.7-1.9c0.3-1.4,0.3-3,0.1-4.7c-0.1-0.9-0.3-1.7-0.5-2.6c-0.2-0.9-0.5-1.7-0.8-2.6
				c-0.7-1.6-1.8-3.3-3.1-4.1c-1.3-0.8-2.8-0.6-3.9,0.3c-1.1,0.9-1.9,2.6-2.4,4.2c-0.9,3.3-0.9,6.5-0.4,9.1c0.5,2.6,1.5,4.4,2.6,5.3
				c1.1,0.9,1.9,1.2,1.9,1.5c0,0.2-1,0.4-2.6-0.4c-1.6-0.7-3.3-2.9-4.2-5.8c-0.8-2.9-1.2-6.5-0.2-10.4c0.5-1.9,1.3-4.1,3.2-5.8
				c1-0.9,2.3-1.5,3.6-1.6c1.4-0.2,2.9,0.2,4,0.9c1.2,0.7,2.1,1.7,2.8,2.6c0.7,1,1.2,2,1.6,3c0.4,1,0.7,2.1,0.9,3.1
				c0.2,1,0.3,2,0.4,3c0.2,2,0,3.9-0.5,5.7c-0.3,0.9-0.7,1.7-1.1,2.5c-0.5,0.7-1.1,1.4-1.7,1.9c-2.6,2-5.5,2-7.1,1.3
				C523.1,316.2,522.7,315.2,522.9,315.1z"/>
		</g>
	</g>
</g>
<g>
	<g>
		<g>
			<path class="st8" d="M669.1,384.1c0.2-0.1,0.8,0.6,1.9,1.9c0.5,0.6,1,1.4,1.7,2.2c0.1,0.1,0.2,0.2,0.3,0.4l0.1,0.2
				c0,0,0,0.1,0.1,0.1l0.1-0.1c0.3-0.2,0.6-0.4,0.8-0.7l0.2-0.2c0.1-0.1,0.2-0.3,0.3-0.4c0.2-0.3,0.3-0.6,0.4-0.9
				c0.3-0.6,0.5-1.4,0.6-2.1c0.1-0.8,0.2-1.6,0.2-2.5c0-0.9,0-1.8,0-2.8c-0.1-1.9-0.2-3.9-0.5-5.9c-0.3-2-0.6-4.2-1.4-5.8
				c-0.2-0.4-0.4-0.8-0.7-1.1c-0.2-0.3-0.5-0.5-0.9-0.7c-0.7-0.4-1.4-0.5-1.9-0.4c-0.5,0.1-1,0.5-1.4,1.2c-0.4,0.7-0.8,1.5-1.1,2.4
				c-1.2,3.4-1.4,6.8-1.1,9.6c0.3,2.8,1,5,1.6,6.5c0.6,1.5,1,2.3,0.8,2.5c-0.2,0.1-0.9-0.5-1.9-1.9c-1-1.4-2.1-3.7-2.7-6.7
				c-0.6-3-0.7-6.9,0.6-10.9c0.4-1,0.7-2,1.3-3.1c0.6-1,1.7-2.2,3.3-2.6c1.6-0.4,3.1,0,4.3,0.7c0.6,0.4,1.2,0.8,1.7,1.4
				c0.5,0.5,0.8,1.1,1.1,1.7c0.6,1.2,0.9,2.4,1.1,3.6c0.2,1.1,0.4,2.2,0.5,3.3c0.2,2.2,0.3,4.3,0.3,6.3c0,1-0.1,2-0.1,2.9
				c-0.1,1-0.2,1.9-0.5,2.9c-0.2,0.9-0.5,1.8-0.9,2.6c-0.2,0.4-0.4,0.8-0.7,1.2c-0.1,0.2-0.3,0.4-0.4,0.5c-0.2,0.2-0.4,0.4-0.6,0.6
				c-0.8,0.8-1.8,1.1-2.6,1.4l-0.3,0.1c-0.1,0-0.1-0.2-0.2-0.2c-0.1-0.2-0.2-0.4-0.4-0.5c-0.2-0.3-0.5-0.7-0.7-1.1
				c-0.5-0.8-0.6-1.2-0.9-1.7c-0.2-0.5-0.4-0.9-0.6-1.2C669.2,385.1,668.9,384.2,669.1,384.1z"/>
		</g>
	</g>
</g>
<g>
	<g>
		<g>
			<path class="st8" d="M795.1,126.5c0.1,0,0.2,0.3,0.4,0.6c0.2,0.3,0.7,0.7,1.5,0.9c0.7,0.2,1.8,0.1,2.5-0.6
				c0.8-0.7,1.3-1.9,1.6-3.4c0.5-3.1,0.9-7.1,0.4-11.3c-0.2-2.1-0.7-4.2-1.6-6.2c-0.4-1-1-2-1.6-2.9c-0.7-0.9-1.4-1.8-2.2-2.2
				c-0.8-0.5-1.6-0.6-2.3-0.4c-0.7,0.2-1.5,0.8-2.1,1.6c-0.6,0.8-1.1,1.7-1.4,2.7c-0.3,1-0.6,1.9-0.6,2.9c-0.4,4.2,0.2,8,1.1,11.1
				c1.9,6.2,4.7,9.3,4.3,9.7c-0.2,0.1-1-0.5-2.3-1.9c-1.3-1.4-2.9-3.8-4.2-7c-1.3-3.2-2.2-7.4-1.9-12.1c0.1-2.4,0.9-5,2.5-7.3
				c0.8-1.1,2-2.2,3.7-2.7c1.7-0.5,3.6-0.1,4.9,0.8c1.4,0.9,2.3,2,3.1,3.1c0.8,1.1,1.5,2.3,1.9,3.5c1,2.4,1.5,4.9,1.7,7.2
				c0.2,2.3,0.1,4.5-0.2,6.5c-0.2,2-0.6,3.8-1,5.6c-0.5,1.7-1.3,3.4-2.7,4.3c-0.7,0.5-1.5,0.7-2.2,0.7c-0.7,0-1.3-0.2-1.8-0.4
				c-1-0.5-1.6-1.3-1.6-1.9C794.8,126.8,795,126.5,795.1,126.5z"/>
		</g>
	</g>
</g>
<g>
	<g>
		<g>
			
				<ellipse transform="matrix(0.5479 0.8366 -0.8366 0.5479 789.2624 -983.5074)" class="st8" cx="1304.5" cy="238.4" rx="1.6" ry="1.6"/>
		</g>
	</g>
</g>
<g>
	<g>
		<g>
			<path class="st8" d="M1306.6,240.5c-0.3-0.4,1.5-1.8,2.4-5c0.4-1.5,0.5-3.5-0.1-5.4c-0.3-0.9-0.9-1.7-1.6-2
				c-0.6-0.3-1.2-0.2-2,0.4c-0.5,0.4-1,1-1.4,1.7c-0.4,0.7-0.7,1.4-1,2.2c-0.6,1.5-0.8,2.9-0.7,4.1c0.1,0.6,0.2,1.1,0.5,1.5
				c0.3,0.5,0.6,0.8,0.9,1.1c0.7,0.6,1.5,0.8,2.1,0.7l-0.3,1.3c-0.9-1.3-1.3-2.1-1.1-2.3c0.2-0.2,1,0.3,2.2,1.2l0.9,0.7l-1.2,0.6
				c-1,0.4-2.5,0.4-3.8-0.3c-0.7-0.4-1.3-0.9-1.8-1.6c-0.5-0.7-0.9-1.6-1.1-2.5c-0.4-1.8-0.1-3.8,0.5-5.6c0.3-0.9,0.6-1.8,1.2-2.8
				c0.5-0.9,1.2-1.8,2.1-2.6c0.7-0.6,1.6-1,2.6-1.2c1-0.2,2,0.1,2.9,0.5c1.7,1,2.5,2.5,2.9,3.8c0.8,2.8,0.3,5.3-0.6,7.1
				c-0.9,1.8-2,3-2.9,3.6C1307.3,240.6,1306.7,240.7,1306.6,240.5z"/>
		</g>
	</g>
</g>
<g>
	<g>
		<g>
			<path class="st8" d="M606.2,308c0.4,0.8-4,3.6-8.5,7.9c-4.6,4.2-7.6,8.4-8.4,8c-0.4-0.2-0.1-1.6,0.9-3.6c1-2,2.8-4.5,5.3-6.8
				c2.5-2.3,5.1-3.9,7.1-4.8C604.7,307.8,606,307.6,606.2,308z"/>
		</g>
	</g>
</g>
<g>
	<g>
		<g>
			<path class="st8" d="M651.4,271.7c0.4,0.8-2.3,2.9-5.6,5.2c-3.3,2.3-6.2,4.2-6.8,3.5c-0.6-0.6,1.4-3.7,5-6.2
				C647.5,271.7,651.1,270.9,651.4,271.7z"/>
		</g>
	</g>
</g>
<g>
	<g>
		<g>
			<path class="st8" d="M710.8,238.1c0.3,0.9-5,3.7-11.6,7c-6.6,3.3-12.1,5.8-12.5,5c-0.5-0.8,4.3-4.6,11.1-7.9
				C704.5,238.8,710.5,237.3,710.8,238.1z"/>
		</g>
	</g>
</g>
<g>
	<g>
		<g>
			<path class="st8" d="M773.6,222.7c0,0.9-6.3,1.9-14,3.4c-7.7,1.5-14,2.9-14.3,2c-0.3-0.8,5.7-3.7,13.7-5.2
				C766.9,221.3,773.6,221.8,773.6,222.7z"/>
		</g>
	</g>
</g>
<g>
	<g>
		<g>
			<path class="st8" d="M840.1,218.4c-0.1,0.9-7.4,0.6-16.4,0.6c-8.9,0-16.2,0.4-16.4-0.5c-0.1-0.9,7.1-2.7,16.4-2.8
				C832.9,215.7,840.2,217.6,840.1,218.4z"/>
		</g>
	</g>
</g>
<g>
	<g>
		<g>
			<path class="st8" d="M917.1,231.7c-0.2,0.9-8.3-0.5-18.3-2.2c-9.9-1.7-18.1-3.1-18-4c0.1-0.9,8.4-0.9,18.5,0.8
				C909.5,228,917.3,230.9,917.1,231.7z"/>
		</g>
	</g>
</g>
<g>
	<g>
		<g>
			<path class="st8" d="M981,248.3c-0.3,0.9-8-1.4-17.5-3.7c-9.5-2.4-17.3-4-17.2-4.9c0.1-0.9,8.2-0.7,17.9,1.7
				C974,243.8,981.3,247.4,981,248.3z"/>
		</g>
	</g>
</g>
<g>
	<g>
		<g>
			<path class="st8" d="M1044.7,283c-0.7,0.7-7.2-4.8-16.2-9.9c-9-5.2-17-8.1-16.7-9c0.1-0.4,2.3-0.2,5.7,0.7c3.4,1,8,2.8,12.6,5.5
				c4.7,2.7,8.5,5.7,11.1,8.2C1043.8,280.9,1045,282.7,1044.7,283z"/>
		</g>
	</g>
</g>
<g>
	<g>
		<g>
			<path class="st8" d="M1082.2,317.4c-0.7,0.6-5.3-4-11.7-8.6c-6.3-4.7-12.1-7.6-11.8-8.5c0.2-0.4,1.9-0.2,4.4,0.8
				c2.5,0.9,5.9,2.6,9.3,5.1c3.4,2.5,6,5.1,7.7,7.3C1081.8,315.5,1082.5,317.1,1082.2,317.4z"/>
		</g>
	</g>
</g>
<g>
	<g>
		<g>
			<path class="st8" d="M1106.9,358.3c-0.8,0.4-4.2-4.3-8.3-10c-4.2-5.7-7.6-10.4-7-11c0.6-0.6,5.3,3.2,9.6,9.1
				C1105.5,352.3,1107.7,357.9,1106.9,358.3z"/>
		</g>
	</g>
</g>
<g>
	<g>
		<g>
			<path class="st8" d="M893.1,307c0.9,0.3-0.9,6.6-2.7,14.4c-1.9,7.7-3.3,14.1-4.2,14c-0.9-0.1-0.9-6.8,1.1-14.8
				C889.1,312.6,892.3,306.7,893.1,307z"/>
		</g>
	</g>
</g>
<g>
	<g>
		<g>
			<path class="st8" d="M933.1,228.2c0.7,0.6-2.1,4.5-5.2,9.2c-3.2,4.7-5.6,8.7-6.5,8.4c-0.8-0.3,0.4-5.2,3.8-10.2
				C928.5,230.6,932.5,227.6,933.1,228.2z"/>
		</g>
	</g>
</g>
<g>
	<g>
		<g>
			<path class="st8" d="M988.9,183.1c0.4,0.8-4.4,3.6-10.2,6.9c-5.8,3.3-10.6,6-11.2,5.2c-0.5-0.7,3.5-4.7,9.6-8.1
				C983.1,183.8,988.6,182.3,988.9,183.1z"/>
		</g>
	</g>
</g>
<g>
	<g>
		<g>
			<path class="st8" d="M1075.7,155.8c0.1,0.9-8.4,2.8-18.9,5.2c-10.5,2.3-19,4.3-19.2,3.4c-0.3-0.8,7.9-4.2,18.5-6.6
				C1066.7,155.3,1075.6,154.9,1075.7,155.8z"/>
		</g>
	</g>
</g>
<g>
	<g>
		<g>
			<path class="st8" d="M1150.9,164.6c-0.3,0.9-7.6-0.8-16.8-1.6c-9.1-0.9-16.7-0.8-16.8-1.7c0-0.4,1.8-1.1,4.9-1.5
				c3.1-0.4,7.4-0.6,12.2-0.1c4.7,0.5,9,1.5,11.9,2.5C1149.3,163.2,1151,164.2,1150.9,164.6z"/>
		</g>
	</g>
</g>
<g>
	<g>
		<g>
			<path class="st8" d="M1208.5,186.5c-0.6,0.7-6-2.7-13-6.2c-7-3.5-13-5.9-12.7-6.8c0.2-0.8,6.9,0.2,14.2,3.9
				C1204.3,181.1,1209.1,185.9,1208.5,186.5z"/>
		</g>
	</g>
</g>
<g>
	<g>
		<g>
			<path class="st8" d="M1259.2,230.8c-0.9,0.4-3.9-5.5-9.8-10.7c-5.8-5.3-12-7.7-11.7-8.6c0.1-0.4,1.9-0.4,4.5,0.5
				c1.3,0.4,2.8,1.1,4.5,2c1.6,0.9,3.3,2.1,4.9,3.5c1.6,1.4,2.9,3,4.1,4.5c1.1,1.5,1.9,2.9,2.5,4.2
				C1259.4,228.8,1259.6,230.6,1259.2,230.8z"/>
		</g>
	</g>
</g>
<g>
	<g>
		<g>
			<path class="st8" d="M1300.4,285.9c-0.8,0.4-4.6-5.6-10.1-12.4c-5.4-6.8-10.5-11.8-9.9-12.6c0.3-0.3,1.9,0.5,4.3,2.3
				c2.3,1.8,5.3,4.7,8.2,8.2c2.8,3.5,5,7.1,6.2,9.8C1300.4,283.8,1300.8,285.7,1300.4,285.9z"/>
		</g>
	</g>
</g>
<g>
	<g>
		<g>
			<path class="st8" d="M825.1,168.9c0.7,0.6-2,4.9-5.2,10.1c-3.2,5.2-5.8,9.5-6.6,9.2c-0.8-0.3,0.5-5.4,3.9-10.9
				C820.5,171.9,824.4,168.4,825.1,168.9z"/>
		</g>
	</g>
</g>
<g>
	<g>
		<g>
			<path class="st8" d="M876.3,118.3c0.5,0.8-6.1,5.5-13.4,12.3c-7.3,6.7-12.4,13-13.2,12.5c-0.4-0.3,0.5-2.2,2.4-5
				c1.9-2.8,4.9-6.4,8.6-9.9c3.8-3.5,7.6-6.2,10.5-7.9C874.1,118.6,876.1,117.9,876.3,118.3z"/>
		</g>
	</g>
</g>
<g>
	<g>
		<g>
			<path class="st8" d="M925.1,92.7c0.3,0.9-5.6,4-12.9,7.8c-7.3,3.8-13.3,6.8-13.8,6c-0.5-0.7,4.9-5.1,12.3-8.9
				C918.2,93.8,924.8,91.9,925.1,92.7z"/>
		</g>
	</g>
</g>
<g>
	<g>
		<g>
			<path class="st8" d="M983.5,80.2c0,0.9-7.4,1.4-16.3,2.5c-8.9,1.1-16.1,2.4-16.4,1.5c-0.3-0.8,6.8-3.6,16-4.8
				C976.1,78.3,983.6,79.3,983.5,80.2z"/>
		</g>
	</g>
</g>
<g>
	<g>
		<g>
			<path class="st8" d="M1035.8,94.5c-0.6,0.7-6-2.8-13.2-5.9c-7.2-3.2-13.4-4.8-13.3-5.7c0.1-0.4,1.8-0.6,4.5-0.2
				c2.7,0.4,6.3,1.3,10.1,2.9c3.8,1.7,7,3.7,9,5.5C1035,92.8,1036,94.1,1035.8,94.5z"/>
		</g>
	</g>
</g>
<g>
	<g>
		<g>
			<path class="st8" d="M1099.3,123c-0.8,0.6-6.2-6.3-14.7-12.9c-8.3-6.7-16.3-10.4-16-11.3c0.2-0.4,2.4,0,5.8,1.4
				c3.4,1.4,7.8,3.8,12.2,7.3c4.4,3.5,7.8,7.2,9.9,10.2C1098.7,120.7,1099.6,122.7,1099.3,123z"/>
		</g>
	</g>
</g>
<g>
	<g>
		<g>
			<path class="st8" d="M1161.1,233.6c-0.5,0.1-1.2-2.5-2.1-6.6c-0.9-4.1-2-9.8-3.8-15.8c-0.9-3-1.9-5.8-2.9-8.3
				c-0.6-1.2-1-2.4-1.6-3.5c-0.3-0.5-0.5-1.1-0.8-1.6c-0.3-0.5-0.5-1-0.8-1.4c-2-3.6-3.6-5.7-3.2-6c0.3-0.3,2.5,1.3,5.1,4.7
				c0.3,0.4,0.7,0.9,1,1.4c0.3,0.5,0.6,1,1,1.6c0.7,1.1,1.3,2.3,2,3.6c1.2,2.6,2.4,5.5,3.3,8.7c1.8,6.3,2.6,12.1,2.9,16.4
				C1161.6,230.9,1161.5,233.6,1161.1,233.6z"/>
		</g>
	</g>
</g>
<g>
	<g>
		<g>
			<path class="st8" d="M1171.3,289.3c-0.9-0.1-1-7.2-2.1-15.9c-1-8.7-2.6-15.6-1.7-15.9c0.8-0.3,3.9,6.5,4.9,15.5
				C1173.5,282.1,1172.2,289.4,1171.3,289.3z"/>
		</g>
	</g>
</g>
<g>
	<g>
		<g>
			<path class="st8" d="M1161.3,356.5c-0.9-0.4,0.7-5.3,1.2-11.5c0.5-6.2-0.3-11.3,0.6-11.5c0.4-0.1,1.2,1.1,1.8,3.2
				c0.6,2.1,1.1,5.2,0.8,8.6c-0.3,3.4-1.2,6.4-2.1,8.4C1162.6,355.6,1161.7,356.6,1161.3,356.5z"/>
		</g>
	</g>
</g>
</svg>
