<?xml version="1.0" encoding="utf-8"?>
<!-- Generator: Adobe Illustrator 19.0.0, SVG Export Plug-In . SVG Version: 6.00 Build 0)  -->
<svg version="1.1" id="Layer_5" xmlns="http://www.w3.org/2000/svg" xmlns:xlink="http://www.w3.org/1999/xlink" x="0px" y="0px"
	 viewBox="0 0 1600 1200" style="enable-background:new 0 0 1600 1200;" xml:space="preserve">
<style type="text/css">
	.st0{fill:#FFFFFF;}
	.st1{fill:#FF4F03;}
	.st2{stroke:#000000;stroke-miterlimit:10;}
	.st3{fill:#B58669;}
	.st4{fill:none;stroke:#000000;stroke-miterlimit:10;}
</style>
<path class="st0" d="M719.3,54c-4.6,1.5-12.3,4.7-18.7,12.1c-3.4,3.9-8.6,10-7.8,17.9c0.1,1,0.8,7.9,5.8,11.3
	c3.9,2.6,7.1,0.9,8.6,3.1c2,3.1-3.7,7.3-5.8,16.4c-0.5,2-2.7,11.2,2.3,19.1c1.4,2.3,4.2,6.6,9,7.8c1.8,0.5,2.9,0.2,3.9,1.2
	c2.3,2.3-0.1,8-1.2,11.3c-1.7,5.5-0.6,11.7,1.6,24.2c0.8,4.3,2,9.2,17.9,45.2c3.4,7.7,3.8,8.5,4.7,9.7c10.8,15.7,34.6,21.8,39.4,16
	c4-5-7.1-17-15.2-32.7c-25.8-50-23.5-115.5-7.8-121.2c14.5-5.3,57.1,34,65.1,69.4c1.2,5.4,4.3,22.7,17.9,31.6
	c3.5,2.3,8.2,5.3,12.1,3.9c13.7-5,7.3-61.1-5.1-103.3c-4.1-14-19.4-66.1-40.9-66.7c-4.7-0.1-5.1,2.3-19.9,6.6
	c-13.2,3.9-19.6,3.9-31.2,6.2C745.7,44.8,733.7,47.9,719.3,54z"/>
<path class="st0" d="M734.9,243.5c0-1.9,0-2.3,0-2.3c0.1,0-2.3,13.4,4.3,19.5c1.9,1.7,5,3.4,6.6,2.3c2.1-1.4,0.3-6.6-1.6-19.5
	c-0.6-4-1-7.3-1.2-9.4"/>
<path class="st0" d="M787.5,250.9c6.2-2.9,9.7-2,11.3-1.2c3.4,1.6,4.8,5.3,9,27.7c2.2,11.8,2.4,14.1,1.6,14.4
	c-1.2,0.5-4.3-2.4-13.3-17.9"/>
<path class="st1" d="M139.4,467.1c-6.8,16.5-9.2,30.9-10.2,40.7c-3.9,40.4,11.1,71.1,16.3,81.5c4.9,9.8,8.4,16.7,15.3,24.4
	c30.8,34.6,82.2,31.9,94.4,31.2c5.8-0.3,46.9-3.1,82.8-32.2c3.9-3.2,7-6.1,9.2-8.1c12.7,5.4,32.3,13.8,56,24.4
	c118.4,53,177.8,88.5,245.4,121.2c84.4,40.8,59.7,18.3,215.9,83.5c135.4,56.5,222.6,102,369.7,132.4c6.5,1.3,11.8,2.4,15.3,3.1
	c45.5-28.9,91-57.7,136.5-86.6c-1.7-16.6-3.4-33.3-5.1-49.9c-139.7-47.6-278.9-96.5-417.6-146.7
	c-175.2-63.4-349.7-128.9-523.5-196.6c5.3-5.4,12-13.9,14.3-25.5c7-36.2-34.1-66.9-38.7-70.3c-17.9-12.9-35-16.3-57-20.4
	c-19.4-3.6-50.1-6.9-88.6-1c-4.1,2.5-8.9,6.4-10.2,12.2c-1.3,5.9,2.2,8.9,7.1,21.4c3,7.6,6.8,17,7.1,28.5c0.4,11.8-3.1,19.4,1,22.4
	c2.4,1.7,4.6-0.1,10.2,2c1.9,0.7,7,2.6,8.1,6.1c1.3,4.2-3.7,9.6-9.2,14.3c-13.6,11.5-28.9,24.4-53,26.5c-29.8,2.5-54-13.2-77.4-28.5
	C147.5,473.2,142.7,469.6,139.4,467.1z"/>
<path class="st1" d="M801.8,32c3.6,2.6,8.5,6.7,13.5,12.5c13.4,15.6,17.4,32.4,19.8,42.9c4.5,19.9,8.4,37.2,4.3,52.5
	c-0.5,1.9-1.8,6.4,0.3,8.6c3.2,3.1,13,0.2,17.9-5.7c4.5-5.5,3.7-12.7,2.4-22c-3.6-26.4-5.4-39.7-10.6-55.5
	c-6.3-19.3-9.8-29-17.9-33.4C820.5,25.8,807.4,29.8,801.8,32z"/>
<path class="st1" d="M869.1,146c2.7,0.4,13.6,2.4,16.3,9.8c1.5,4.1-0.5,7.3-5.7,17.9c-11.5,23.4-12.6,29.7-18.8,31
	c-2.2,0.4-6,0.5-11.4-3.3c0.8-12.5,1.6-25,2.4-37.5c0.8-6.3,1.6-12.5,2.4-18.8"/>
<path class="st1" d="M575.6,982.5c0.8,0.3,2,0.9,3.1,1.8c11.7,10.6-7.9,49.8-16.6,67.2c-12.8,25.5-13.5,16.4-24.6,38.2
	c-2.5,4.8-6.7,13.6-14.8,15.4c-0.8,0.2-5.4,1.2-9.2-1.2c-5.5-3.6-5.4-11.9-4.9-26.5c0.4-12.2,0.9-25.2,6.8-27.1
	c1.4-0.5,4.3-0.7,6.8,0.6c2.7,1.4,2.9,3.7,4.9,4.3c2.9,0.8,6.2-2.5,7.4-3.7c13.6-14,18.5-26.5,18.5-26.5
	C556.9,1014.6,563.6,1000.3,575.6,982.5z"/>
<path class="st1" d="M770.2,1099.6c-3.3,5.9-5.7,11-7.4,14.8c-4.1,9.2-4.2,11.6-3.1,12.9c1.7,2.1,6.2,1,8,0.6
	c14.7-3.6,28.8-20.2,40-32.7c22.6-25.1,28.4-27.5,29-37.6c0.5-8.9-3.3-19.2-5.5-25.3c-1.9-5-5.4-17-8-16.6
	c-2.1,0.3-1.2,8.4-3.1,17.9c-2.8,14.2-10.2,23.3-22.2,38.2C791.9,1079.4,782.8,1089.4,770.2,1099.6z"/>
<path d="M695.6,691.7c0-3,0.4-7.1,2.6-11.1c3.2-5.8,8.6-8.5,10.2-9.4c13.8-7.3,21.9-23.4,64.6-58.7c7.9-6.6,16.2-13.1,28.1-19.6
	c23.5-12.8,31.8-9.5,34-8.5c5,2.3,3.3,5.5,11.1,13.6c5.5,5.8,7.4,5.5,21.2,15.5c13,9.4,12.6,10.6,17.9,12.6
	c10.4,3.9,20.2,2.4,24.7-0.9c3.3-2.4,3.4-4.6,6.8-11.1c8.1-15.3,19.9-24.5,25.5-28.9c3.4-2.7,8.3-6.3,14.8-9.7
	c8.9,9.5,13.7,18.7,16.4,24.8c7.7,17.8,7.1,33.8,6.7,46c-0.5,13.5-3,23-3.6,25.4c-1.4,5.2-3.9,14.1-10,24.1
	c-4.1,6.7-8.3,11.4-12,15.3c-16.2,16.9-36.8,31.2-65.9,49c-24.8,15.2-35.5,22-42.4,17.6c-4.1-2.6-3.4-7-6.9-14.8
	c-1.4-3.1-6.4-12-30.6-28.1c-7.5-5-24.4-15.5-48.5-23.8c-12.4-4.3-16.2-4.4-45.9-13.6C706.4,695.2,699.9,693.1,695.6,691.7z"/>
<path d="M837.9,126.3c-0.6-5.8-1.5-14.4-3.9-24.8c-3.9-17.2-6.8-29.4-16.3-41.8c-9.3-11.9-19.9-17.6-26.1-20.9
	c-2.2-1.2-18.1-9.3-29.4-6.5c-2.5,0.6-6.9,1.7-9.4,5.3c-1.3,1.9-1,2.9-2.4,4.5c-2.5,2.7-6.1,2.5-9.8,3.1c-3.5,0.6-6.7,2.2-13,5.4
	c-7.1,3.6-17.5,11.6-22.2,24.2c-3,8-4.6,20.2,0.2,23.2c3.9,2.5,9.9-2.4,11.6-0.4c2.1,2.6-8.2,10.6-9.1,21.6
	c-0.6,7.3,3.3,13.7,7.2,18.3c1.4-3.7,3.3-9.3,5.2-16.3c3.1-11.4,2.2-12.4,4.6-15.8c4.1-5.6,9.7-7.2,11-13.8c0.4-1.9,0.1-2.9,0.8-3.2
	c3-1.6,15.2,16.7,19.6,22.9c11.9,16.9,29.1,35.3,44.6,47.4c0.2,2.4,0.5,4.8,0.9,7.2c2,11.5,9.7,37.6,26.5,31
	c7.2-2.9,4.1-14.7-3.3-11.8c-4.9,1.9-8.6-10-10.3-17.1c7.4,4,13.7,5.5,17.9,3.4c1.8-0.9,3.8-2.8,5.1-7.1c0.8-1.4,1.1-3,1-4.4
	c0.2-1.6,0.4-3.4,0.5-5.5C839.3,147.1,839.1,137.5,837.9,126.3z"/>
<path d="M835.9,34.2c15.4,20,19.7,37,20.9,48.4c3,27.1-8.1,52.3,2.6,59.5c4.5,3,8.8,0.2,16.3,4.6c1.8,1.1,9.2,5.7,12.4,15
	c3.1,9,0.3,17-1.3,21.6c-3.1,8.6-6.1,8.5-16.3,22.2c-12.6,16.9-13.8,24.9-23.5,28.1c-4.2,1.4-6.7,0.8-8.5,3.3
	c-5.3,7.1,6.7,23.5,7.2,24.2c4.6,6.2,7.3,9.8,11.8,10.5c10.3,1.5,18.1-14.6,25.5-11.8c3.1,1.2,2.3,4.2,5.9,5.9
	c6.2,3,15.8-2.4,21.6-7.8c9.3-8.8,7.5-16.5,14.4-19c6-2.2,9.1,2.9,18.3,3.9c11.4,1.2,23-4.8,30.1-12.4c11.3-12.1,12.9-30.2,7.2-42.5
	c-3.8-8.1-8.6-9-18.3-18.7c-9.8-9.9-14.6-18.7-23.5-35.5c-20.6-38.7-13.5-42.9-28.1-64c-8-11.6-22.8-32-47.7-36.6
	C851.7,30.8,842.2,32.5,835.9,34.2z"/>
<path d="M743.8,236.1c-3.2,7.8-3,14.1-2.6,17.6c0.5,4,0.9,7.6,3.9,9.8c3.5,2.6,9,0.9,9.8,0.7c3.6-1,4.2-2.7,6.3-2.4
	c3.1,0.4,3.1,4.1,6.8,6.3c3.7,2.3,8.1,1.4,11.8,0.7c4.3-0.9,9.1-1.9,11.1-5.9c2.1-4.2,0.1-10-3.3-13.1c-4.5-4-10.2-2.1-17.6-2.6
	C763.3,246.8,754.3,244.4,743.8,236.1z"/>
<g>
	<g>
		<g>
			
				<ellipse transform="matrix(-0.7071 -0.7071 0.7071 -0.7071 1213.9604 718.5242)" class="st2" cx="755.8" cy="107.8" rx="1.9" ry="1.6"/>
		</g>
	</g>
</g>
<g>
	<g>
		<g>
			<path class="st2" d="M760.1,114.9c-0.1,0.2-1.3-0.3-3.1-1.6c-1.8-1.3-4.2-3.5-6.6-6.8l2-1.2c2,3.1,4.9,6.4,8.7,9.4l-1.8,2.4
				c-4-2.8-7.8-6.8-10.4-11.8l2.8-1.7l0.6,0.9c2.9,4,6.3,7.3,9.8,9.9l-1.9,2.4c-2.4-2.3-4.6-4.7-6.5-6.9c-0.9-1.1-1.8-2.2-2.6-3.3
				c-0.8-1.2-1.5-2.5-1.5-4l-0.1-4l2,3.3c1.2,2,2.2,3.7,3,5.1l-1.3,0.8c-1.3-2.6-2.3-4-2.1-4.2c0.2-0.2,1.6,0.9,3.3,3.5l-1.3,0.8
				c-1-1.3-2.2-2.9-3.6-4.7l2-0.7c0.1,0.9,0.6,1.8,1.3,2.7c0.7,0.9,1.7,2,2.6,3c1.9,2.1,4.1,4.3,6.5,6.4l-1.9,2.4
				c-3.8-2.7-7.5-6.2-10.7-10.5l-0.7-1l2.8-1.7c2.3,4.5,5.7,8.2,9.3,10.9l-1.8,2.4c-4-3.3-6.9-7.1-8.8-10.5l2-1.2
				c2,3.2,4,5.5,5.5,7.1C759.4,113.9,760.3,114.7,760.1,114.9z"/>
		</g>
	</g>
</g>
<g>
	<g>
		<g>
			<path class="st2" d="M752.7,101.7c0.2-0.1,1,0.6,2,2.2c0.9,1.6,2,4.1,2.5,7.2l0.7,4.8l-3.3-3.8c-1.6-1.8-3.1-4-4.5-6.6l2.9-1.5
				c0.4,0.7,0.8,1.4,1.2,2.2c0.9,1.6,1.8,3.1,2.8,4.4l8.4,12.2l-10.7-10.1c-1.9-1.8-2.9-3.9-3.6-5.7c-0.7-1.8-1-3.5-1.3-4.8l1.9-0.3
				c-0.2,2.3,0.2,3.7-0.1,3.9c-0.3,0.1-1.4-1.1-1.8-3.8l-1.1-7l3,6.6c0.5,1.2,1.1,2.7,1.9,4.3c0.8,1.6,1.8,3.2,3.3,4.4l-2.3,2.1
				c-1.1-1.4-2.1-3-3.1-4.6c-0.4-0.8-0.9-1.6-1.2-2.3l2.9-1.5c1.2,2.4,2.5,4.5,3.8,6.4l-2.5,1c-0.2-2.8-0.8-5.2-1.2-6.9
				C752.7,102.8,752.5,101.8,752.7,101.7z"/>
		</g>
	</g>
</g>
<path class="st3" d="M778.3,722.9c-10.5,11.4-17.7,21.9-22.2,29.4c-8.5,14.1-19.3,31.8-20.6,55.5c-0.3,5.9,0.8,13.7,3.2,29.4
	c3.3,22.2,7.2,40.7,11.1,57.1c6.8,29,10.2,43.5,15.9,59.5c5.5,15.5,14.2,36.8,28.6,61.1c-5.9,10.8-10.6,20-14.1,26.9
	c-21.6,43-13.4,35.1-18.8,42.8c-1.2,1.6-4.1,5.7-2.8,8.8c1.5,3.5,7.5,3.8,8.7,4c12.1,1.3,22.2-12.1,33.3-27
	c10.8-14.5,21.3-28.8,22.2-48.4c0.3-5.4-0.2-9.6-0.8-15.1c-1.9-17.1-6.4-27.4-9.5-37.3c-3.3-10.7-4.3-22.9-6.2-47.3
	c-1.9-24-2.8-36-2.5-51.9c0.4-17.6,2-27.4-4.8-36.5c-2.4-3.2-6.2-6.9-6.3-12.7c0-1.2,0.1-6.2,7.1-14.3c6.1-6.9,11.7-9.7,20.6-15.1
	c5.2-3.1,12.6-7.9,21.4-14.3c0.1-2,0.1-5-0.8-8.3c-1.4-5.3-4.1-8.9-6.4-11.5c-19.8-23-45.2-31.7-45.2-31.7
	C784.7,724.5,780.8,723.5,778.3,722.9z"/>
<path class="st3" d="M697.4,694.4c-14.5,13.3-24.5,25.5-30.9,34.1c-16.7,22.4-29.2,47.4-36.5,61.9c-4.4,8.7-5.9,12.5-10.3,19.8
	c-10.4,17.6-20,27.5-26.2,34.9c-28.1,33.5-39.2,76-40.5,80.9c-2.2,8.6-5,23-14.3,40.5c-4.1,7.8-5.2,8.1-7.9,14.3
	c-6.2,14.2-6.3,26.8-6.3,42.1c0,7.9,0.4,18.8,2.4,31.7c6.5-4.4,10.8-8.9,13.5-12.1c3.4-4,5.6-7.7,19.8-34.7c2.1-4.1,2-3.8,2.2-4.2
	c7.3-13.4,11.6-16.7,14.9-26.1c1-2.9,1-3.6,1.9-7c3.8-13.8,11.5-23.1,15.9-30.9c12.7-23.1,28.6-44.2,38.3-57.4
	c6.3-8.6,9.5-12.5,13.3-20c5.2-10.3,5.8-15.7,12-26.7c2.1-3.8,2.4-3.8,10.1-15c15.7-22.8,23.8-34,30.2-40.5c2.8-2.9,5.1-4.8,7.2-6.3
	c5.1-3.6,9.3-5.7,11.4-6.7c6.5-3.1,15.3-7.3,21.8-12.9c3.6-3.1,7.8-9.9,15.9-23.2c8.1-13.3,8.9-15.9,8.8-17.1c0,0-0.1-0.4-0.1-0.4
	c0,0,0.3,1,0.1,1.3c-0.8,1.2-11.6-4.6-11.6-4.6c-13.8-7.3-26.9-10.4-36.1-12.6C711.9,696.5,705.4,695.2,697.4,694.4z"/>
<path class="st3" d="M590.3,626.7c3.8-3.9,4.8-4.9,4.8-4.8c0.1,0.1-3.9,2.9-3.6,6.1c0.3,3.1,4.6,5.1,5.4,5.4
	c4.9,2.2,8.2,0.4,13.9,0.6c6.3,0.2,9.3,2.6,13.9,4.2c13.4,4.7,31-0.5,41.8-9.7c3.4-3,12.3-10.6,11.5-20.6c-0.6-7.5-6.5-15-10.9-14.5
	c-3.4,0.4-3.9,5.5-7.9,6.1c-3.8,0.6-5.6-3.7-10.9-6.7c-1.6-0.9-3.7-1.8-21.8-1.8c-15.1,0-18.4,0.7-20.6,1.2
	c-3.6,0.9-8.4,2.1-13.3,5.4c-2.5,1.7-3.1,2.6-6.7,4.8c-4.9,3.1-7,3.4-7.3,4.8c-0.3,1.6,1.5,4.1,10.3,8.5"/>
<path class="st3" d="M847.6,204.1c0.4,8.5,2.4,14.7,4.2,18.8c4.2,9.6,9,11.8,10.9,20.6c1.2,5.3,0.2,7.8-0.6,16.3
	c-0.6,6.8-1.1,16.4,0,28.5c2.2-0.4,4.9-0.7,7.9-0.6c4.7,0.1,8.6,0.9,11.5,1.8c-0.3-7.7-0.8-21.1-0.6-35.7c0-2.8,0.1-7,2.4-11.5
	c2.7-5.4,6.5-6.9,11.5-10.9c8.2-6.5,12.3-13.8,18.2-24.2c4.6-8.2,8.2-17,7.3-17.6c-0.7-0.4-3.4,3.7-10.3,10.9
	c-1.6,1.6-8.9,9.2-9.7,8.5c-0.8-0.6,5-7.6,10.3-20c3.2-7.4,4.3-12.4,3-17.6c-0.6-2.4-2.2-6.6-4.2-6.7c-2.3,0-2.5,5.1-7.3,12.7
	c-1.5,2.4-4.8,6-11.5,13.3c-4.4,4.8-5.5,5.8-6.1,5.4c-1.2-0.6,1.3-6.2,3-14.5c2-9.9,2.3-20.8,0.6-21.2c-1-0.2-2.1,3.5-6.7,12.7
	c-4,8.1-6.3,12.7-10.3,18.2c-5.8,8-7.4,7.4-10.3,13.3c-1,2.1-1.8,4.2-3.6,4.8C854.3,210.5,850.5,207.2,847.6,204.1z"/>
<path class="st3" d="M734.4,96.3c-9.9,22.8-11.5,37.5-11.5,37.5c-1.6,14.4-3.9,34.7,4.2,59.3c4.1,12.4,10,30.3,26.6,43
	c11.9,9,24.5,11.8,26,12.1c6.8,1.4,12.8,1.5,17,1.2c2.6,9.9,5.1,18.6,7.3,26c5.5,18.7,8,25,13.9,27.2c3.4,1.3,6.4,0.7,9.7,0
	c13.4-2.7,19.8-15.3,20.6-17c1.7-3.5,3.8-7.9,3-13.3c-1.1-7.6-6.6-8-10.9-17.6c-1.2-2.7-4.9-11.1-1.8-20c1.8-5.1,4.5-4.5,6.1-9.1
	c2-5.9-1.2-9.7-4.2-20.6c-0.2-0.9-1.4-7.9-3.6-21.8c-1.5-9.2-2.3-14.2-4.2-21.2c-3.7-13.1-6.2-14.2-7.3-14.5
	c-4.9-1.4-7.8,6.4-14.5,6.1c-8.2-0.4-14.3-12.7-15.1-14.5c-3.6-7.3-2.6-11.9-7.9-17c-1-1-3.2-3.1-6.7-4.2c-7.8-2.7-11.3,2.9-17,1.2
	c-6.6-2-11-12.4-17.6-27.9c-0.9-2.2-2.2-5.3-4.2-5.4C739.2,85.7,736.3,91.9,734.4,96.3z"/>
<g>
	<g>
		<g>
			<path class="st2" d="M758.1,112.6c-0.1,0.2-1.2-0.1-2.6-1.5c-1.4-1.3-2.9-3.7-4.3-6.6l2.4-1c1.1,2.2,2.1,4.8,2.8,7.7l1.8,7.6
				l-4.6-6.4c-1.6-2.3-2.8-5.1-3.1-8.2c0-0.4-0.1-0.8-0.1-1.2l-0.2-9.7l3.4,9.1c0.9,2.4,1.6,4.8,2.1,7.1l-2.9,1
				c-1.2-2.8-1.1-5.6-1-7.8c0.2-2.3,0.4-4.2,0.6-5.8c0.5-3.2,0.9-5.1,1.3-5.1s0.6,2,0.7,5.2c0.1,1.6,0,3.6,0.1,5.7
				c0.1,2.1,0.2,4.5,1.2,6.5l-2.9,1c-0.6-2.1-1.3-4.4-2.1-6.6l3.2-0.6c0,0.3,0,0.6,0.1,1c0.2,2.5,1.1,4.8,2.4,6.7l-2.8,1.2
				c-0.5-2.7-1.3-5.2-2.1-7.3l2.4-1c1.1,3,2.1,5.3,3.1,6.7C757.5,111.6,758.2,112.4,758.1,112.6z"/>
		</g>
	</g>
</g>
<g>
	<g>
		<g>
			<path class="st2" d="M779.9,116c0.1,0.2-0.2,0.7-0.9,1.2c-0.7,0.5-1.9,1.1-3.5,1.3l-0.3-2.6c1-0.2,2.2-0.5,3.4-0.7l0.5,3.1
				c-1.2,0.3-2.4,0.5-3.8,0.8c-0.3,0.1-0.6,0.1-0.9,0.2l-0.1-3.2c1.1,0.1,2.2,0,3.1-0.2l12.6-3.5l-11.3,6.2
				c-1.2,0.7-2.5,0.9-3.6,0.8c-1.1-0.1-2-0.4-2.6-0.9c-0.2-0.1-0.3-0.2-0.4-0.3c-0.1-0.1-0.4-0.3-0.4-0.4c-0.2-0.3-0.3-0.6-0.3-0.9
				c0-0.3,0.2-0.6,0.4-0.7c0.1,0,0.2,0,0.2,0c0,0,0.1,0.1,0.1,0.1c0,0,0,0.1,0,0.1c0,0,0,0.1,0,0.1c0,0,0,0,0,0c0,0,0,0,0.1,0
				c0.1,0,0.1,0,0.2,0c0.1,0,0.2,0.1,0.3,0.1c0.1,0,0-0.1,0.2,0c0.2,0,0.3,0.1,0.4,0.1c1,0.2,2.7,0.1,3.9-0.8l1.3,2.7
				c-1.3,0.5-2.8,0.8-4.4,0.7l-11.5-1.1l11.4-2.1c0.3-0.1,0.6-0.1,0.9-0.2c1.3-0.2,2.6-0.4,3.8-0.6l0.5,3.1
				c-1.3,0.1-2.4,0.2-3.5,0.2l-0.3-2.6C777.8,116,779.6,115.5,779.9,116z"/>
		</g>
	</g>
</g>
<g>
	<g>
		<g>
			<path class="st2" d="M793.7,131.3c0.1,0.1,0,0.3-0.2,0.5l-0.1,0.2l-0.4-0.3c-0.9-0.8-2.6-3.6-4.2-7.8l2.7-1c1,2.1,2,4.5,3.1,7.2
				c0.3,0.7,0.5,1.4,0.8,2l-2.9,1.4c-1.4-2.5-2.3-5-2.9-7.2l2.6-0.5c-0.1,4.1,0.8,6.8,0.2,7c-0.2,0.1-0.8-0.4-1.4-1.6
				c-0.6-1.2-1.2-3-1.5-5.3l-1.1-9.4l3.7,8.9c0.8,1.9,1.9,4.2,3.2,6.5l-2.9,1.4c-0.3-0.7-0.5-1.3-0.8-2c-1.1-2.6-2-5.1-2.7-7.3
				l2.7-1C792.7,127.1,793.7,130.2,793.7,131.3l-0.6-0.1C793.5,131.2,793.7,131.2,793.7,131.3z"/>
		</g>
	</g>
</g>
<g>
	<g>
		<g>
			<path class="st2" d="M829.5,152.7c0.4-0.2,1.6,1,2.5,3.6l3.7,10.4l-5.8-9.7c-1-1.6-2.1-3.8-3.3-6.2l2.9-1.2
				c0.4,1.1,0.8,2.3,1.3,3.5c0.4,1.1,0.7,2.2,1.1,3.2l-3,1c-0.9-2.5-1.6-4.8-2.1-6.6l2.2-0.6c0.1,2.7,0,4.5-0.5,4.5
				c-0.4,0.1-1.1-1.5-1.8-4.2l-2.8-10.2l5,9.5c0.9,1.7,1.9,4,3,6.5l-3,1c-0.4-1-0.7-2-1.1-3c-0.4-1.2-0.8-2.3-1.1-3.4l2.9-1.2
				c1,2.5,1.9,4.8,2.5,6.6l-2.1,0.7C829.5,154.4,829.1,152.9,829.5,152.7z"/>
		</g>
	</g>
</g>
<g>
	<g>
		<g>
			<path class="st2" d="M733.9,89.2c-0.4,0.2-0.8,0.3-1.3,0c-0.4-0.3-0.7-0.8-0.7-1.5c0-0.6,0.4-1.2,0.9-1.4
				c0.4-0.2,0.9-0.1,1.2,0.2c0.3,0.3,0.6,0.6,0.8,0.9c0.2,0.2,0.4,0.4,0.3,0.5c0,0.1-0.2,0.2-0.4,0.4
				C734.6,88.6,734.3,89,733.9,89.2z"/>
		</g>
	</g>
</g>
<g>
	<g>
		<g>
			<path class="st2" d="M746.9,79.5c0.7,0.6-1.6,4.2-5.4,7.6c-1.9,1.7-3.8,3.1-5.3,3.9c-0.4,0.2-0.7,0.4-1,0.5
				c-0.2,0.1-0.3,0.1-0.5,0.2c-0.2,0.1-0.4,0.2-0.7,0.2c-0.3,0-0.7-0.1-0.8-0.6c0-0.3,0.1-0.4,0.2-0.6c0.1-0.1,0.3-0.1,0.4-0.1
				c0.1,0.1,0,0.1,0,0.2c0,0-0.1,0.1-0.1,0.1c0,0,0,0,0.1,0.1c0.1,0.1,0.1,0,0,0c0,0,0,0,0,0c0,0,0,0,0,0l0,0c0,0.1,0.1-0.2,0-0.1
				l0,0l0,0l0,0l0,0c0,0,0,0,0-0.1c0,0,0-0.1,0-0.2l0-0.1l0,0c0,0,0-0.1,0-0.1c0.1-0.1,0.2-0.2,0.3-0.4c0.2-0.3,0.4-0.6,0.7-0.9
				c1.1-1.3,2.7-2.8,4.5-4.5C743,81.4,746.2,78.9,746.9,79.5z"/>
		</g>
	</g>
</g>
<g>
	<g>
		<g>
			<path class="st2" d="M866.5,90.1c-0.4,0.1-1.9-3.2-4.1-8.7c-2.3-5.4-5.4-12.9-9.6-20.7c-2.1-3.9-4.3-7.5-6.4-10.8
				c-1.1-1.6-2.1-3.1-3.1-4.5c-0.5-0.7-1-1.4-1.4-2c-0.5-0.6-0.9-1.2-1.4-1.8c-3.6-4.6-6-7.3-5.7-7.7c0.3-0.3,3.3,1.8,7.4,6.2
				c0.5,0.5,1,1.1,1.6,1.7c0.5,0.6,1.1,1.3,1.6,1.9c1.1,1.3,2.3,2.9,3.4,4.4c2.3,3.2,4.6,6.9,6.8,10.9c4.3,8,7.2,15.8,8.9,21.4
				C866.3,86.3,866.9,89.9,866.5,90.1z"/>
		</g>
	</g>
</g>
<g>
	<g>
		<g>
			<path class="st2" d="M854,240.4c-0.4,0.2-1.6-1.2-3.4-3.5c-0.9-1.2-1.9-2.5-3.1-4c-0.6-0.7-1.2-1.5-1.9-2.3l-0.4-0.5l-0.1-0.1
				l-0.3-0.3c0,0-0.1-0.1-0.1-0.1c-0.1,0.2-0.2,0.4-0.4,0.6c-0.2,0.4-0.5,0.8-0.7,1.2c-0.2,0.4-0.5,0.9-0.7,1.3c-1,1.6-2,3-2.9,4.1
				c-1.8,2.2-3.2,3.3-3.6,3c-0.4-0.3,0.4-1.8,1.7-4.3c0.6-1.2,1.4-2.7,2.2-4.3c0.2-0.4,0.4-0.8,0.6-1.2c0.2-0.5,0.4-0.9,0.7-1.4
				c0.7-1.6,1.5-3.4,2.3-5.1c0.3,0.3,0.6,0.7,0.9,1.1c0.6,0.8,1.3,1.5,1.9,2.2c0.3,0.4,0.6,0.7,0.9,1.1c0.2,0.3,0.4,0.5,0.6,0.8
				c0.6,0.9,1.2,1.7,1.8,2.6c1.1,1.7,2,3.2,2.6,4.6C853.9,238.3,854.4,240.2,854,240.4z"/>
		</g>
	</g>
</g>
<g>
	<g>
		<g>
			<path class="st2" d="M846.5,242.3c-0.8,0.3-2.5-2.4-2.9-6.2c-0.4-3.8,0.7-6.8,1.5-6.7c0.9,0.1,1.3,3,1.7,6.4
				C847.2,239.1,847.4,242,846.5,242.3z"/>
		</g>
	</g>
</g>
<g>
	<g>
		<g>
			<path class="st2" d="M923.8,235.9c0.4,0.2-0.4,3.5-2.6,8.6c-1.1,2.6-2.5,5.5-4.3,8.8c-1.8,3.2-4.1,6.7-7.4,9.8
				c-3.2,3-7.2,5.1-11.1,5.8c-1.9,0.4-3.9,0.4-5.6,0.1c-1.8-0.3-3.3-0.9-4.6-1.6c-2.6-1.4-4.2-3.3-5-4.8c-0.8-1.5-0.8-2.4-0.6-2.5
				c0.2-0.1,0.7,0.6,1.7,1.7c1,1.1,2.6,2.5,4.9,3.4c2.3,1,5.4,1.4,8.6,0.6c3.2-0.8,6.6-2.6,9.5-5.3c2.9-2.7,5.1-5.9,7-8.9
				c1.9-3,3.5-5.9,4.8-8.3C921.8,238.8,923.4,235.8,923.8,235.9z"/>
		</g>
	</g>
</g>
<g>
	<g>
		<g>
			<path class="st2" d="M854.7,268.7c0.4,0.2,0.7,0.6,0.3,1.6c-0.2,0.5-0.5,1-1,1.5c-0.5,0.4-1.3,0.6-2.1,0.5
				c-0.3-0.1-0.6-0.2-0.8-0.4c-0.4-0.2-0.7-0.6-1-0.9c-0.1-0.2-0.3-0.4-0.4-0.6c-0.1-0.1-0.2-0.3-0.2-0.4c-0.3-0.5-0.4-1-0.4-1.5
				c-0.1-0.9,0.2-1.5,0.7-1.6c0.4-0.1,0.9,0.2,1.4,0.6c0.3,0.2,0.5,0.5,0.8,0.7l0.2,0.2c0,0,0.1,0,0.1,0c0.1,0,0.1,0.1,0.2,0.1
				l0.1,0.1c0.2,0.2,0.5,0.2,0.9,0.1C853.8,268.8,854.3,268.5,854.7,268.7z"/>
		</g>
	</g>
</g>
<path class="st0" d="M839.8,201.8c0.4,5.6,1.7,13.9,6.2,22.6c5.5,10.6,10,11,12.1,19.1c1.3,5.2-0.3,13.1-3.5,28.8
	c-2,10-3.7,15.8-1.2,17.5c1.8,1.3,5-0.2,7.4-1.6c0.9-8.1,1-12.4,0.8-14.8c0-0.4-0.2-1.6-0.1-3.2c0.1-1.8,0.4-3.3,0.7-6.3
	c0,0,0.2-1.5,0.5-5.7c0.1-1.6,0.7-9.4-0.8-16.8c-0.8-3.9-2.8-11.1-9-19.1c-1.6-4.4-3.1-8.8-4.7-13.3c0-5.5-2.6-9.2-5.1-9.4
	C842.9,199.8,841.5,199.8,839.8,201.8z"/>
<path class="st0" d="M591.3,624.7c-3.8,0.1-6.8,1.6-7.3,3.6c-0.6,2.4,2.2,4.9,4.6,6.8c4.5,3.9,9.1,5.4,10.9,5.9
	c8.1,2.6,14.4,3.6,19.1,4.6c17.7,3.4,17.2,4.7,23.2,4.6c8.8-0.3,15.4-3.2,19.1-5c3.6-1.7,14.2-6.8,21.4-18.2
	c2.1-3.3,7.1-11.2,4.1-15c-1.9-2.4-6.1-2.1-8.2-1.8c-1,3-2.9,7.7-6.8,12.3c-7.7,9-17.8,11.4-21.9,12.3c-3.3,0.7-9.6,0.6-22.3,0.5
	c-0.7,0-7.1-0.1-15.5-0.9c-5-0.5-6.3-0.8-6.8-0.9C601.5,632.5,596.5,630.4,591.3,624.7z"/>
<path class="st0" d="M668.3,586.5c0,2.2,0.2,5.7,1.8,9.6c2.3,5.6,6,8.8,8.7,10.9c3.8,3.1,8.9,7.3,13.7,5.9c3.2-0.9,4.8-3.9,5.5-5
	c6.9-12.2,17.2-22.4,23.2-35.1c19.4-40.9,34.7-40.5,41.9-71.1c1.3-5.6,3.2-16,5.9-15.9c2.5,0,4.2,8.9,5.5,14.6
	c6.2,27,11,40,18.2,46.9c2.3,2.2,6.8,5.9,7.7,11.8c0.7,4.6-1.1,8.5-1.4,9.1c-1.5,3.1-3.6,4.8-5.9,6.8c-9.8,8.3,3.8-1.6-11.8,10.9
	c-12.8,10.2-35.5,27.8-45.6,36c-34,27.7-47,49.2-51.1,56.7c0,0-0.4,0.7-0.8,1.6c-1.7,3.1-3,5.7-4,7.4c1.1,0.8,2.5,2.2,3,4.2
	c1.5,5.9-6.8,12.5-11,16.3c-6.1,5.6-11.1,15-20.9,33.7c-14,26.5-9.7,33.8-22.3,46.5c-6.5,6.6-8.4,5.3-17.8,14.1
	c-10,9.4-16,18.5-21.4,27.3c-19.9,32.2-31.9,51.9-41,82.5c-5.2,17.7-7.4,32.2-8.7,40.6c-2.6,17.7-3.8,36.3-2.7,36.5
	c0.9,0.1,2.8-12.7,6.8-31c6.9-31.2,11.7-52.8,24.1-76.5c9.7-18.6,21-32.7,29.2-42.8c6.7-8.4,13.1-13.1,22.3-25.1
	c2.9-3.7,9.3-12.3,17.3-26c18.4-31.5,11.8-33.2,23.2-48.3c16.1-21.1,37.1-28.2,36-43.3c-0.3-3.8-1-6.4,0.5-10.9
	c2.7-8.7,10.3-11.8,19.9-19.5c6.8-5.4,5.2-5.6,17.4-17.9c11.7-11.7,13.9-11,51.5-43.7c4.9-4.3,8.9-7.8,15.5-11.4
	c12.1-6.5,23.8-8.2,31.9-8.7c11,13.2,21.9,21.9,29.6,27.3c12.6,8.8,31,21.8,42.8,15.5c1.8-0.9,1.8-1.5,8.7-10.5
	c11-14.5,16.5-21.7,19.6-24.1c11.2-8.8,19.7-7,23.7-15.9c0.5-1.1,3-7,0.5-10c-2.2-2.7-6.3-1-8.7-4.1c-2.1-2.8-0.4-6.3-2.3-7.3
	c-1.7-0.9-3.6,1.6-5.5,1.4c-5.5-0.7-6.7-23.8-6.8-27.3c-1.3-25.4-3-38.2-3.2-47.8c-0.3-20.4,0.6-18.4,0-22.8
	c-3.3-25.5-26.9-41.9-58.3-63.8c-12.5-8.7-34.6-22.8-65.2-34.2c-27.9-10.4-41.8-15.6-54.7-9.6c-20.5,9.6-26.6,39.8-30.1,57
	c-3,14.5-0.8,16.2-3.6,37.8c-3.2,24.5-8.5,42.7-11.8,53.8c-11.8,39.3-26.9,66.4-31.4,74.3C673,579,670.3,583.4,668.3,586.5z"/>
<path class="st0" d="M766.4,715.7c5.4,2.2,10.8,4.4,16.2,6.6c-6.5,5.7-15.3,14.5-23.8,26.7c-6.9,10.1-21.1,31.2-23,59.4
	c-0.3,4-0.4,10,4.5,36.4c8.5,46.3,16.8,72.4,15.6,72.8c-1.3,0.4-13.2-29.9-20.5-62.9c-2.8-12.5-4.3-23-5.7-31.7
	c-2.2-14.4-3.2-21.7-2.8-27.9c0.4-6.7,2.1-15.1,12.6-35.7C745.5,747.9,754.1,732.7,766.4,715.7z"/>
<g>
	<g>
		<g>
			<path class="st2" d="M800.4,247.9c0,0.1-0.6,0.4-1.8,0.8c-0.6,0.2-1.4,0.5-2.3,0.7c-0.9,0.2-2,0.5-3.2,0.7
				c-4.8,1-12.1,1.4-20.8-0.3c-8.7-1.7-18.7-5.8-27.9-13.1c-9.2-7.3-17.1-18-22.5-30.3c-5.3-12.4-7.6-25.2-8.1-36.8
				c-0.5-11.6,0.7-22.1,2.1-30.7c1.5-8.6,3.3-15.5,4.6-20.1c1.4-4.7,2.3-7.2,2.5-7.1c0.2,0.1-0.3,2.7-1.3,7.5
				c-1,4.8-2.4,11.6-3.6,20.2c-1.1,8.5-2,18.8-1.4,30.2c0.6,11.3,3,23.7,8.1,35.7c5.1,11.9,12.6,22.2,21.4,29.3
				c8.7,7.1,18.2,11.3,26.5,13.2c8.3,1.9,15.3,1.8,20.1,1.3c1.2-0.2,2.2-0.3,3.2-0.4c0.9-0.1,1.7-0.3,2.3-0.4
				C799.6,247.8,800.3,247.8,800.4,247.9z"/>
		</g>
	</g>
</g>
<g>
	<g>
		<g>
			<path class="st2" d="M810.8,295.5c-0.3,0.3-2.6-1.6-5.7-5.2c-1.6-1.8-3.3-4.1-5-6.7c-1.7-2.7-3.5-5.7-5-9
				c-1.6-3.3-2.8-6.6-3.8-9.6c-1-3-1.6-5.8-2.1-8.1c-0.9-4.7-0.9-7.7-0.4-7.7c1-0.2,3.1,11.3,9.3,24
				C804,286,811.5,294.8,810.8,295.5z"/>
		</g>
	</g>
</g>
<g>
	<g>
		<g>
			<path class="st2" d="M844.1,231.7c0.3,0.3-0.4,1.4-1.8,2.9c-1.4,1.4-3.7,3.1-6.4,4.5c-2.7,1.4-5.4,2.2-7.4,2.5
				c-2,0.3-3.3,0.1-3.4-0.3c-0.2-0.9,4.2-2.5,9.3-5.1C839.6,233.6,843.5,231,844.1,231.7z"/>
		</g>
	</g>
</g>
<g>
	<g>
		<g>
			<path class="st2" d="M853.4,272.8c-0.3,0.3-2.4-0.9-5.2-3.7c-0.7-0.7-1.4-1.5-2.1-2.4c-0.8-0.9-1.4-1.9-2.2-3
				c-1.4-2.2-2.7-4.8-3.8-7.6c-1-2.9-1.7-5.7-2-8.3c-0.1-1.3-0.3-2.5-0.3-3.7c-0.1-1.2,0-2.2,0.1-3.2c0.3-3.9,1.2-6.2,1.6-6.2
				c0.5,0.1,0.4,2.5,0.7,6.2c0.1,0.9,0.1,1.9,0.3,3c0.1,1.1,0.3,2.2,0.5,3.4c0.5,2.4,1.2,5,2.1,7.6c1,2.6,2.1,5.1,3.3,7.2
				c0.6,1.1,1.2,2.1,1.8,3c0.6,0.9,1.2,1.8,1.7,2.5C852.2,270.6,853.8,272.4,853.4,272.8z"/>
		</g>
	</g>
</g>
<g>
	<g>
		<g>
			<path class="st2" d="M859.7,244.7c-0.2,0.3-2.9-1.2-6.2-4.7c-0.4-0.4-0.8-0.9-1.3-1.4c-0.4-0.5-0.8-1-1.3-1.6
				c-0.9-1.1-1.7-2.4-2.6-3.7c-1.7-2.7-3.3-5.9-4.7-9.3c-2.7-6.9-3.9-13.4-4.4-18.2c-0.5-4.7-0.3-7.7,0.1-7.8c0.5,0,1.1,2.8,2.2,7.4
				c1.1,4.5,2.6,10.8,5.2,17.4c1.3,3.3,2.7,6.3,4.2,8.9c0.8,1.3,1.5,2.6,2.2,3.7c0.4,0.6,0.7,1.1,1.1,1.6c0.4,0.5,0.7,1,1.1,1.5
				C858,242.3,860.1,244.3,859.7,244.7z"/>
		</g>
	</g>
</g>
<g>
	<g>
		<g>
			<path class="st2" d="M861.1,214.2c-0.8,0.6-4.8-3.8-10.5-8.3c-5.6-4.6-10.8-7.6-10.4-8.4c0.2-0.4,1.8-0.1,4.1,0.8
				c2.3,1,5.4,2.7,8.4,5.1c3,2.4,5.3,5,6.8,7.1C860.9,212.4,861.5,213.9,861.1,214.2z"/>
		</g>
	</g>
</g>
<g>
	<g>
		<g>
			<path class="st2" d="M890.1,152.2c0.4,0.1-0.4,3.7-2.4,9.2c-1,2.8-2.3,6-3.9,9.6c-1.6,3.5-3.6,7.3-5.8,11.2
				c-2.3,3.9-4.6,7.5-6.8,10.7c-2.2,3.2-4.4,6-6.3,8.2c-3.8,4.5-6.5,7-6.8,6.7c-0.7-0.6,8.3-11.9,17.1-27.2
				C884,165.4,889.2,151.9,890.1,152.2z"/>
		</g>
	</g>
</g>
<g>
	<g>
		<g>
			<path class="st2" d="M882.8,198.2c-0.9-0.3,2-9.5,3.6-21.2c1.7-11.6,1.4-21.3,2.3-21.4c0.4,0,1.1,2.4,1.4,6.3
				c0.3,4,0.3,9.5-0.5,15.5c-0.8,6-2.3,11.3-3.7,15C884.5,196.3,883.2,198.4,882.8,198.2z"/>
		</g>
	</g>
</g>
<g>
	<g>
		<g>
			<path class="st2" d="M912.6,157.6c0.8,0.4-3.7,10.2-11.4,21.1c-7.7,10.9-15.5,18.4-16.1,17.8c-0.7-0.6,5.9-9,13.4-19.7
				C906.1,166.2,911.8,157.2,912.6,157.6z"/>
		</g>
	</g>
</g>
<g>
	<g>
		<g>
			<path class="st2" d="M895.5,200.8c-0.8-0.5,4.1-9.5,9-21.1c4.9-11.6,7.9-21.4,8.8-21.2c0.8,0.2-0.8,10.6-5.8,22.4
				C902.5,192.9,896.2,201.3,895.5,200.8z"/>
		</g>
	</g>
</g>
<g>
	<g>
		<g>
			<path class="st2" d="M897.6,209.7c-0.4-0.3,1.2-2.6,3.5-6.4c0.6-1,1.2-2,1.8-3.1c0.7-1.1,1.3-2.4,1.9-3.7
				c1.3-2.6,2.5-5.5,3.7-8.7c1.1-3.2,1.9-6.2,2.6-9.1c0.3-1.4,0.6-2.8,0.8-4.1c0.2-1.3,0.4-2.5,0.5-3.6c0.6-4.4,0.8-7.2,1.2-7.2
				c0.4,0,1.1,2.8,1.1,7.4c0,1.1,0,2.4-0.2,3.8c-0.1,1.4-0.3,2.8-0.5,4.3c-0.5,3-1.3,6.3-2.4,9.6c-1.2,3.3-2.6,6.4-4.1,9
				c-0.8,1.3-1.5,2.6-2.3,3.7c-0.7,1.1-1.5,2.1-2.2,3C900.2,208.2,897.9,210,897.6,209.7z"/>
		</g>
	</g>
</g>
<g>
	<g>
		<g>
			<path class="st2" d="M921.2,183.9c0.7,0.5-2.7,7.2-8.5,14.5c-5.8,7.2-11.7,12-12.3,11.4c-0.6-0.7,4.1-6.4,9.8-13.4
				C915.8,189.2,920.4,183.4,921.2,183.9z"/>
		</g>
	</g>
</g>
<g>
	<g>
		<g>
			<path class="st2" d="M899.6,224.2c-0.4-0.3,1-2.5,3.3-5.8c2.3-3.4,5.6-7.9,8.8-13.1c1.6-2.6,3-5.2,4.1-7.5
				c0.5-1.2,1.1-2.3,1.5-3.4c0.2-0.5,0.4-1.1,0.6-1.6c0.2-0.5,0.4-1,0.5-1.5c1.4-3.8,1.9-6.2,2.4-6.2c0.4,0,0.6,2.7-0.2,6.8
				c-0.1,0.5-0.2,1-0.4,1.6c-0.1,0.6-0.3,1.1-0.5,1.7c-0.3,1.2-0.8,2.4-1.3,3.7c-1.1,2.6-2.4,5.3-4.1,8c-3.3,5.4-7,9.8-9.8,12.8
				C901.9,222.8,900,224.5,899.6,224.2z"/>
		</g>
	</g>
</g>
<g>
	<g>
		<g>
			<path class="st2" d="M713.1,140.4c0,0.1-0.2,0.2-0.6,0.2c-0.4,0.1-0.9,0.1-1.6,0c-1.3-0.2-3.3-0.8-5.3-2.3c-2-1.5-4-3.8-5.4-6.8
				c-0.7-1.5-1.2-3.2-1.5-5c-0.3-1.8-0.3-3.6-0.1-5.5c0.3-3.7,1.4-7.1,2.7-10c1.3-2.9,2.6-5.3,4-7.3c1.3-2,2.7-3.4,3.7-4.2
				c1-0.8,1.7-1.1,1.9-1c0.3,0.4-1.6,2.4-3.7,6.4c-1,2-2.1,4.5-3.2,7.2c-1,2.8-1.9,5.9-2.2,9.2c-0.3,3.3,0.1,6.4,1.1,9
				c1,2.6,2.6,4.7,4.1,6.2C710.3,139.5,713.2,139.9,713.1,140.4z"/>
		</g>
	</g>
</g>
<g>
	<g>
		<g>
			<path class="st2" d="M752.9,41.6c0,0.2-1.4,0.7-3.9,1.4c-2.5,0.7-6.2,1.7-10.6,3.2c-4.4,1.5-9.6,3.5-15,6.3
				c-5.4,2.9-11,6.6-16,11.5c-5,4.9-8.9,10.4-11.5,15.8c-1.3,2.7-2.1,5.4-1.9,7.8c0.1,1.2,0.4,2.3,0.9,3.3c0.5,1,1.2,1.9,2,2.6
				c1.6,1.5,3.4,2.4,5,3.1c1.7,0.6,3.2,1,4.5,1.2c2.5,0.4,4,0.5,4,0.7c0,0.2-1.4,0.6-4.2,0.6c-1.4-0.1-3-0.2-4.9-0.8
				c-1.9-0.5-4-1.4-6-3.1c-1-0.8-1.9-1.9-2.6-3.1c-0.7-1.3-1.2-2.7-1.4-4.3c-0.4-3.1,0.6-6.3,1.8-9.3c2.6-5.9,6.7-11.8,12-16.9
				c5.3-5.1,11.2-9,16.9-11.9c5.7-2.8,11.1-4.6,15.7-5.9c4.6-1.2,8.4-1.9,11-2.2C751.4,41.4,752.9,41.4,752.9,41.6z"/>
		</g>
	</g>
</g>
<g>
	<g>
		<g>
			<path class="st2" d="M797.4,42.7c-0.3,0.4-2.8-1-7.1-2.9c-4.2-1.9-10.2-4.2-17.1-5c-3.4-0.4-6.7-0.4-9.7,0
				c-2.9,0.4-5.5,1.2-7.5,2.1c-4.1,1.9-5.9,4.2-6.3,3.9c-0.2-0.1,0-0.9,0.8-2c0.8-1.1,2.2-2.6,4.3-3.9c2.1-1.3,4.9-2.5,8.1-3.1
				c3.2-0.6,6.8-0.7,10.5-0.3c7.5,0.8,13.7,3.7,17.8,6.2C795.6,40.2,797.7,42.3,797.4,42.7z"/>
		</g>
	</g>
</g>
<g>
	<g>
		<g>
			<path class="st2" d="M836.7,34.8c-0.2,0.4-2.6-0.5-6.3-1.7c-0.9-0.3-2-0.6-3.1-0.9c-1.1-0.3-2.3-0.5-3.6-0.8
				c-2.5-0.5-5.4-0.9-8.3-1.1c-3-0.2-5.8-0.1-8.4,0.1c-1.3,0.1-2.5,0.2-3.7,0.4c-1.2,0.1-2.2,0.3-3.2,0.5c-3.9,0.7-6.3,1.4-6.5,1
				c-0.2-0.4,2-1.8,5.9-3.2c1-0.3,2.1-0.7,3.3-0.9c1.2-0.3,2.5-0.5,3.8-0.8c2.7-0.4,5.8-0.6,8.9-0.4c3.2,0.2,6.2,0.7,8.8,1.4
				c1.3,0.4,2.6,0.7,3.7,1.2c1.2,0.4,2.2,0.9,3.1,1.3C835,32.8,836.9,34.5,836.7,34.8z"/>
		</g>
	</g>
</g>
<g>
	<g>
		<g>
			<path class="st2" d="M859.1,146.1c-0.2,0-0.2-1.6,0-4.4c0.1-0.7,0.1-1.5,0.2-2.3c0-0.8,0.1-1.8,0.1-2.7c0.1-2,0.3-4.2,0.3-6.7
				c0-1.2,0.1-2.5,0.1-3.9c0-1.3,0-2.7,0-4.2c0-2.9-0.2-6-0.4-9.2c-0.5-6.5-1.3-13.6-2.7-21c-1.4-7.4-3.3-14.3-5.3-20.5
				c-1.1-3.1-2-6-3.1-8.7c-0.5-1.3-1-2.7-1.5-3.9c-0.5-1.2-1-2.4-1.5-3.6c-0.9-2.3-1.9-4.3-2.7-6.1c-0.4-0.9-0.8-1.7-1.1-2.5
				c-0.4-0.8-0.7-1.4-1-2.1c-1.2-2.5-1.8-3.9-1.6-4.1s1.1,1.1,2.7,3.4c0.4,0.6,0.8,1.2,1.3,1.9c0.4,0.7,0.9,1.5,1.4,2.4
				c1,1.7,2.1,3.7,3.2,5.9c0.6,1.1,1.1,2.3,1.7,3.5c0.6,1.2,1.1,2.6,1.7,3.9c1.2,2.7,2.3,5.7,3.4,8.8c2.2,6.3,4.2,13.3,5.6,20.8
				c1.4,7.5,2.2,14.8,2.5,21.4c0.1,3.3,0.2,6.5,0.1,9.4c-0.1,1.5-0.1,2.9-0.2,4.3c-0.1,1.4-0.2,2.7-0.3,3.9
				c-0.2,2.5-0.5,4.7-0.8,6.7c-0.1,1-0.3,1.9-0.4,2.7c-0.2,0.8-0.3,1.6-0.5,2.3C859.8,144.6,859.3,146.1,859.1,146.1z"/>
		</g>
	</g>
</g>
<g>
	<g>
		<g>
			<path class="st2" d="M840.1,152.9c-0.5,0-0.8-5.9-1.7-15.4c-0.2-2.4-0.5-5-0.8-7.7c-0.3-2.8-0.7-5.7-1.1-8.8
				c-0.9-6.2-2.2-13-3.9-20c-1.7-7-3.8-13.5-6-19.4c-1.2-2.9-2.2-5.7-3.4-8.2c-0.6-1.3-1.1-2.5-1.7-3.7c-0.6-1.1-1.1-2.3-1.7-3.3
				c-1-2.1-2.1-4-3-5.6c-0.5-0.8-0.9-1.6-1.3-2.3c-0.4-0.7-0.8-1.3-1.1-1.9c-1.4-2.3-2-3.6-1.9-3.8c0.2-0.1,1.2,0.9,2.9,3
				c0.4,0.5,0.9,1.1,1.4,1.7c0.5,0.7,1,1.4,1.5,2.2c1.1,1.6,2.3,3.4,3.5,5.5c0.6,1,1.2,2.1,1.9,3.3c0.6,1.2,1.2,2.4,1.9,3.6
				c1.3,2.5,2.5,5.3,3.8,8.2c2.4,5.9,4.6,12.6,6.4,19.7c1.8,7.1,2.9,14,3.7,20.3c0.3,3.2,0.7,6.2,0.9,9c0.2,2.8,0.3,5.4,0.4,7.8
				C841,147,840.5,152.9,840.1,152.9z"/>
		</g>
	</g>
</g>
<g>
	<g>
		<g>
			<path class="st2" d="M882.1,154.2c-0.5,0.2-1.5-2.2-5-3.9c-1.7-0.9-3.9-1.6-6.5-2.1c-2.6-0.5-5.5-0.9-8.5-1.1
				c-3-0.1-5.9,0-8.5,0.4c-2.6,0.4-4.8,1.1-6.5,1.9c-0.5,0.2-0.9,0.4-1.3,0.6c-0.4,0.2-0.8,0.4-1.1,0.6c-0.6,0.4-1.3,0.8-1.6,1
				c-0.1,0.1-0.2,0.3-0.2,0.5c0,0.1,0.2,0.2,0.3,0.2c0.2,0,0.2-0.2,0.2-0.2c-0.1,0-0.2,0-0.3,0c-0.1,0.1-0.3,0.1-0.5,0.1
				c-0.2,0-0.4-0.1-0.6-0.4c-0.1-0.2-0.1-0.6,0-1c0.4-0.8,0.9-1.1,1.6-1.8c0.3-0.3,0.7-0.6,1.1-0.9c0.4-0.3,0.8-0.6,1.3-0.9
				c1.8-1.2,4.3-2.2,7.1-2.9c2.8-0.6,6-0.9,9.2-0.7c3.3,0.2,6.3,0.7,9,1.4c2.8,0.7,5.2,1.8,7,3.1c0.9,0.6,1.6,1.4,2.2,2
				c0.6,0.7,1,1.4,1.2,1.9c0.3,0.6,0.4,1,0.4,1.4C882.3,154,882.2,154.2,882.1,154.2z"/>
		</g>
	</g>
</g>
<g>
	<g>
		<g>
			<path class="st2" d="M787,113.6c0.1,0.1,0,0.3-0.3,0.8c-0.1,0.2-0.3,0.5-0.5,0.8c-0.2,0.3-0.5,0.6-0.8,1
				c-0.3,0.4-0.7,0.7-1.2,1.1c-0.4,0.4-1,0.7-1.6,1.1c-1.2,0.7-2.6,1.5-4.3,2c-3.3,1.1-7.6,1.6-12.1,0.8c-2.3-0.4-4.6-1.1-6.9-2.1
				c-2.3-1.1-4.6-2.7-6.4-4.8c-1.8-2.1-3-4.5-4-6.8c-0.9-2.3-1.6-4.6-2.1-6.8c-1-4.4-1.4-8.4-1.3-11.8c0.1-6.8,1.5-10.8,1.9-10.7
				c0.5,0.1-0.1,4.2,0.4,10.6c0.2,3.2,0.8,7.1,1.9,11.2c1.2,4.1,2.7,8.6,5.7,12.2c2.9,3.5,7.4,5.2,11.4,6.1
				c4.1,0.9,7.9,0.6,10.9-0.1c1.5-0.3,2.9-0.9,4-1.4c0.5-0.3,1.1-0.5,1.5-0.8c0.4-0.3,0.9-0.5,1.3-0.8c0.4-0.3,0.7-0.5,1-0.7
				c0.3-0.2,0.5-0.4,0.7-0.5C786.7,113.7,786.9,113.6,787,113.6z"/>
		</g>
	</g>
</g>
<g>
	<g>
		<g>
			<path class="st2" d="M832.4,133c0.2,0.1-0.1,1.1-0.9,2.9c-0.8,1.8-2,4.3-4,7.2c-2,2.8-4.9,6.1-9.4,8.2c-2.2,1-4.8,1.7-7.5,1.5
				c-2.7-0.1-5.4-1-7.9-2.3c-2.5-1.4-4.5-3.2-6.3-5.1c-1.7-2-3-4.1-4.1-6.1c-2.2-4.1-3.4-8.1-4.5-11.3c-2.1-6.5-3.1-10.6-2.7-10.7
				c0.4-0.2,2.3,3.6,4.9,9.9c1.3,3.1,2.8,6.9,4.9,10.6c1.1,1.9,2.3,3.8,3.9,5.4c1.5,1.7,3.4,3.2,5.5,4.4c2.1,1.1,4.3,1.9,6.5,2
				c2.2,0.2,4.3-0.3,6.2-1.1c3.8-1.6,6.7-4.4,8.8-6.9c2.1-2.5,3.6-4.8,4.7-6.4C831.5,133.7,832.2,132.9,832.4,133z"/>
		</g>
	</g>
</g>
<g>
	<g>
		<g>
			<path class="st2" d="M837.4,161.9c0.1,0.2-0.1,0.6-0.7,1c-0.6,0.4-1.7,0.7-3,0.6c-1.3-0.1-2.9-0.9-4.1-2.1
				c-1.2-1.2-2.2-2.7-3-4.3c-1.6-3.1-2.4-6.4-2.3-8.9c0.1-2.4,1-3.8,1.4-3.7c0.5,0.1,0.5,1.5,0.9,3.5c0.4,2,1.4,4.7,2.9,7.5
				c0.7,1.5,1.5,2.7,2.3,3.7c0.8,1,1.6,1.5,2.5,1.9C835.8,162,837.1,161.5,837.4,161.9z"/>
		</g>
	</g>
</g>
<g>
	<g>
		<g>
			<path class="st2" d="M740.2,88c0.3,0.3-0.9,2-3.1,4.3c-2.1,2.4-5.2,5.5-8.3,9.2c-1.5,1.8-2.9,3.6-4.1,5.3
				c-1.1,1.7-2.1,3.3-2.9,4.6c-1.5,2.7-2.4,4.5-2.8,4.4c-0.4-0.1-0.4-2.2,0.7-5.3c0.5-1.6,1.4-3.4,2.5-5.3c1.1-1.9,2.5-3.9,4.1-5.8
				c3.2-3.8,6.7-6.8,9.2-8.8C738.1,88.7,739.9,87.7,740.2,88z"/>
		</g>
	</g>
</g>
<g>
	<g>
		<g>
			<path class="st2" d="M737.3,123.9c-0.2,0.4-1.2,0.4-2.8,0.4c-1.6,0-3.7,0-6.1,0.2c-1.2,0.1-2.4,0.2-3.5,0.2
				c-0.5,0-1.1,0.1-1.6,0.1c-0.4,0-0.8,0-1.2,0.1c-0.7,0.1-1.1,0.2-1.4,0.3c-0.3,0.2-0.6,0.4-0.8,0.3c-0.2,0-0.4-0.4-0.3-1
				c0.2-0.7,0.9-1.4,1.8-1.8c0.5-0.2,1-0.4,1.5-0.5c0.5-0.1,1-0.2,1.5-0.4c1.1-0.2,2.3-0.4,3.6-0.5c2.6-0.2,5.1,0.1,6.8,0.8
				C736.6,122.7,737.4,123.5,737.3,123.9z"/>
		</g>
	</g>
</g>
<g>
	<g>
		<g>
			<path class="st2" d="M779.9,132.2c-0.6,0.7-4.4-2-9.8-3c-5.4-1.2-9.9-0.2-10.2-1.1c-0.1-0.4,0.9-1.2,2.9-1.8
				c1-0.3,2.2-0.5,3.6-0.6c1.4-0.1,2.9,0,4.4,0.4c1.6,0.3,3,0.8,4.2,1.4c1.2,0.6,2.3,1.3,3,2C779.5,130.7,780.1,131.9,779.9,132.2z"
				/>
		</g>
	</g>
</g>
<g>
	<g>
		<g>
			
				<ellipse transform="matrix(-0.2632 0.9647 -0.9647 -0.2632 1085.972 -501.5537)" class="st2" cx="734.5" cy="163.9" rx="12.8" ry="1.6"/>
		</g>
	</g>
</g>
<g>
	<g>
		<g>
			<path class="st2" d="M739.9,187.2c-0.1,0.4-0.8,0.8-2,0.8c-1.2,0-2.8-0.4-4.4-1.4c-1.5-1-2.6-2.3-3.1-3.4
				c-0.5-1.1-0.5-1.9-0.1-2.1c0.8-0.5,2.6,1.2,5,2.7C737.7,185.4,740,186.3,739.9,187.2z"/>
		</g>
	</g>
</g>
<g>
	<g>
		<g>
			<path class="st2" d="M766.5,158.5c-0.4,0.1-1-0.8-1.5-2.4c-0.5-1.6-0.8-3.8-0.7-6.3c0.1-2.5,0.6-4.7,1.2-6.3
				c0.6-1.5,1.3-2.4,1.7-2.3c0.9,0.3,0.5,4.1,0.4,8.6C767.3,154.4,767.4,158.3,766.5,158.5z"/>
		</g>
	</g>
</g>
<g>
	<g>
		<g>
			<path class="st2" d="M723.5,154.3c-0.9,0.1-1.9-2.9-1.8-6.6c0.1-3.7,1.4-6.6,2.2-6.5c0.9,0.2,1.1,3.1,1,6.6
				C724.9,151.3,724.4,154.2,723.5,154.3z"/>
		</g>
	</g>
</g>
<g>
	<g>
		<g>
			<path class="st2" d="M782.6,200.3c0.3,0.3-1.7,2.6-5.6,5.6c-1.9,1.5-4.3,3.2-7.2,4.8c-2.9,1.6-6.3,3-10,3.9
				c-3.8,0.9-7.5,0.9-10.8,0.4c-3.3-0.5-6.2-1.5-8.4-2.8c-2.2-1.3-3.8-2.6-4.6-3.7c-0.9-1.1-1.2-1.8-1.1-1.9
				c0.4-0.4,2.5,1.8,6.7,3.6c2.1,0.9,4.8,1.6,7.8,1.9c3,0.3,6.4,0.1,9.8-0.6c6.9-1.6,12.6-4.9,16.6-7.4
				C779.7,201.5,782.3,199.9,782.6,200.3z"/>
		</g>
	</g>
</g>
<g>
	<g>
		<g>
			<path class="st2" d="M788.2,205c-0.9,0.4-2.7-2.2-5.6-4.5c-2.9-2.3-5.8-3.5-5.7-4.4c0.1-0.4,1-0.7,2.5-0.5c1.5,0.2,3.4,1,5.2,2.4
				c1.8,1.4,3,3.1,3.5,4.5C788.6,203.8,788.6,204.8,788.2,205z"/>
		</g>
	</g>
</g>
<g>
	<g>
		<g>
			<path class="st2" d="M940.4,242.7c0-0.1,1.1-0.1,3.1,0c2,0,5-0.1,8.7-0.8c3.7-0.8,8.2-2.2,12.8-4.9c4.6-2.7,9.3-6.9,12.7-12.6
				c3.4-5.7,5.4-13.1,5.1-20.9c-0.2-3.9-0.9-7.9-2.5-11.8c-1.5-3.9-3.7-7.6-6.6-10.9c-2.9-3.4-6.3-6.4-9.9-9.5
				c-3.6-3.1-7.4-6.3-10.9-9.9c-3.5-3.7-6.6-7.9-9.2-12.5c-2.6-4.5-4.8-9.4-6.7-14.3c-3.9-9.9-7.1-19.6-10.6-28.9
				c-3.4-9.3-7-18.1-11.1-26.2c-4.1-8.1-8.7-15.3-13.7-21.5c-5.1-6.2-10.5-11.3-16.1-15.2c-5.5-3.9-11.2-6.5-16.4-7.9
				c-5.2-1.5-9.9-1.7-13.6-1.4c-3.8,0.3-6.6,1.2-8.5,1.9c-1.9,0.7-2.8,1.2-2.9,1.1c0-0.1,0.8-0.7,2.6-1.7c1.8-0.9,4.7-2,8.6-2.6
				c3.9-0.5,8.8-0.4,14.2,0.9c5.4,1.3,11.4,3.8,17.2,7.7c5.8,3.9,11.6,9.1,16.9,15.4c5.3,6.3,10.1,13.7,14.3,21.9
				c4.2,8.2,7.9,17.1,11.4,26.4c3.5,9.3,6.8,19.1,10.6,28.8c3.8,9.7,8.5,18.8,15.2,25.8c6.7,7,14.8,12.5,20.8,19.7
				c3.1,3.5,5.5,7.6,7,11.8c1.6,4.2,2.3,8.5,2.5,12.7c0.3,8.4-2,16.2-5.8,22.2c-3.8,6-8.9,10.3-13.8,13c-4.9,2.8-9.6,4-13.5,4.6
				c-3.9,0.6-6.9,0.4-9,0.2C941.4,243.1,940.4,242.8,940.4,242.7z"/>
		</g>
	</g>
</g>
<g>
	<g>
		<g>
			<path class="st2" d="M875.8,253.8c-0.7-0.6,3.6-7.2,9.9-14.5c6.3-7.4,12.2-12.6,12.9-12c0.7,0.6-4.1,6.8-10.4,14.1
				C882,248.7,876.6,254.4,875.8,253.8z"/>
		</g>
	</g>
</g>
<g>
	<g>
		<g>
			<path class="st2" d="M912.9,398.3c-0.2,0.1-1.5-1.7-3.8-5c-2.2-3.4-5.4-8.3-8.9-14.6c-3.5-6.3-7.4-14.1-10.3-23.4
				c-2.9-9.2-4.6-19.7-5.7-30.7c-2.1-21.9-3-41.8-3.2-56.3c-0.1-7.2,0-13,0.1-17.1c0.1-4,0.3-6.3,0.6-6.3c0.5,0,0.9,8.9,1.7,23.3
				c0.8,14.4,2,34.2,4.1,56c1.1,10.9,2.6,21.2,5.3,30.2c2.7,9,6.3,16.7,9.5,23.1c3.2,6.4,6.1,11.5,8,15
				C912.1,396.2,913.1,398.2,912.9,398.3z"/>
		</g>
	</g>
</g>
<g>
	<g>
		<g>
			<path class="st2" d="M877.5,459.5c-0.1,0.1-0.6-0.5-1.5-1.7c-0.4-0.6-0.9-1.3-1.6-2.2c-0.3-0.4-0.6-0.9-1-1.4
				c-0.3-0.5-0.7-1.1-1-1.7c-0.7-1.2-1.5-2.5-2.4-4c-0.8-1.5-1.7-3.1-2.6-4.9c-1-1.7-1.8-3.7-2.8-5.7c-1-2-1.9-4.2-2.9-6.5
				c-0.2-0.6-0.5-1.2-0.7-1.8c-0.2-0.6-0.5-1.2-0.7-1.8c-0.5-1.2-0.9-2.5-1.4-3.8c-0.9-2.6-1.8-5.3-2.7-8.1
				c-0.8-2.8-1.7-5.7-2.5-8.8c-0.4-1.5-0.8-3.1-1.2-4.6c-0.3-1.6-0.7-3.2-1-4.8c-2.7-13-4.4-27.5-4.9-42.8
				c-0.4-15.3,0.4-29.8,1.6-43c1.2-13.1,2.9-24.9,4.4-34.8c1.5-9.8,2.9-17.8,4-23.3c1-5.5,1.7-8.5,2-8.4c0.2,0,0,3.1-0.7,8.6
				c-0.7,5.5-1.7,13.5-2.9,23.4c-1.2,9.9-2.6,21.6-3.7,34.7c-1.1,13.1-1.7,27.5-1.3,42.6c0.5,15.1,2,29.4,4.6,42.3
				c0.3,1.6,0.7,3.2,1,4.7c0.3,1.6,0.7,3.1,1.1,4.6c0.7,3,1.5,5.9,2.3,8.7c0.8,2.8,1.6,5.5,2.5,8c0.4,1.3,0.9,2.5,1.3,3.7
				c0.2,0.6,0.4,1.2,0.6,1.8c0.2,0.6,0.5,1.2,0.7,1.7c0.9,2.3,1.7,4.5,2.6,6.5c0.9,2,1.7,4,2.5,5.8c0.8,1.8,1.6,3.4,2.4,4.9
				c0.8,1.5,1.5,2.9,2.1,4.1c0.3,0.6,0.6,1.2,0.9,1.7c0.3,0.5,0.6,1,0.8,1.5c0.5,0.9,0.9,1.7,1.3,2.4
				C877.3,458.7,877.6,459.4,877.5,459.5z"/>
		</g>
	</g>
</g>
<g>
	<g>
		<g>
			<path class="st2" d="M926.5,234.1c0.4,0.1-0.3,3.5-2.2,8.7c-1,2.6-2.4,5.7-4.3,8.9c-2,3.2-4.5,6.5-7.9,9.4
				c-3.4,2.8-7.2,4.8-11,5.8c-3.7,1-7.3,1-10.2,0.3c-2.9-0.7-5-2.1-6.1-3.3c-1.1-1.3-1.3-2.2-1.1-2.3c0.2-0.1,0.8,0.5,2,1.4
				c1.2,0.8,3.1,1.7,5.6,2c2.5,0.3,5.7,0.1,8.9-0.9c3.3-1,6.6-2.9,9.7-5.4c3.1-2.5,5.5-5.5,7.5-8.5c2-2.9,3.5-5.8,4.7-8.2
				C924.6,237.1,926,234,926.5,234.1z"/>
		</g>
	</g>
</g>
<g>
	<g>
		<g>
			<path class="st2" d="M952.9,412.3c-0.2,0,0-2.4,0.6-6.6c0.6-4.2,1.5-10.2,2.4-17.7c0.9-7.5,1.7-16.4,1.5-26.3
				c-0.3-9.8-1.8-20.7-5.9-31.3c-4-10.6-10.4-19.6-17.9-25.8c-3.7-3.1-7.7-5.6-11.6-7.7c-3.9-2.1-7.6-3.7-11.1-5
				c-7-2.7-12.9-4.5-16.9-5.8c-4-1.3-6.2-2.1-6.2-2.3c0.1-0.2,2.4,0.2,6.5,1.1c4.1,0.9,10.1,2.4,17.3,4.8c3.6,1.2,7.5,2.8,11.6,4.8
				c4,2,8.2,4.5,12.2,7.8c8,6.4,14.9,15.9,19,26.9c4.3,11,5.8,22.3,5.9,32.4c0.1,10.1-1,19.2-2.2,26.7c-1.2,7.5-2.5,13.5-3.5,17.6
				C953.8,410.1,953.1,412.4,952.9,412.3z"/>
		</g>
	</g>
</g>
<g>
	<g>
		<g>
			<path class="st2" d="M955.3,405.4c0.2,0.1,0.1,1.6-0.4,4.4c-0.5,2.8-1.3,6.8-2.6,11.8c-1.3,4.9-3,10.8-5.7,17
				c-2.7,6.2-6.4,12.9-11.7,18.9c-5.2,6-11.5,10.6-18,13.2c-6.5,2.6-12.9,3.2-18,2.7c-5.2-0.5-9.2-2.1-11.7-3.5
				c-0.6-0.4-1.2-0.7-1.6-1c-0.5-0.3-0.8-0.6-1.1-0.9c-0.6-0.5-0.9-0.8-0.8-0.9c0.1-0.1,0.5,0,1.1,0.3c0.3,0.1,0.7,0.4,1.2,0.6
				c0.5,0.2,1.1,0.4,1.7,0.7c2.6,1,6.5,2.2,11.4,2.4c4.9,0.2,10.8-0.6,16.7-3.2c5.9-2.5,11.7-6.9,16.7-12.5
				c5-5.7,8.6-11.9,11.4-17.9c2.8-6,4.7-11.7,6.2-16.5c1.5-4.8,2.7-8.7,3.6-11.4C954.5,406.8,955.1,405.3,955.3,405.4z"/>
		</g>
	</g>
</g>
<g>
	<g>
		<g>
			<path class="st2" d="M781,275.7c0,0.2-2.3,0.8-6.6,1.9c-4.2,1.1-10.3,2.9-17.5,5.9c-3.6,1.5-7.4,3.4-11.4,5.6
				c-4,2.2-8.1,4.8-12,8.1c-3.9,3.2-7.4,7.2-9.8,12.1c-2.4,4.8-3.6,10.5-4.1,16.3c-0.5,5.9-0.4,11.7-0.5,17.3
				c-0.1,5.7-0.1,11.1-0.2,16.3c-0.1,10.4-0.3,19.7-0.5,27.6c-0.2,7.9-0.4,14.2-0.6,18.6c-0.2,4.4-0.5,6.8-0.7,6.8
				c-0.2,0-0.4-2.4-0.6-6.8c-0.2-4.4-0.3-10.8-0.4-18.6c-0.1-7.9-0.2-17.2-0.2-27.6c0-5.2,0-10.6,0-16.3c0-5.6-0.1-11.5,0.5-17.6
				c0.5-6.1,1.8-12.1,4.5-17.4c1.3-2.7,3-5.1,4.8-7.2c1.8-2.2,3.8-4,5.9-5.7c4.1-3.4,8.5-6,12.6-8.1c4.1-2.2,8.1-3.9,11.8-5.3
				c7.4-2.8,13.7-4.3,18-5C778.5,275.6,781,275.5,781,275.7z"/>
		</g>
	</g>
</g>
<g>
	<g>
		<g>
			<path class="st2" d="M764,257.3c0.2,0.1,0,1-0.8,2.3c-0.9,1.3-2.5,2.9-4.8,4.3c-1.2,0.7-2.5,1.4-3.9,2.1c-1.4,0.7-3,1.4-4.9,1.8
				c-1.8,0.4-4.1,0.5-6.2-0.3c-2.1-0.8-3.8-2.3-5.2-4c-1.4-1.7-2.5-3.5-3.2-5.4c-0.7-1.9-1.2-3.8-1.4-5.6c-0.4-3.7,0.1-7,1-9.6
				c0.9-2.6,2.1-4.5,3.1-5.7c1-1.2,1.7-1.6,1.9-1.5c0.4,0.3-1.7,2.9-2.7,7.8c-0.6,2.4-0.7,5.4-0.2,8.6c0.3,1.6,0.7,3.2,1.4,4.8
				c0.7,1.6,1.6,3.1,2.8,4.6c1.2,1.4,2.5,2.5,3.9,3.1c1.4,0.6,2.9,0.6,4.5,0.3c1.5-0.3,3-0.8,4.4-1.4c1.4-0.6,2.7-1.1,3.8-1.6
				c2.3-1.1,3.9-2.2,5-3.1C763.3,257.8,763.8,257.1,764,257.3z"/>
		</g>
	</g>
</g>
<g>
	<g>
		<g>
			<path class="st2" d="M790.2,264.4c0.2,0.4-1.3,1.7-4,3.6c-1.4,0.9-2.9,2-5,3.1c-1,0.5-2.2,1-3.5,1.3c-1.3,0.3-2.7,0.3-4.1,0.2
				c-2.8-0.4-5.3-1.7-7.1-3.4c-1.8-1.7-2.7-3.8-3.2-5.5c-0.5-1.7-0.4-3.2-0.2-4.2c0.2-1,0.5-1.4,0.7-1.4c0.5,0.1,0.4,2.1,1.7,4.8
				c0.6,1.3,1.6,2.8,3,4c1.4,1.2,3.4,2.1,5.5,2.4c4.3,0.6,8.1-2,11.1-3.3C788,264.6,790,264,790.2,264.4z"/>
		</g>
	</g>
</g>
<g>
	<g>
		<g>
			<path class="st2" d="M704.8,332c-0.4,0-1-3.2-0.9-8.6c0.1-5.3,1-12.8,4.2-20.4c3.2-7.6,8.2-13.5,12.4-16.8
				c4.2-3.4,7.4-4.5,7.6-4.1c0.3,0.4-2.5,2.2-6.1,5.8c-3.6,3.6-7.9,9.2-10.9,16.4c-3,7.2-4.3,14.2-4.9,19.3
				C705.5,328.8,705.3,332,704.8,332z"/>
		</g>
	</g>
</g>
<g>
	<g>
		<g>
			<path class="st2" d="M757.4,367.4c-0.6,0.6-5.4-3.2-10.3-8.8c-4.9-5.6-8.1-10.8-7.4-11.3c0.7-0.6,5,3.7,9.8,9.2
				C754.4,362,758,366.8,757.4,367.4z"/>
		</g>
	</g>
</g>
<g>
	<g>
		<g>
			<path class="st2" d="M771.6,477.3c-0.1,0.1-0.4-0.1-1.1-0.5c-0.7-0.4-1.6-1-2.7-1.9c-2.3-1.8-5.4-4.6-8.8-8.6
				c-1.7-2-3.4-4.3-5-6.9c-1.6-2.6-3.2-5.5-4.7-8.6c-2.8-6.3-5.1-13.7-5.5-21.8c-0.2-4,0.1-8,0.9-11.8c0.8-3.7,1.9-7.2,3.1-10.4
				c2.4-6.4,4.6-12.1,6.4-16.8c3.8-9.5,6.3-15.4,6.7-15.2s-1.3,6.3-4.6,16c-1.6,4.9-3.6,10.7-5.8,17c-1.1,3.2-2.1,6.5-2.8,10
				c-0.7,3.5-1,7.2-0.8,10.9c0.4,7.6,2.5,14.7,5,20.8c1.3,3.1,2.7,5.9,4.2,8.4c1.5,2.5,3.1,4.8,4.5,6.9c3,4,5.9,7,7.8,9.1
				c1,1,1.8,1.8,2.3,2.4C771.4,476.8,771.7,477.2,771.6,477.3z"/>
		</g>
	</g>
</g>
<g>
	<g>
		<g>
			<path class="st2" d="M801.2,562.1c-0.4,0.2-3.3-3.9-7.4-10.9c-2-3.5-4.3-7.8-6.6-12.7c-2.3-4.9-4.7-10.3-6.9-16.1
				c-2.2-5.8-4-11.4-5.5-16.6c-1.5-5.2-2.6-9.9-3.4-13.9c-1.6-8-2.1-13-1.7-13.1c1-0.2,5,19.4,13.7,42.4
				C792,544.3,802.1,561.6,801.2,562.1z"/>
		</g>
	</g>
</g>
<g>
	<g>
		<g>
			<path class="st2" d="M942,558.5c-0.4,0.1-2.6-5.2-5.1-14.1c-0.6-2.2-1.3-4.7-1.9-7.4c-0.6-2.7-1.2-5.5-1.8-8.5
				c-1.1-6-2-12.7-2.6-19.8c-0.6-7.1-0.7-13.8-0.7-20c0.1-3.1,0.1-6,0.3-8.7c0.1-2.7,0.4-5.3,0.6-7.6c1-9.2,2.3-14.8,2.7-14.8
				c1,0.1-2.1,22.8,0.3,50.7C936.2,536.3,943,558.2,942,558.5z"/>
		</g>
	</g>
</g>
<g>
	<g>
		<g>
			<path class="st2" d="M959.7,523.3c-0.4,0.2-1.9-2.3-3.7-6.6c-1.8-4.3-3.8-10.5-5.1-17.6c-1.3-7-1.7-13.5-1.5-18.2
				c0.1-4.7,0.7-7.5,1.1-7.5c1,0,1.1,11.4,3.7,25.2C956.6,512.3,960.6,523,959.7,523.3z"/>
		</g>
	</g>
</g>
<g>
	<g>
		<g>
			<path class="st2" d="M835.4,540.8c-0.2,0.1-1.4-2.4-3.5-6.9c-0.5-1.1-1.1-2.4-1.7-3.8c-0.6-1.4-1.1-3-1.8-4.6
				c-1.2-3.3-2.8-7.1-4-11.4c-0.7-2.1-1.4-4.4-2.1-6.7c-0.7-2.3-1.3-4.8-2-7.4c-1.4-5.1-2.5-10.6-3.7-16.4c-2.2-11.6-4-24.6-5-38.2
				c-1-13.6-1.1-26.7-0.9-38.5c0.2-5.9,0.3-11.5,0.7-16.8c0.2-2.6,0.3-5.2,0.5-7.6c0.2-2.4,0.4-4.8,0.6-7c0.3-4.5,0.8-8.5,1.1-12
				c0.4-3.5,0.7-6.6,1.1-9c0.7-5,1.2-7.7,1.4-7.7c0.2,0,0.2,2.8-0.1,7.8c-0.2,2.5-0.3,5.5-0.5,9.1c-0.2,3.5-0.5,7.6-0.7,12
				c-0.1,2.2-0.2,4.6-0.3,7c-0.1,2.4-0.2,5-0.3,7.6c-0.2,5.2-0.3,10.8-0.4,16.7c0,11.8,0.2,24.7,1.2,38.2c1,13.5,2.7,26.3,4.7,37.9
				c1.2,5.8,2.1,11.3,3.4,16.3c0.6,2.5,1.1,5,1.8,7.3c0.7,2.3,1.3,4.6,1.9,6.7c1.1,4.3,2.5,8.1,3.5,11.5c0.5,1.7,1.1,3.2,1.5,4.7
				c0.5,1.4,1,2.7,1.4,3.9C834.8,538.1,835.6,540.7,835.4,540.8z"/>
		</g>
	</g>
</g>
<g>
	<g>
		<g>
			<path class="st2" d="M809.2,303.5c0,0.4-2.2,0.6-5.4-0.8c-3.2-1.4-6.9-4.6-9.4-9.2c-2.4-4.6-3.3-9.2-3.7-12.4
				c-0.4-3.3-0.2-5.3,0.2-5.4c0.5-0.1,1.1,1.8,2.1,4.9c0.9,3,2.1,7.2,4.3,11.3c2.2,4.1,5.2,7.1,7.7,8.8
				C807.4,302.4,809.3,303,809.2,303.5z"/>
		</g>
	</g>
</g>
<g>
	<g>
		<g>
			<path class="st2" d="M773.5,288.8c-0.2,0-0.5-0.2-0.7-0.8c-0.2-0.6-0.2-1.7,0.3-2.7c0.5-1.1,1.3-2.1,2.3-3
				c0.5-0.5,1.1-0.9,1.7-1.3c0.6-0.4,1.2-0.8,1.8-1.1c5.1-3,9.9-4,10.2-3.2c0.3,0.9-3.7,3.2-8.5,6c-0.6,0.4-1.2,0.7-1.8,1
				c-0.6,0.3-1.1,0.6-1.5,0.9c-0.9,0.6-1.7,1.2-2.2,1.8C774,287.6,774,288.7,773.5,288.8z"/>
		</g>
	</g>
</g>
<g>
	<g>
		<g>
			<path class="st2" d="M794.2,320.8c0,0.2-0.6,0.4-1.6,0.3c-1-0.1-2.4-0.5-4-1.4c-1.6-0.9-3.2-2.3-4.6-4.1
				c-1.5-1.8-2.8-3.9-4.1-6.1c-2.5-4.5-4.3-8.8-5.3-12c-1-3.2-1.2-5.3-0.8-5.4c0.9-0.3,4,7.2,9,15.8c1.2,2.2,2.4,4.2,3.6,5.9
				c1.2,1.7,2.4,3.1,3.6,4C792.2,319.9,794.2,320.3,794.2,320.8z"/>
		</g>
	</g>
</g>
<g>
	<g>
		<g>
			<path class="st2" d="M809.3,306.1c0.5,0.8-2.4,3.7-5,7.8c-2.7,4.1-4.2,7.9-5.1,7.7c-0.4-0.1-0.6-1.3-0.3-3
				c0.3-1.8,1.2-4.2,2.7-6.5c1.5-2.3,3.4-4.1,4.9-5.1C807.9,306,809.1,305.7,809.3,306.1z"/>
		</g>
	</g>
</g>
<g>
	<g>
		<g>
			<path class="st2" d="M836,320.3c0.1,0.2-0.2,0.5-0.9,0.7c-0.7,0.2-1.8,0.1-2.8-0.4c-1.1-0.5-2.2-1.3-3.2-2.3c-1-1-2-2.1-3-3.3
				c-4.1-4.8-6.5-9.3-5.7-9.9c0.7-0.5,4.3,3.1,8.2,7.8c1,1.2,1.9,2.3,2.7,3.4c0.8,1,1.5,1.8,2.2,2.4c0.7,0.6,1.2,0.9,1.7,1.1
				C835.6,320,835.9,320.1,836,320.3z"/>
		</g>
	</g>
</g>
<g>
	<g>
		<g>
			<path class="st2" d="M850,283.7c0.3,0.4-1,1.9-3,4.3c-1,1.3-2.2,2.7-3.5,4.4c-1.3,1.7-2.8,3.5-4.6,5.3c-1.8,1.8-3.8,3.3-5.7,4.4
				c-2,1.1-4,1.8-5.7,2.1c-0.9,0.1-1.6,0.2-2.2,0.2c-0.6,0.1-1,0.1-1.4,0.2c-0.7,0.2-1,0.6-1.2,0.6c-0.1,0-0.2-0.2-0.2-0.5
				c0-0.3,0.2-0.7,0.6-1.1c0.4-0.4,1-0.7,1.6-1c0.7-0.3,1.4-0.4,2.1-0.7c1.4-0.5,3-1.3,4.7-2.4c1.6-1.1,3.3-2.5,5-4.2
				c3.3-3.3,6.2-6.8,8.7-9C847.9,284.2,849.8,283.3,850,283.7z"/>
		</g>
	</g>
</g>
<g>
	<g>
		<g>
			<path class="st2" d="M884.2,292.1c-0.4,0.3-1.7-1.2-4.5-2.1c-1.4-0.5-3.1-0.8-5-1c-2-0.2-4.1-0.1-6.5,0.1
				c-9.4,0.7-16.7,3.3-17.1,2.4c-0.2-0.4,1.5-1.6,4.5-2.8c3-1.2,7.4-2.5,12.4-2.8c2.5-0.2,4.9-0.2,7.1,0.2c2.2,0.3,4.2,1,5.7,1.9
				c1.5,0.9,2.5,1.9,3,2.7C884.2,291.4,884.3,292,884.2,292.1z"/>
		</g>
	</g>
</g>
<g>
	<g>
		<g>
			<path class="st2" d="M884.8,310c-0.4,0.3-1.9-1.2-5.1-1.9c-1.6-0.4-3.6-0.6-5.8-0.6c-2.2,0-4.7,0.1-7.3,0.4
				c-6.7,0.7-12.3,2.4-15.6,3.4l-0.8-1.6c1.8-0.7,3-1,3.1-0.8c0.2,0.3-0.7,1.1-2.2,2.3l-0.8-1.6c3-1.8,8.9-4.3,16-5
				c2.8-0.3,5.4-0.3,7.8-0.1c2.4,0.2,4.6,0.7,6.4,1.5c1.8,0.8,3,1.8,3.7,2.6C884.7,309.3,884.9,309.9,884.8,310z"/>
		</g>
	</g>
</g>
<g>
	<g>
		<g>
			<path class="st2" d="M696,613.6c0,0.4-2.1,0.9-5.6,0.5c-0.4-0.1-0.9-0.1-1.4-0.2c-0.5-0.1-0.9-0.2-1.4-0.3c-1-0.2-2-0.6-3.1-1
				c-2.1-0.9-4.4-2.1-6.5-3.7c-2.1-1.6-3.9-3.5-5.3-5.3c-0.7-0.9-1.3-1.8-1.8-2.7c-0.2-0.4-0.5-0.9-0.7-1.3
				c-0.2-0.4-0.4-0.9-0.6-1.2c-1.3-3.2-1.4-5.4-1-5.5c0.5-0.1,1.3,1.7,3,4.4c0.2,0.3,0.4,0.7,0.7,1c0.2,0.4,0.5,0.7,0.8,1.1
				c0.5,0.8,1.2,1.5,1.9,2.3c1.4,1.5,3.1,3.1,5,4.6c1.9,1.4,3.9,2.6,5.8,3.5c1,0.4,1.8,0.9,2.7,1.2c0.4,0.2,0.9,0.3,1.3,0.5
				c0.4,0.1,0.8,0.3,1.2,0.4C694,612.8,696,613.1,696,613.6z"/>
		</g>
	</g>
</g>
<g>
	<g>
		<g>
			<path class="st2" d="M669.1,586.8c-0.2-0.1,0.7-2.3,2.4-6.3c1.7-4,4.4-9.7,7.6-16.7c6.4-14.1,15.2-33.6,22.9-55.8
				c3.8-11.1,6.8-21.9,9.1-31.8c1-5,2.1-9.7,2.7-14.2c0.3-2.2,0.7-4.4,1-6.5c0.2-2.1,0.5-4.1,0.7-6c0.5-3.8,0.7-7.3,0.9-10.4
				c0.1-1.5,0.2-3,0.3-4.3c0-1.3,0.1-2.5,0.1-3.6c0.1-4.3,0.3-6.7,0.5-6.7c0.2,0,0.5,2.4,0.7,6.7c0.1,1.1,0.1,2.3,0.2,3.6
				c0,1.3,0,2.8,0,4.3c-0.1,3.1,0,6.6-0.4,10.5c-0.2,1.9-0.3,4-0.5,6.1c-0.2,2.1-0.6,4.3-0.9,6.6c-0.5,4.6-1.5,9.4-2.5,14.4
				c-2.2,10.1-5.2,21-9,32.3c-7.8,22.5-17,41.9-23.9,55.7c-3.5,6.9-6.4,12.5-8.5,16.3C670.5,584.9,669.3,586.9,669.1,586.8z"/>
		</g>
	</g>
</g>
<g>
	<g>
		<g>
			<path class="st2" d="M693.9,603.8c-0.2,0.4-1.6,0.1-3.6-0.8c-2-1-4.6-2.8-7-5.3c-2.4-2.5-4-5.2-4.9-7.3c-0.9-2.1-1-3.5-0.6-3.7
				c0.9-0.4,3.5,4.1,7.9,8.7C690,600.1,694.3,603,693.9,603.8z"/>
		</g>
	</g>
</g>
<g>
	<g>
		<g>
			<path class="st2" d="M768.7,485.1c0.2,0,0,2.1-0.9,5.8c-0.9,3.7-2.7,8.9-5.6,15c-2.8,6.1-6.8,13.1-11.3,20.8
				c-4.5,7.7-9.5,16-14.8,24.8c-10.7,17.5-20.8,33-28.3,44.2c-7.5,11.1-12.4,17.8-12.8,17.6c-0.4-0.3,3.8-7.4,10.9-18.8
				c7-11.4,16.7-27.2,27.5-44.6c5.3-8.7,10.4-17,15-24.6c4.6-7.6,8.7-14.4,11.8-20.3C766.3,493.1,768.2,485,768.7,485.1z"/>
		</g>
	</g>
</g>
<g>
	<g>
		<g>
			<path class="st2" d="M602.7,642.2c-0.1,0.4-1.6,0.6-3.9,0.2c-2.3-0.5-5.5-1.7-8.5-4c-2.9-2.3-5-5-6-7.2c-0.3-0.6-0.5-1-0.6-1.5
				c-0.2-0.6-0.2-1.2,0.2-1.5c0.3-0.3,0.7-0.2,0.9,0c0.2,0.2,0.4,0.3,0.5,0.3c0.1,0,0.1-0.1,0.1-0.2c0-0.1-0.2-0.1-0.3,0.1
				c-0.1,0.2,0.1,0.5,0.3,0.6c0.2,0.3,0.6,0.7,0.9,1.1c1.4,1.7,3.4,3.9,6,5.9C597.5,639.9,602.8,641.3,602.7,642.2z"/>
		</g>
	</g>
</g>
<g>
	<g>
		<g>
			<path class="st2" d="M625.5,626.4c0.1,0.4-2.3,1.2-6.3,1c-2-0.1-4.3-0.4-6.8-0.8c-2.5-0.5-5.2-1.1-8-1.6
				c-2.8-0.5-5.4-0.8-7.8-0.9c-2.4,0-4.5,0.2-6.2,0.6c-3.5,0.8-5.4,2.2-5.7,1.8c-0.1-0.2,0.2-0.7,1-1.5c0.8-0.8,2.2-1.7,4.1-2.5
				c1.9-0.8,4.3-1.3,6.9-1.4c2.6-0.1,5.5,0.1,8.4,0.7c2.9,0.6,5.6,1.3,8,1.9c2.4,0.6,4.6,1.1,6.4,1.5
				C623.1,625.8,625.5,625.9,625.5,626.4z"/>
		</g>
	</g>
</g>
<g>
	<g>
		<g>
			
				<ellipse transform="matrix(0.8362 0.5484 -0.5484 0.8362 433.8825 -221.0673)" class="st2" cx="587" cy="615.8" rx="12.6" ry="1.6"/>
		</g>
	</g>
</g>
<g>
	<g>
		<g>
			<path class="st2" d="M621.7,612.4c-0.2,0.4-2.8-0.6-6.7-2.2c-2-0.8-4.4-1.7-7-2.4c-2.7-0.7-5.6-1.1-8.8-1
				c-3.3,0.1-6.4,0.2-9.3,0.3c-2.9,0.1-5.4,0.2-7.6,0.3c-4.3,0.2-7,0.5-7.1,0.1c-0.1-0.4,2.4-1.5,6.8-2.4c2.2-0.4,4.8-0.8,7.7-1
				c2.9-0.2,6-0.5,9.4-0.6c3.4-0.1,6.9,0.4,9.7,1.4c2.9,0.9,5.3,2.1,7.2,3.2C619.8,610.3,621.9,612,621.7,612.4z"/>
		</g>
	</g>
</g>
<g>
	<g>
		<g>
			<path class="st2" d="M630.2,603c-0.3,0.9-10.7-2.8-24-4.6c-3.3-0.4-6.5-0.8-9.2-0.7c-2.8,0.1-5.2,0.7-7,1.6
				c-1.8,0.9-3.1,2-3.9,2.9c-0.8,0.9-1.2,1.5-1.4,1.4c-0.2-0.1-0.2-0.8,0.3-2.1c0.6-1.2,1.8-2.9,3.8-4.2c2-1.4,4.9-2.3,8-2.6
				c3.1-0.3,6.5,0.1,9.9,0.5c6.9,0.9,12.9,2.7,17.1,4.3C627.9,601.1,630.3,602.6,630.2,603z"/>
		</g>
	</g>
</g>
<g>
	<g>
		<g>
			<path class="st2" d="M628.8,594.9c-0.1,0.4-1.8,0.4-4.4,0c-2.6-0.4-6.1-1-9.9-1.5c-1.9-0.2-3.7-0.3-5.4-0.4c-1.6,0-3.1,0-4.4,0.1
				c-2.5,0.2-4.1,0.4-4.3,0c-0.2-0.4,1.2-1.4,3.9-2.3c1.3-0.4,2.9-0.7,4.7-0.9c1.8-0.1,3.8-0.1,5.8,0.2c4.1,0.5,7.6,1.6,10.1,2.5
				C627.5,593.6,628.9,594.5,628.8,594.9z"/>
		</g>
	</g>
</g>
<g>
	<g>
		<g>
			<path class="st2" d="M660.9,597.7c-0.3,0.4-2.5-0.8-6.4-1.8c-1.9-0.5-4.3-1-7-1.4c-2.7-0.4-5.7-0.9-8.8-1.4
				c-3.1-0.5-6.1-1.1-8.7-1.6c-2.7-0.5-5-0.8-7-0.9c-4-0.2-6.5,0.4-6.6-0.1c-0.2-0.4,2.2-1.8,6.6-2.2c2.2-0.2,4.7-0.1,7.5,0.2
				c2.8,0.3,5.7,0.8,8.9,1.4c3.1,0.5,6.1,1.1,8.8,1.7c2.7,0.6,5.2,1.3,7.1,2.2C659.2,595.4,661.1,597.4,660.9,597.7z"/>
		</g>
	</g>
</g>
<g>
	<g>
		<g>
			<path class="st2" d="M658.5,603.9c-0.7-0.6,2.6-5,5.8-10.8c3.2-5.7,5.2-10.8,6.2-10.5c0.4,0.1,0.5,1.6,0,3.8
				c-0.5,2.2-1.6,5.3-3.3,8.3c-1.7,3.1-3.7,5.5-5.4,7.1C660.1,603.5,658.8,604.2,658.5,603.9z"/>
		</g>
	</g>
</g>
<g>
	<g>
		<g>
			<path class="st2" d="M687.8,613.9c0.2,0.1,0,1.6-0.8,4.2c-0.8,2.6-2.4,6.4-5.1,10.6c-2.7,4.2-6.6,8.8-12,12.7
				c-5.3,4-12.1,7.2-19.6,8.8c-7.5,1.6-15,1.4-21.5,0c-6.5-1.4-11.9-3.5-16.5-5c-4.6-1.5-8.4-2.4-11-2.9c-2.6-0.5-4.2-0.6-4.2-0.9
				c0-0.2,1.5-0.5,4.3-0.4c2.8,0.1,6.8,0.7,11.5,2c4.8,1.2,10.3,3,16.5,4.2c6.1,1.2,13.1,1.3,20.2-0.2c7-1.5,13.4-4.4,18.5-8.1
				c5.1-3.6,9-7.8,11.8-11.6c2.8-3.9,4.6-7.3,5.8-9.7C687,615.3,687.6,613.9,687.8,613.9z"/>
		</g>
	</g>
</g>
<g>
	<g>
		<g>
			<path class="st2" d="M801.8,575.5c-0.2,0.4-1.3,0.3-2.4-0.8c-0.6-0.5-1.1-1.3-1.6-2.3c-0.4-1-0.6-2.1-0.7-3.3
				c0-1.2,0.3-2.3,0.7-3.3c0.4-0.9,1-1.7,1.6-2.2c1.2-1.1,2.2-1.1,2.5-0.8c0.3,0.4-0.2,1.1-0.6,2.2c-0.2,0.5-0.4,1.1-0.6,1.8
				c-0.1,0.7-0.3,1.5-0.3,2.3c0,0.8,0.1,1.6,0.2,2.3c0.2,0.7,0.3,1.3,0.6,1.8C801.6,574.3,802,575.1,801.8,575.5z"/>
		</g>
	</g>
</g>
<g>
	<g>
		<g>
			<path class="st2" d="M777.3,593.2c-0.4-0.2-0.1-2,1.2-4.7c0.6-1.3,1.5-2.8,2.7-4.4c1.2-1.6,2.6-3.2,4.2-4.8
				c1.7-1.5,3.4-2.8,5-3.9c1.7-1,3.2-1.8,4.6-2.4c2.7-1.1,4.6-1.3,4.7-0.9c0.3,0.9-6,3.7-12.1,9.5
				C781.4,587.4,778.2,593.6,777.3,593.2z"/>
		</g>
	</g>
</g>
<g>
	<g>
		<g>
			<path class="st2" d="M837.4,582.3c0.1,0.4-2.8,1.7-7.7,3.5c-4.9,1.7-11.7,3.9-19.4,5.8c-7.7,1.9-14.8,3.1-20,3.6
				c-5.2,0.5-8.4,0.4-8.5-0.1c0-0.5,3.1-1.2,8.1-2.2c5-1.1,12-2.6,19.6-4.5c7.6-1.9,14.5-3.7,19.6-4.9
				C834.1,582.4,837.3,581.9,837.4,582.3z"/>
		</g>
	</g>
</g>
<g>
	<g>
		<g>
			<path class="st2" d="M912.8,622.2c0.1,0.1-0.5,1.3-2.4,2.7c-1.9,1.4-5,3.1-9.3,3.6c-4.2,0.6-9.4-0.1-14.6-2.1
				c-2.6-1-5.2-2.2-7.8-3.6c-2.6-1.4-5.2-2.9-7.9-4.6c-10.6-6.7-19.2-14.1-24.9-20.1c-2.8-3-4.8-5.8-5.8-7.9c-1-2.1-1.3-3.4-1.1-3.5
				c0.2-0.1,0.8,1,2.2,2.8c1.3,1.8,3.4,4.2,6.3,6.9c5.9,5.4,14.6,12.4,25,18.9c5.2,3.2,10.3,6.2,15.1,8.2c4.8,2,9.4,2.9,13.3,2.6
				c3.9-0.2,6.9-1.4,8.8-2.4C911.6,622.9,912.6,622.1,912.8,622.2z"/>
		</g>
	</g>
</g>
<g>
	<g>
		<g>
			<path class="st2" d="M958.3,575.3c0.5,0.9-13.2,9-26.7,23c-13.6,13.9-21.3,27.8-22.2,27.3c-0.4-0.2,1.1-3.9,4.4-9.5
				c0.8-1.4,1.8-2.9,2.8-4.5c1-1.6,2.3-3.2,3.5-5c2.6-3.4,5.7-7,9.1-10.6c3.5-3.5,7-6.7,10.3-9.4c1.7-1.3,3.3-2.6,4.9-3.7
				c1.5-1.1,3-2.1,4.4-3C954.4,576.5,958.1,575,958.3,575.3z"/>
		</g>
	</g>
</g>
<g>
	<g>
		<g>
			<path class="st2" d="M947.1,564.5c-0.4-0.2-0.2-1.3,0.2-2.6c0.2-0.7,0.4-1.5,0.5-2.3c0.1-0.4,0.1-0.8,0-1.2l0-0.3
				c0-0.1,0-0.2,0-0.2c0-0.2-0.1-0.3-0.2-0.5c-0.3-0.7-0.8-1.3-1.3-1.6c-0.2-0.2-0.5-0.3-0.7-0.3c-0.1,0-0.2,0-0.3,0
				c-0.1,0-0.1,0-0.2,0c-0.1,0-0.2,0-0.3,0.1c-0.4,0.1-0.8,0.2-1.2,0.2c-0.2,0-0.4,0-0.6,0c-0.2,0-0.4-0.1-0.5-0.2
				c-0.5-0.3-0.4-0.9-0.3-1.1c0.1-0.2,0.1,0,0.5-0.2c0.2-0.1,0.6-0.4,1.2-0.8c0.1-0.1,0.1-0.1,0.2-0.2c0.1-0.1,0.3-0.1,0.4-0.2
				c0.3-0.1,0.6-0.2,0.9-0.2c0.7-0.1,1.4,0,2.1,0.3c1.3,0.5,2.4,1.6,3,3.1c0.2,0.4,0.3,0.7,0.3,1.1l0.1,0.6l0,0.5
				c0,0.7-0.1,1.3-0.3,1.9c-0.4,1.1-0.9,2-1.4,2.7C948.3,564.2,947.4,564.7,947.1,564.5z"/>
		</g>
	</g>
</g>
<g>
	<g>
		<g>
			<path class="st2" d="M956,578.3c-0.3-0.4,0.4-1.3,1-2.9c0.6-1.5,1.1-3.8,0.5-6c-0.6-2.2-2.1-4-3.4-5c-1.3-1.1-2.3-1.6-2.3-2
				c0-0.4,1.4-0.7,3.4,0c1,0.4,2.1,1.1,3.1,2.1c1,1,1.9,2.4,2.3,4.1c0.4,1.7,0.3,3.3,0,4.7c-0.4,1.4-1,2.5-1.7,3.4
				C957.6,578.2,956.3,578.6,956,578.3z"/>
		</g>
	</g>
</g>
<g>
	<g>
		<g>
			<path class="st2" d="M679.2,689.5c-0.2-0.1,0.5-1.9,2-5.2c0.4-0.8,0.8-1.7,1.3-2.7c0.5-1,1.1-2,1.7-3.1c1.2-2.2,2.6-4.8,4.4-7.5
				c0.9-1.4,1.8-2.8,2.7-4.2c1-1.5,2.1-2.9,3.2-4.5c2.1-3.1,4.7-6.2,7.4-9.5c5.5-6.5,11.8-13.3,18.9-20.1
				c14.3-13.4,28.5-24,38.9-31.4c10.4-7.4,17.1-11.6,17.4-11.2c0.3,0.4-5.9,5.2-16,13.1c-10,7.8-23.9,18.7-38,31.9
				c-7,6.7-13.4,13.3-18.9,19.6c-2.7,3.2-5.3,6.2-7.5,9.2c-1.1,1.5-2.3,2.9-3.3,4.3c-1,1.4-1.9,2.8-2.9,4.1c-1.9,2.6-3.4,5-4.7,7.1
				c-0.7,1.1-1.3,2-1.9,3c-0.5,0.9-1,1.8-1.5,2.5C680.5,687.9,679.4,689.6,679.2,689.5z"/>
		</g>
	</g>
</g>
<g>
	<g>
		<g>
			<path class="st2" d="M845.9,779.8c-0.1,0-0.4-0.6-1-1.8c-0.3-0.6-0.6-1.3-0.9-2.2c-0.4-0.8-0.9-1.8-1.4-2.9
				c-2.2-4.3-5.8-10.4-11.8-16.6c-5.9-6.3-14-12.8-23.8-18.8c-4.9-3-10.1-5.9-15.7-8.8c-5.6-2.9-11.4-5.7-17.5-8.5
				c-12.1-5.4-23.9-10-34.9-13.7c-10.9-3.7-20.9-6.5-29.4-8.7c-8.4-2.2-15.4-3.6-20.1-4.7c-4.8-1-7.4-1.6-7.4-1.9
				c0-0.2,2.7,0,7.6,0.6c4.9,0.7,11.9,1.8,20.5,3.7c8.6,1.9,18.7,4.5,29.8,8.1c11.1,3.6,23,8.1,35.3,13.6c6.1,2.8,12,5.6,17.6,8.6
				c5.6,2.9,10.9,5.9,15.9,9.1c9.9,6.2,18,13.1,23.9,19.8c5.9,6.6,9.4,13.1,11.3,17.6c0.4,1.2,0.9,2.2,1.2,3.1
				c0.3,0.9,0.5,1.7,0.6,2.3C845.9,779.1,846,779.8,845.9,779.8z"/>
		</g>
	</g>
</g>
<g>
	<g>
		<g>
			<path class="st2" d="M627.7,793.6c-0.4-0.1,1.3-6.4,4.9-16.1c0.9-2.4,1.9-5.1,3.1-7.9c1.1-2.8,2.5-5.8,3.9-9
				c2.9-6.3,6.2-13.1,10-20.1c3.8-7,7.8-13.5,11.5-19.3c1.9-2.9,3.7-5.6,5.5-8.1c1.7-2.5,3.4-4.8,5-6.9c6.3-8.3,10.6-13.1,10.9-12.9
				c0.4,0.3-3.3,5.6-9.1,14.2c-1.4,2.2-3,4.5-4.6,7.1c-1.7,2.5-3.4,5.3-5.2,8.2c-3.6,5.8-7.4,12.3-11.2,19.2
				c-3.8,6.9-7.2,13.6-10.2,19.8c-1.5,3.1-2.9,6-4.1,8.8c-1.3,2.8-2.4,5.4-3.5,7.7C630.6,787.8,628.2,793.7,627.7,793.6z"/>
		</g>
	</g>
</g>
<g>
	<g>
		<g>
			<path class="st2" d="M664,831.9c-0.2-0.1,0.3-1.6,1.4-4.3c0.3-0.7,0.6-1.4,0.9-2.2c0.4-0.8,0.8-1.7,1.3-2.6
				c0.9-1.8,1.9-4,3.2-6.2c0.6-1.1,1.3-2.3,2-3.5c0.7-1.2,1.5-2.4,2.3-3.7c1.6-2.6,3.5-5.2,5.5-8.1c4.1-5.5,8.9-11.4,14.4-17.1
				c5.6-5.7,11.3-10.6,16.7-14.9c2.8-2.1,5.3-4,7.9-5.7c1.3-0.8,2.5-1.7,3.7-2.4c1.2-0.7,2.4-1.4,3.5-2.1c2.2-1.4,4.3-2.4,6.1-3.4
				c0.9-0.5,1.8-0.9,2.5-1.3c0.8-0.4,1.5-0.7,2.2-1c2.6-1.2,4.2-1.7,4.3-1.5c0.2,0.5-5.4,3.5-13.9,9.2c-1.1,0.7-2.2,1.5-3.3,2.3
				c-1.1,0.8-2.3,1.7-3.5,2.6c-2.5,1.7-4.9,3.8-7.6,5.8c-5.2,4.3-10.7,9.2-16.2,14.8c-5.4,5.6-10.2,11.3-14.3,16.6
				c-2,2.7-4,5.2-5.6,7.8c-0.8,1.2-1.7,2.4-2.5,3.6c-0.8,1.2-1.5,2.3-2.2,3.4C667.3,826.4,664.4,832.1,664,831.9z"/>
		</g>
	</g>
</g>
<g>
	<g>
		<g>
			<path class="st2" d="M537.3,968.6c-0.2,0-0.1-2.8,0.2-7.7c0.1-1.2,0.2-2.6,0.3-4.1c0.2-1.5,0.4-3.1,0.6-4.9
				c0.5-3.5,0.9-7.5,1.8-11.8c0.4-2.2,0.8-4.5,1.3-6.9c0.5-2.4,1.1-4.8,1.7-7.4c1.1-5.1,2.7-10.5,4.3-16.1
				c3.5-11.2,8-23.4,13.6-35.7c5.8-12.3,12.2-23.5,18.5-33.4c3.3-4.9,6.3-9.5,9.5-13.7c1.6-2.1,3-4.1,4.5-6c1.5-1.9,3-3.7,4.4-5.4
				c2.8-3.5,5.5-6.4,7.9-9c1.2-1.3,2.3-2.5,3.3-3.6c1.1-1.1,2.1-2,2.9-2.9c3.6-3.5,5.6-5.3,5.8-5.1c0.2,0.2-1.6,2.3-4.8,6
				c-0.8,0.9-1.7,1.9-2.7,3.1c-1,1.2-2,2.4-3.1,3.8c-2.2,2.7-4.8,5.7-7.5,9.2c-1.3,1.7-2.7,3.6-4.2,5.5c-1.5,1.9-2.8,4-4.4,6.1
				c-3.1,4.2-6,8.8-9.2,13.7c-6.1,9.9-12.4,21-18.1,33.2c-5.6,12.2-10.1,24.2-13.7,35.2c-1.7,5.6-3.4,10.8-4.6,15.9
				c-0.6,2.5-1.3,4.9-1.8,7.3c-0.5,2.3-1,4.6-1.5,6.8c-1,4.3-1.6,8.2-2.3,11.7c-0.3,1.7-0.6,3.3-0.9,4.8c-0.2,1.5-0.4,2.8-0.6,4.1
				C538.1,965.9,537.5,968.6,537.3,968.6z"/>
		</g>
	</g>
</g>
<g>
	<g>
		<g>
			<path class="st2" d="M578.5,979c-0.2,0-0.4-2.3,0.1-6.5c0.6-4.2,2.1-10.1,5.3-16.9c6.4-13.6,18.3-30.4,31.9-48.5
				c6.7-9.1,13.1-17.7,18.5-25.8c5.4-8.1,9.8-15.7,13.1-22.2c6.6-13.2,8.9-22.1,9.4-21.9c0.2,0.1-0.2,2.3-1.3,6.4
				c-0.1,0.5-0.3,1-0.4,1.6c-0.2,0.5-0.4,1.1-0.6,1.7c-0.4,1.2-0.8,2.5-1.3,3.9c-0.4,1.4-1.1,2.9-1.7,4.4c-0.7,1.5-1.3,3.2-2.1,4.9
				c-3.1,6.8-7.4,14.6-12.7,22.9c-5.3,8.3-11.6,17.1-18.4,26.1c-6.8,9.1-13.2,17.7-18.8,25.7c-5.6,8-10.3,15.4-13.7,21.9
				c-3.4,6.5-5.2,12.1-6.2,16.1C579,976.7,578.8,979,578.5,979z"/>
		</g>
	</g>
</g>
<g>
	<g>
		<g>
			<path class="st2" d="M509.2,1108.8c0,0.1-0.6-0.1-1.4-0.7c-0.8-0.6-1.8-1.8-2.6-3.5c-0.8-1.7-1.4-4-1.9-6.5
				c-0.2-1.3-0.5-2.7-0.7-4.1c-0.2-1.5-0.6-3-0.7-4.6c-0.4-3.3-0.9-6.8-1-10.7c-0.1-1-0.1-1.9-0.2-2.9c0-0.5-0.1-1-0.1-1.5
				c0-0.5,0-1,0-1.5c0-2.1,0-4.2,0-6.4c0.2-8.7,1.2-18.3,3.2-28.1c2-9.9,4.7-19.1,8-27.1c3.2-8.1,6.7-15.2,10-20.8
				c0.8-1.4,1.6-2.8,2.4-4c0.8-1.2,1.6-2.4,2.3-3.5c0.7-1.1,1.4-2.1,2-3c0.6-0.9,1.3-1.7,1.8-2.4c2.3-2.9,3.6-4.4,3.8-4.3
				c0.5,0.3-4.3,6.9-10.3,18.4c-3.1,5.7-6.2,12.8-9.2,20.8c-3,8-5.7,17.1-7.6,26.7c-1.9,9.7-3,19-3.4,27.6c0,2.1-0.1,4.2-0.1,6.2
				c0,0.5,0,1,0,1.5c0,0.5,0,1,0,1.5c0,1,0.1,1.9,0.1,2.9c0,3.8,0.4,7.3,0.6,10.6c0.1,1.6,0.3,3.1,0.5,4.6c0.2,1.5,0.3,2.8,0.5,4.1
				c0.3,2.6,0.7,4.7,1.3,6.3C507.5,1107.5,509.4,1108.6,509.2,1108.8z"/>
		</g>
	</g>
</g>
<g>
	<g>
		<g>
			<path class="st2" d="M522.7,1105.4c-0.1-0.2,1.6-1.2,4.1-3.6c1.3-1.2,2.7-2.7,4.3-4.6c1.5-1.9,3.2-4.2,4.9-6.8
				c3.4-5.3,7.5-11.6,12.1-18.5c4.5-7,9.3-14.7,13.9-23.1c4.6-8.4,8.4-16.6,11.2-24.4c2.9-7.7,4.8-14.9,6-21.1
				c1.2-6.1,1.7-11.2,2-14.7c0.1-1.8,0.2-3.1,0.3-4c0.1-0.9,0.2-1.4,0.3-1.4c0.1,0,0.2,0.5,0.4,1.4c0.1,0.9,0.3,2.3,0.3,4.1
				c0.1,3.6,0,8.7-1,15c-0.9,6.3-2.7,13.7-5.4,21.7c-2.8,8-6.6,16.4-11.2,24.9c-4.6,8.5-9.6,16.3-14.2,23.2
				c-4.7,6.9-9,13.1-12.7,18.2c-1.9,2.6-3.7,4.8-5.4,6.7c-1.7,1.9-3.4,3.3-4.9,4.4C524.7,1105,522.7,1105.6,522.7,1105.4z"/>
		</g>
	</g>
</g>
<g>
	<g>
		<g>
			<path class="st2" d="M528.5,1066.9c-0.2,0.1-1.2-0.7-2.4-2.7c-1.2-2-2.4-5.1-3.1-9.1c-1.3-8-2-19-1.3-31.2
				c0.7-12.2,2.8-23.1,4.8-30.8c2.1-7.7,4-12.3,4.4-12.2c0.5,0.1-0.7,4.9-2.1,12.7c-1.4,7.8-3.2,18.5-3.8,30.5
				c-0.7,12-0.4,22.9,0.3,30.7c0.4,3.9,1.2,6.9,2,8.9C528.1,1065.7,528.7,1066.8,528.5,1066.9z"/>
		</g>
	</g>
</g>
<g>
	<g>
		<g>
			<path class="st2" d="M526.9,1055.2c-0.1-0.2,0.9-1.1,2.7-2.7c1.8-1.6,4.3-3.9,7-7.2c2.7-3.3,5.7-7.4,8.6-12.2
				c2.9-4.8,5.9-10.3,9-16.1c6.3-11.6,12.2-21.9,16.6-29.4c4.4-7.4,7.3-11.9,7.7-11.7c0.4,0.2-1.8,5.1-5.7,12.8
				c-3.9,7.7-9.4,18.3-15.7,29.8c-3.2,5.8-6.2,11.3-9.3,16.1c-3.1,4.9-6.4,9-9.4,12.1c-3,3.2-5.9,5.4-8,6.7c-1,0.7-1.9,1.1-2.5,1.4
				C527.3,1055.2,527,1055.3,526.9,1055.2z"/>
		</g>
	</g>
</g>
<g>
	<g>
		<g>
			<path class="st2" d="M727.8,803.4c-0.2,0-0.5-1.3-0.8-3.8c-0.2-2.5-0.3-6,0.2-10.4c0.5-4.4,1.6-9.6,3.5-15.1
				c1.9-5.5,4.5-11.4,7.7-17.3c3.2-5.9,6.7-11.2,9.9-16c3.2-4.8,6.2-9,8.7-12.5c5-7.1,8.1-11.5,8.5-11.2c0.4,0.2-2,5.1-6.6,12.5
				c-2.3,3.7-5.1,8.1-8.1,12.9c-3.1,4.8-6.4,10.2-9.5,15.9c-3.1,5.8-5.8,11.4-7.7,16.7c-2,5.3-3.3,10.2-4,14.5
				C728,798,728.4,803.4,727.8,803.4z"/>
		</g>
	</g>
</g>
<g>
	<g>
		<g>
			<path class="st2" d="M778.1,832.6c-0.3-0.2,2.2-4.3,7-10.3c1.2-1.5,2.6-3.1,4.1-4.8c1.5-1.7,3.2-3.5,4.9-5.3
				c3.6-3.6,7.7-7.5,12.2-11.3c4.5-3.8,9-7.2,13.2-10.1c2.1-1.4,4.1-2.8,6.1-4c1.9-1.2,3.7-2.3,5.4-3.2c6.7-3.8,11.2-5.5,11.4-5.2
				c0.5,0.9-16.3,9.9-34,24.9C790.6,818.3,778.9,833.2,778.1,832.6z"/>
		</g>
	</g>
</g>
<g>
	<g>
		<g>
			<path class="st2" d="M823.7,1009.8c-0.2,0.1-1.3-2.5-3.2-7.1c-0.5-1.2-0.9-2.5-1.4-3.9c-0.5-1.4-1-3-1.6-4.7
				c-0.6-1.7-1.1-3.5-1.6-5.5c-0.5-1.9-1.2-4-1.7-6.2c-2.2-8.7-4.2-19.2-5.9-30.9c-1.6-11.7-2.8-24.7-3.7-38.3
				c-0.9-13.6-1.4-26.5-2-38.3c-0.6-11.8-1-22.4-2.5-31c-1.5-8.7-4-15.4-6.5-19.7c-2.4-4.3-4.3-6.3-4.1-6.5c0.1-0.1,0.6,0.4,1.5,1.3
				c0.5,0.5,1,1.1,1.6,1.8c0.3,0.4,0.6,0.8,1,1.2c0.3,0.5,0.7,1,1,1.5c2.9,4.2,5.9,11,7.7,19.9c1.9,8.9,2.5,19.5,3.3,31.3
				c0.7,11.8,1.5,24.7,2.3,38.3c0.9,13.6,2,26.4,3.5,38.1c1.5,11.7,3.3,22.1,5.2,30.7C820.4,999.3,824.3,1009.6,823.7,1009.8z"/>
		</g>
	</g>
</g>
<g>
	<g>
		<g>
			<path class="st2" d="M793,1016.9c-0.2,0.1-1.6-2.4-4-7.1c-0.6-1.2-1.3-2.5-2-3.9c-0.7-1.4-1.4-3-2.3-4.7
				c-1.6-3.4-3.5-7.2-5.4-11.5c-1-2.1-2-4.4-3-6.7c-1-2.3-2.1-4.8-3.1-7.4c-2.2-5.1-4.4-10.6-6.7-16.4c-4.5-11.6-9.2-24.5-13.7-38.1
				c-4.4-13.7-8.3-26.8-11.5-38.8c-1.6-6-3.1-11.7-4.3-17.1c-0.6-2.7-1.3-5.3-1.8-7.8c-0.5-2.5-1.1-4.9-1.6-7.2
				c-1-4.6-1.8-8.8-2.5-12.5c-0.3-1.8-0.7-3.5-1-5.1c-0.3-1.6-0.5-3-0.7-4.3c-0.8-5.2-1.2-8.1-1-8.1c0.2,0,1,2.8,2.2,7.9
				c0.3,1.3,0.6,2.7,1,4.3c0.4,1.6,0.8,3.2,1.2,5.1c0.9,3.6,1.8,7.8,3,12.3c0.6,2.3,1.1,4.7,1.8,7.2c0.6,2.5,1.3,5.1,2,7.7
				c1.3,5.3,2.9,11,4.6,17c3.4,11.9,7.3,25,11.7,38.6c4.5,13.6,9.1,26.4,13.4,38c2.2,5.8,4.3,11.3,6.4,16.4c1,2.6,2,5,3,7.4
				c1,2.4,1.9,4.6,2.8,6.8c1.8,4.4,3.5,8.2,4.9,11.7c0.7,1.7,1.4,3.3,2,4.8c0.6,1.5,1.2,2.8,1.7,4
				C792.2,1014.1,793.2,1016.8,793,1016.9z"/>
		</g>
	</g>
</g>
<g>
	<g>
		<g>
			<path class="st2" d="M753.5,1107.9c-0.4-0.1,0.3-5.4,2.3-13.7c1-4.2,2.3-9.1,4-14.5c1.7-5.4,3.7-11.3,6-17.4
				c2.4-6.1,4.8-11.8,7.2-17c2.4-5.1,4.7-9.7,6.8-13.4c4.1-7.5,7.1-11.9,7.5-11.7c0.9,0.5-9.2,19-18.5,43.2
				C759.4,1087.7,754.5,1108.2,753.5,1107.9z"/>
		</g>
	</g>
</g>
<g>
	<g>
		<g>
			<path class="st2" d="M836,1054.6c-0.4,0.1-1.2-2.3-2.2-6.2c-1-3.9-2.1-9.3-3.7-15.1c-0.8-2.9-1.6-5.7-2.4-8.1
				c-0.8-2.5-1.6-4.7-2.4-6.5c-1.5-3.7-2.5-5.9-2.1-6.2c0.3-0.2,2.1,1.6,4.2,5.2c1,1.8,2.1,4,3.1,6.5c1,2.5,1.9,5.3,2.7,8.3
				c1.6,6,2.4,11.6,2.8,15.6C836.4,1052,836.4,1054.5,836,1054.6z"/>
		</g>
	</g>
</g>
<g>
	<g>
		<g>
			<path class="st2" d="M766.2,1100.7c-0.1-0.2,1-1.1,3.1-2.7c0.5-0.4,1.1-0.8,1.8-1.3c0.6-0.5,1.3-1,2-1.6c1.5-1.1,3.2-2.4,4.9-3.9
				c0.9-0.7,1.8-1.5,2.8-2.3c1-0.8,1.9-1.7,2.9-2.7c2-1.8,4-3.9,6.2-6.1c4.2-4.5,8.5-9.6,12.6-15.4c4-5.8,7.3-11.7,10.1-17.2
				c1.3-2.8,2.6-5.4,3.6-7.9c0.5-1.3,1.1-2.5,1.5-3.7c0.4-1.2,0.8-2.3,1.2-3.4c0.8-2.2,1.4-4.2,2-6c0.3-0.9,0.5-1.7,0.8-2.5
				c0.2-0.8,0.4-1.5,0.6-2.1c0.7-2.5,1.2-3.9,1.4-3.9c0.2,0,0.1,1.5-0.2,4.1c-0.1,0.7-0.2,1.4-0.3,2.2c-0.1,0.8-0.3,1.6-0.5,2.6
				c-0.4,1.8-0.8,3.9-1.5,6.2c-0.3,1.1-0.7,2.3-1,3.6c-0.4,1.2-0.9,2.5-1.3,3.8c-0.9,2.6-2.1,5.4-3.4,8.2c-2.7,5.7-6,11.8-10.1,17.7
				c-4.2,5.9-8.7,11.2-13.1,15.7c-2.3,2.2-4.4,4.3-6.6,6c-1.1,0.9-2.1,1.8-3.1,2.6c-1,0.8-2,1.5-3,2.2c-1.9,1.5-3.7,2.6-5.3,3.6
				c-0.8,0.5-1.5,1-2.2,1.4c-0.7,0.4-1.4,0.7-1.9,1C767.7,1100.3,766.3,1100.9,766.2,1100.7z"/>
		</g>
	</g>
</g>
<g>
	<g>
		<g>
			<path class="st2" d="M750.5,1138.2c-0.9,0.1-2.4-7.9-1.7-17.8c0.3-4.9,1.1-9.4,1.9-12.5c0.2-0.8,0.4-1.5,0.6-2.1
				c0.1-0.3,0.2-0.7,0.4-1c0.2-0.3,0.5-0.5,0.8-0.7c0.6-0.2,1,0.1,1.1,0.4c0.1,0.3,0,0.6,0.2,0.7c0,0,0.2,0,0.1-0.2
				c0-0.1-0.3-0.3-0.5-0.1c-0.1,0.1-0.2,0.3-0.2,0.4c0,0.2,0,0.4,0,0.7c0,0.6-0.1,1.4-0.1,2.2c-0.2,3.2-0.6,7.5-0.9,12.4
				C751.4,1130.3,751.4,1138.2,750.5,1138.2z"/>
		</g>
	</g>
</g>
<g>
	<g>
		<g>
			<path class="st2" d="M836.8,1055.3c0.4,0.1-1.5,6.8-7.5,15.9c-3,4.6-6.9,9.8-11.5,15.3c-4.6,5.5-9.6,11.5-15.3,17.6
				c-5.7,6.1-11.8,11.3-17.7,15.4c-5.9,4.2-11.7,7.3-16.6,9.6c-5,2.3-9.1,3.7-12.1,4.6c-2.9,0.9-4.6,1.1-4.7,0.9
				c-0.1-0.2,1.5-0.9,4.2-2.1c2.8-1.2,6.7-3,11.5-5.5c4.7-2.5,10.2-5.8,15.9-10c5.7-4.2,11.5-9.3,17.1-15.2
				c5.6-5.9,10.7-11.9,15.4-17.3c4.7-5.4,8.7-10.3,11.9-14.6C833.7,1061.3,836.3,1055.1,836.8,1055.3z"/>
		</g>
	</g>
</g>
<g>
	<g>
		<g>
			<path class="st2" d="M964,696.8c-0.2-0.1,0.2-1.8,1-4.7c0.2-0.7,0.5-1.6,0.7-2.5c0.2-0.9,0.5-1.9,0.8-3c0.5-2.1,1.3-4.5,1.8-7.2
				c0.3-1.3,0.6-2.8,0.9-4.2c0.3-1.5,0.5-3,0.8-4.6c0.6-3.2,0.9-6.6,1.4-10.2c0.7-7.2,1-15.2,0.6-23.6c-0.5-8.4-1.6-16.3-3-23.4
				c-0.8-3.5-1.5-6.9-2.4-10c-0.4-1.6-0.8-3.1-1.3-4.5c-0.5-1.4-0.9-2.8-1.3-4.1c-0.8-2.6-1.8-4.9-2.5-7c-0.4-1-0.7-2-1.1-2.9
				c-0.4-0.9-0.7-1.7-1-2.4c-1.2-2.9-1.7-4.5-1.5-4.6s1.1,1.3,2.7,4.1c0.4,0.7,0.8,1.4,1.3,2.3c0.4,0.8,0.9,1.8,1.3,2.8
				c0.9,2,2,4.3,3,6.9c0.5,1.3,1,2.7,1.6,4.1c0.5,1.4,1,3,1.5,4.5c1.1,3.1,1.9,6.6,2.8,10.2c1.6,7.2,2.8,15.3,3.3,23.9
				c0.4,8.6,0,16.7-0.9,24.1c-0.5,3.7-1,7.2-1.7,10.4c-0.3,1.6-0.6,3.2-1,4.7c-0.4,1.5-0.8,2.9-1.1,4.2c-0.7,2.7-1.6,5.1-2.3,7.2
				c-0.4,1-0.7,2-1,2.9c-0.4,0.9-0.7,1.7-1,2.4C965,695.4,964.2,696.9,964,696.8z"/>
		</g>
	</g>
</g>
<g>
	<g>
		<g>
			<path class="st2" d="M969.5,691.1c0.2,0.1-0.8,2-2.9,5.3c-2.1,3.3-5.3,7.8-9.8,13.1c-4.5,5.3-10.3,11.2-17.2,17.2
				c-6.9,6-15,12-23.9,17.8c-17.8,11.4-35.1,19.6-47.7,25.2c-6.3,2.8-11.4,5-15,6.4c-3.6,1.4-5.6,2.1-5.7,1.9
				c-0.2-0.4,7.4-4.3,19.7-10.4c12.3-6.2,29.3-14.6,46.9-25.9c8.8-5.7,16.8-11.5,23.7-17.3c6.9-5.8,12.8-11.4,17.5-16.4
				C964.4,698,969.1,690.8,969.5,691.1z"/>
		</g>
	</g>
</g>
<g>
	<g>
		<g>
			<path class="st2" d="M939.6,570.8c0.3,0.2-1.2,3.1-4.6,7.2c-3.3,4-8.7,9.1-15.5,13.4c-6.8,4.3-13.6,7-18.7,8.3
				c-0.6,0.2-1.2,0.3-1.8,0.5c-0.3,0.1-0.6,0.1-0.9,0.2c-0.3,0-0.6,0.1-0.9,0.1c-1.2,0-2.2-0.2-2.9-0.6c-0.8-0.4-1.2-1.2-1.2-1.6
				c0-0.5,0.1-0.7,0.2-0.7c0.2-0.1,0.3,0.9,1.5,1.1c0.6,0.1,1.4,0.1,2.3,0c0.2,0,0.4-0.1,0.7-0.2c0.2-0.1,0.4-0.2,0.7-0.3
				c0.5-0.2,1.1-0.4,1.7-0.7c4.8-1.8,11.2-4.7,17.7-8.9c6.5-4.2,11.9-8.7,15.6-12.2C937.1,572.9,939.3,570.5,939.6,570.8z"/>
		</g>
	</g>
</g>
<g>
	<g>
		<g>
			<path class="st2" d="M838.9,203.8c0.2,0.1,0,1.4-1.2,3.5c-1.1,2.1-3.3,4.8-6.6,7.5c-1.6,1.4-3.4,2.7-5.4,4.1
				c-2,1.4-4.1,2.9-6.5,4.4c-4.7,2.9-10.3,5.8-16.8,7c-3.2,0.6-6.5,0.8-9.6,0.5c-1.6-0.2-3.1-0.5-4.5-0.9c-1.5-0.4-3.1-1.1-4.3-2.6
				c-1.1-1.5-1.3-2.9-1.8-3.8c-0.5-0.9-1.2-1.6-2.1-2.1c-1.7-1-3.7-1-5.3-0.3c-1.6,0.8-2.7,2.1-3.2,3.4c-0.5,1.3-0.4,2.6-0.1,3.6
				c0.3,1,0.8,1.6,1.2,2c0.4,0.4,0.7,0.6,0.7,0.7c0,0.1-0.4,0.1-1-0.1c-0.6-0.3-1.5-0.9-2.1-2.1c-0.6-1.1-1-2.8-0.5-4.6
				c0.5-1.8,1.7-3.7,3.8-4.9c1-0.6,2.3-1,3.7-1c1.3,0,2.7,0.3,4,0.9c1.3,0.6,2.4,1.7,3.3,3c0.8,1.4,1.1,2.7,1.7,3.3
				c1.1,1.3,4.2,1.9,6.9,2.2c2.8,0.3,5.7,0.1,8.7-0.5c5.9-1.1,11.2-3.7,15.8-6.4c2.3-1.3,4.5-2.7,6.5-4c2-1.3,3.9-2.5,5.5-3.7
				c3.3-2.4,5.6-4.7,6.9-6.4C838,204.8,838.7,203.7,838.9,203.8z"/>
		</g>
	</g>
</g>
<g>
	<g>
		<g>
			<path class="st2" d="M781.8,228.3c0.3,0.3,0.1,1-0.4,2c-0.6,0.9-1.7,2.1-3.6,2.7c-1.9,0.6-3.9,0-4.8-0.9c-0.5-0.5-0.8-1-0.8-1.4
				c-0.1-0.4,0.1-0.6,0.2-0.8c0.4-0.2,1,0,1.7,0.1c0.7,0.1,1.7,0.1,2.7-0.2c1.1-0.3,2.1-0.9,3-1.3
				C780.8,228.1,781.5,228,781.8,228.3z"/>
		</g>
	</g>
</g>
<g>
	<g>
		<g>
			<path class="st2" d="M838.9,196.1c-0.4,0.1-1.6-2.1-2.7-6.1c-0.6-2-1-4.4-1.4-7.1c-0.3-2.7-0.5-5.7-0.5-8.9
				c0.1-3.1,0.4-6.1,0.9-8.8c0.5-2.7,1.1-5.1,1.7-7c1.3-3.9,2.6-6.1,3-6c0.9,0.3-2.1,9.8-2.3,21.9
				C837.3,186.2,839.8,195.8,838.9,196.1z"/>
		</g>
	</g>
</g>
<g>
	<g>
		<g>
			<path class="st2" d="M340.6,612.3c0.1,0.1-0.5,0.6-1.6,1.6c-0.6,0.5-1.3,1.1-2.1,1.8c-0.4,0.3-0.9,0.7-1.4,1.1
				c-0.5,0.4-1,0.8-1.6,1.2c-1.1,0.8-2.4,1.8-3.8,2.8c-1.4,1-3,2-4.7,3.1c-1.7,1.1-3.6,2.1-5.5,3.3c-1.9,1.2-4.1,2.2-6.4,3.4
				c-0.6,0.3-1.1,0.6-1.7,0.9c-0.6,0.3-1.2,0.5-1.8,0.8c-1.2,0.5-2.4,1.1-3.7,1.7c-1.2,0.6-2.6,1.1-3.9,1.6
				c-1.3,0.5-2.7,1.1-4.1,1.6c-1.4,0.5-2.8,1-4.3,1.5c-0.7,0.2-1.5,0.5-2.2,0.7c-0.7,0.2-1.5,0.4-2.3,0.7c-1.5,0.4-3.1,0.9-4.6,1.3
				c-1.6,0.4-3.2,0.8-4.8,1.2c-1.6,0.4-3.3,0.7-5,1.1c-1.7,0.3-3.4,0.7-5.1,0.9c-1.7,0.3-3.5,0.5-5.3,0.8c-1.8,0.2-3.6,0.4-5.4,0.5
				c-7.3,0.6-14.8,0.8-22.6,0.3c-7.7-0.6-15.2-1.7-22.3-3.3c-1.8-0.4-3.5-0.8-5.3-1.3c-1.7-0.5-3.4-1-5.1-1.5
				c-1.7-0.5-3.3-1.1-4.9-1.6c-1.6-0.6-3.2-1.1-4.8-1.7c-1.6-0.6-3.1-1.2-4.6-1.8c-1.5-0.6-3-1.3-4.4-2c-0.7-0.3-1.4-0.6-2.2-1
				c-0.7-0.3-1.4-0.7-2.1-1c-1.4-0.7-2.7-1.4-4-2c-1.3-0.7-2.6-1.4-3.8-2.1c-1.2-0.7-2.5-1.4-3.6-2.1c-1.2-0.7-2.3-1.5-3.4-2.2
				c-0.6-0.4-1.1-0.7-1.7-1.1c-0.5-0.4-1.1-0.7-1.6-1.1c-2.1-1.5-4.1-2.8-5.8-4.2c-1.8-1.4-3.5-2.7-5-4c-1.5-1.3-2.9-2.5-4.2-3.7
				c-1.2-1.2-2.4-2.3-3.4-3.2c-0.5-0.5-1-1-1.4-1.4c-0.4-0.5-0.8-0.9-1.2-1.3c-0.7-0.8-1.3-1.5-1.8-2c-1-1.1-1.4-1.7-1.4-1.8
				s0.7,0.4,1.8,1.4c0.6,0.5,1.2,1.1,2,1.8c0.4,0.4,0.8,0.8,1.3,1.2c0.5,0.4,1,0.8,1.5,1.3c1.1,0.9,2.2,1.9,3.5,3
				c1.3,1.1,2.8,2.2,4.3,3.4c1.5,1.3,3.3,2.4,5.1,3.8c1.8,1.3,3.8,2.6,5.9,4c0.5,0.3,1,0.7,1.6,1c0.5,0.3,1.1,0.7,1.7,1
				c1.1,0.7,2.3,1.3,3.4,2c1.2,0.7,2.4,1.3,3.6,2c1.2,0.7,2.5,1.4,3.8,2c1.3,0.6,2.7,1.3,4,1.9c0.7,0.3,1.4,0.7,2.1,1
				c0.7,0.3,1.4,0.6,2.1,0.9c1.4,0.6,2.9,1.3,4.4,1.9c1.5,0.6,3,1.1,4.5,1.7c1.5,0.6,3.1,1.1,4.7,1.6c1.6,0.5,3.2,1.1,4.9,1.5
				c1.7,0.5,3.3,0.9,5,1.4c1.7,0.4,3.4,0.8,5.2,1.2c7,1.5,14.3,2.6,21.8,3.2c7.6,0.5,15,0.4,22.1-0.2c1.8-0.2,3.5-0.3,5.3-0.5
				c1.7-0.2,3.5-0.5,5.2-0.7c1.7-0.2,3.4-0.6,5-0.9c1.6-0.3,3.3-0.6,4.9-1c1.6-0.4,3.2-0.7,4.7-1.1c1.6-0.4,3.1-0.8,4.6-1.3
				c0.7-0.2,1.5-0.4,2.2-0.6c0.7-0.2,1.5-0.5,2.2-0.7c1.4-0.5,2.8-0.9,4.2-1.4c1.4-0.5,2.7-1,4-1.5c1.3-0.5,2.6-0.9,3.9-1.5
				c1.2-0.5,2.5-1.1,3.7-1.6c0.6-0.3,1.2-0.5,1.8-0.8c0.6-0.3,1.1-0.5,1.7-0.8c2.2-1.1,4.4-2.1,6.4-3.1c2-1.1,3.9-2,5.6-3
				c1.7-1,3.3-1.9,4.8-2.8c1.4-0.9,2.7-1.8,3.9-2.5c0.6-0.4,1.1-0.7,1.7-1.1c0.5-0.4,1-0.7,1.4-1c0.9-0.6,1.7-1.1,2.3-1.5
				C339.8,612.6,340.5,612.2,340.6,612.3z"/>
		</g>
	</g>
</g>
<g>
	<g>
		<g>
			
				<ellipse transform="matrix(0.8961 0.4438 -0.4438 0.8961 355.3452 -151.8195)" class="st2" cx="502" cy="683.1" rx="159.9" ry="1.6"/>
		</g>
	</g>
</g>
<g>
	<g>
		<g>
			
				<ellipse transform="matrix(0.8855 0.4646 -0.4646 0.8855 368.5503 -129.7347)" class="st2" cx="447.5" cy="683" rx="103.4" ry="1.6"/>
		</g>
	</g>
</g>
<g>
	<g>
		<g>
			<path class="st2" d="M597.5,785.7c-0.2,0.4-7.9-3.8-20.2-10.7c-12.3-6.9-29.3-16.4-48.2-26.7c-18.9-10.3-36.1-19.5-48.6-26.1
				c-12.5-6.6-20.1-10.8-19.9-11.2c0.1-0.2,2.2,0.6,5.8,2.2c3.6,1.6,8.8,4,15.2,7c12.7,6.1,30.1,15,49.1,25.3
				c18.9,10.3,35.8,20.2,47.8,27.6c6,3.7,10.8,6.8,14.1,9C595.9,784.2,597.6,785.5,597.5,785.7z"/>
		</g>
	</g>
</g>
<g>
	<g>
		<g>
			
				<ellipse transform="matrix(0.8911 0.4537 -0.4537 0.8911 345.1986 -158.7061)" class="st2" cx="503.3" cy="640" rx="161.6" ry="1.6"/>
		</g>
	</g>
</g>
<g>
	<g>
		<g>
			<path class="st2" d="M128.7,589.6c-0.2,0.1-1-1.5-2.3-4.5c-0.3-0.7-0.7-1.6-1.1-2.5c-0.4-0.9-0.7-1.9-1.1-3
				c-0.8-2.2-1.7-4.6-2.5-7.4c-0.4-1.4-0.8-2.9-1.3-4.4c-0.4-1.5-0.8-3.1-1.2-4.8c-0.9-3.3-1.5-6.9-2.3-10.7
				c-1.3-7.6-2.4-16-2.8-24.9c-0.3-8.9,0-17.4,0.7-25c0.4-3.8,0.8-7.5,1.4-10.8c0.3-1.7,0.5-3.3,0.8-4.9c0.3-1.6,0.6-3,0.9-4.5
				c0.6-2.9,1.3-5.4,1.9-7.6c0.3-1.1,0.6-2.2,0.9-3.1c0.3-0.9,0.6-1.8,0.9-2.6c1-3.1,1.7-4.7,1.9-4.7c0.2,0.1,0,1.8-0.7,5
				c-0.2,0.8-0.4,1.7-0.6,2.6c-0.2,1-0.4,2-0.6,3.1c-0.4,2.3-1,4.8-1.4,7.6c-0.2,1.4-0.5,2.9-0.7,4.5c-0.2,1.5-0.4,3.2-0.6,4.8
				c-0.5,3.3-0.7,6.9-1.1,10.7c-0.5,7.6-0.7,15.9-0.4,24.6c0.4,8.7,1.3,17,2.5,24.5c0.7,3.7,1.2,7.3,2,10.6c0.4,1.6,0.7,3.3,1,4.8
				c0.4,1.5,0.7,3,1.1,4.4c0.6,2.8,1.4,5.3,2,7.5c0.3,1.1,0.6,2.1,0.8,3.1c0.3,0.9,0.5,1.8,0.8,2.6
				C128.5,587.8,128.9,589.6,128.7,589.6z"/>
		</g>
	</g>
</g>
<g>
	<g>
		<g>
			<path class="st2" d="M344.5,559.2c0.1,0.1-0.8,0.7-2.4,1.7c-1.6,1-4,2.4-7.1,4.2c-6.3,3.5-15.5,8.3-27.4,13.2
				c-11.9,4.8-26.5,9.8-43.3,12.8c-8.4,1.5-17.3,2.5-26.6,2.6c-9.3,0.1-18.9-0.6-28.7-2.2c-9.7-1.7-19-4.5-27.6-8
				c-8.6-3.5-16.5-8-23.4-13.1c-13.9-10.2-23.7-22.5-29.9-33.8c-3.1-5.7-5.4-11.1-7-16c-0.5-1.2-0.7-2.4-1.1-3.6
				c-0.3-1.2-0.6-2.2-0.9-3.3c-0.4-2.2-0.9-4.1-1.2-5.9c-0.2-1.8-0.4-3.4-0.6-4.8c-0.2-1.4-0.1-2.6-0.2-3.5c-0.1-1.9,0-2.9,0.1-2.9
				c0.1,0,0.3,1,0.6,2.8c0.2,0.9,0.2,2.1,0.5,3.4c0.3,1.3,0.5,2.9,0.9,4.6c0.4,1.7,0.9,3.6,1.4,5.7c0.3,1,0.7,2.1,1,3.2
				c0.4,1.1,0.7,2.3,1.2,3.5c1.7,4.7,4.1,9.9,7.2,15.4c6.3,10.9,16.1,22.8,29.7,32.5c6.8,4.8,14.5,9.2,22.9,12.6
				c8.4,3.4,17.5,6.1,27,7.8c9.5,1.7,18.9,2.3,28.1,2.3c9.1-0.1,17.9-1,26.2-2.3c16.6-2.8,31.1-7.4,43-12c11.9-4.6,21.2-9,27.6-12.2
				C340.9,560.7,344.4,558.9,344.5,559.2z"/>
		</g>
	</g>
</g>
<g>
	<g>
		<g>
			<path class="st2" d="M247.9,378.6c0-0.1,1.1-0.3,3.1-0.3c2.1,0,5.1,0.1,8.9,1c3.8,0.9,8.4,2.4,13.3,5.2c4.9,2.8,10,6.8,14.5,12.3
				c4.5,5.4,8.4,12.3,11,20.2c2.7,7.9,4.1,16.7,4,26c-0.1,4.7-0.6,9.5-1.9,14.3c-1.3,4.8-3.4,9.5-6.2,13.8
				c-5.6,8.6-13.5,15.9-22.6,21.7c-9.1,5.8-19.1,9.6-28.9,11.7l-1.8,0.4l-1.9,0.3c-1.2,0.2-2.5,0.4-3.7,0.6
				c-2.5,0.3-4.9,0.6-7.3,0.7c-4.9,0.4-9.6,0.2-14.3-0.2c-9.3-0.9-17.9-3-25.6-5.9c-7.7-2.9-14.5-6.6-20.4-10.4
				c-5.9-3.8-10.8-7.8-14.9-11.5c-2-1.9-3.9-3.7-5.5-5.4c-0.8-0.9-1.6-1.7-2.3-2.5c-0.7-0.8-1.4-1.6-2-2.3c-1.3-1.5-2.3-2.9-3.2-4
				c-0.9-1.2-1.7-2.2-2.2-3.1c-1.1-1.7-1.7-2.6-1.6-2.7c0.1-0.1,0.8,0.7,2.1,2.3c0.6,0.8,1.4,1.8,2.4,2.9c1,1.1,2.1,2.4,3.4,3.8
				c0.7,0.7,1.4,1.4,2.1,2.2c0.7,0.8,1.6,1.5,2.4,2.4c1.6,1.7,3.6,3.3,5.6,5.2c4.2,3.5,9.1,7.3,14.9,10.9c5.8,3.6,12.5,7,20.1,9.8
				c7.6,2.7,16,4.7,24.9,5.5c4.5,0.3,9.1,0.5,13.8,0.1c2.4-0.1,4.7-0.5,7.1-0.7c1.2-0.2,2.4-0.4,3.6-0.6l1.8-0.3l1.8-0.4
				c9.6-2.1,19.1-5.9,27.9-11.4c8.7-5.5,16.4-12.5,21.7-20.6c2.6-4.1,4.6-8.4,5.8-12.9c1.2-4.5,1.8-9,1.9-13.5
				c0.2-9-1.1-17.6-3.6-25.1c-2.4-7.6-6-14.2-10.2-19.6c-4.2-5.3-9-9.3-13.6-12.1c-4.6-2.9-9-4.5-12.7-5.6c-3.7-1-6.7-1.4-8.7-1.6
				C248.9,378.8,247.9,378.8,247.9,378.6z"/>
		</g>
	</g>
</g>
<g>
	<g>
		<g>
			<path class="st2" d="M259.6,456.2c-0.5-0.2,1.2-4.2,0.8-11c-0.1-3.4-0.7-7.5-1.4-12c-0.6-4.5-1.4-9.5-2.4-14.7
				c-3.8-20.8-9.1-37.2-8.2-37.5c0.4-0.1,2.3,3.8,4.6,10.4c2.3,6.6,4.9,16,6.9,26.5c1,5.3,1.7,10.3,2.2,14.9
				c0.5,4.6,0.8,8.8,0.7,12.4c-0.1,3.6-0.8,6.5-1.5,8.4C260.4,455.4,259.7,456.3,259.6,456.2z"/>
		</g>
	</g>
</g>
<g>
	<g>
		<g>
			<path class="st2" d="M290.7,463.3c-0.4,0.8-6.7-1.6-14.7-3.9c-7.9-2.3-14.6-3.5-14.5-4.4c0-0.9,7.1-1.1,15.4,1.3
				C285.2,458.7,291.1,462.6,290.7,463.3z"/>
		</g>
	</g>
</g>
<g>
	<g>
		<g>
			<path class="st2" d="M438.2,491.3c-0.1-0.1,0.7-0.8,2.1-2.1c0.7-0.7,1.5-1.5,2.5-2.5c0.9-1.1,2-2.2,3-3.8
				c2.1-2.9,4.2-6.8,5.8-11.6c0.8-2.4,1.4-5.1,1.9-7.9c0.3-2.9,0.7-5.9,0.5-9.1c-0.1-3.2-0.5-6.5-1.3-9.9c-0.8-3.4-2-6.8-3.5-10.2
				c-3.1-6.8-7.7-13.6-13.5-19.8c-5.8-6.2-12.8-11.9-20.6-16.9c-3.9-2.6-8-4.8-12.3-7c-4.3-2.1-8.7-4.1-13.3-5.8
				c-9.2-3.6-18.5-6.1-27.6-7.9c-9.1-1.9-18.1-2.9-26.6-3.5c-17.1-1.2-32.6-0.6-45.6,0.3c-13,0.9-23.5,2.1-30.7,2.8
				c-7.3,0.8-11.3,1.1-11.3,0.9c0-0.1,1-0.4,2.9-0.7c1.9-0.4,4.7-0.8,8.3-1.4c7.2-1.1,17.7-2.7,30.7-3.9c13-1.2,28.6-2.1,46-1
				c8.7,0.5,17.7,1.6,27,3.4c9.3,1.8,18.8,4.4,28.2,8c4.7,1.7,9.2,3.9,13.6,6c4.3,2.3,8.6,4.6,12.5,7.2c8,5.2,15.1,11,21,17.5
				c5.9,6.5,10.6,13.5,13.7,20.7c1.5,3.6,2.7,7.2,3.5,10.8c0.8,3.6,1.1,7.1,1.2,10.4c0.1,3.3-0.3,6.5-0.8,9.5
				c-0.6,2.9-1.2,5.7-2.2,8.2c-1.8,5-4.2,8.9-6.5,11.8c-1.1,1.5-2.3,2.6-3.3,3.7c-1.1,0.9-2,1.7-2.7,2.3
				C439.2,490.8,438.3,491.4,438.2,491.3z"/>
		</g>
	</g>
</g>
<g>
	<g>
		<g>
			<path class="st2" d="M674.3,574.8c-0.1,0.2-3.4-0.7-9.4-2.5c-6-1.8-14.5-4.6-25.1-8.1c-21.2-7-50.3-17.1-82.3-28.6
				c-32-11.5-60.8-22.4-81.6-30.5c-10.4-4.1-18.8-7.4-24.5-9.8c-5.8-2.4-8.9-3.8-8.8-4s3.4,0.8,9.3,2.8c5.9,2,14.4,5.1,24.9,8.8
				c21,7.6,49.9,18.1,81.9,29.6c32,11.5,61,21.9,81.9,29.5c10.5,3.8,18.9,6.9,24.8,9.1C671.2,573.3,674.4,574.6,674.3,574.8z"/>
		</g>
	</g>
</g>
<g>
	<g>
		<g>
			
				<ellipse transform="matrix(0.959 0.2835 -0.2835 0.959 199.4123 -184.4241)" class="st2" cx="736.8" cy="596.7" rx="24.5" ry="1.6"/>
		</g>
	</g>
</g>
<g>
	<g>
		<g>
			<path class="st2" d="M594.5,535.1c-0.2,0.4-7.3-2.2-18.6-6.8c-11.3-4.5-27-10.9-44.2-17.9c-17.3-7-32.9-13.3-44.2-18
				c-11.3-4.7-18.2-7.7-18-8.1c0.2-0.4,7.4,1.9,18.9,6c11.5,4.1,27.3,10.1,44.5,17.1c17.3,7,32.8,13.7,43.9,18.8
				C587.9,531.3,594.6,534.7,594.5,535.1z"/>
		</g>
	</g>
</g>
<g>
	<g>
		<g>
			<path class="st2" d="M355.5,363.9c0,0.4-5.6,0.8-14.5,0.1c-4.5-0.3-9.7-1-15.5-1.7c-5.8-0.7-12.2-1.5-18.9-2
				c-6.7-0.4-13.1-0.4-18.8,0.2c-5.7,0.5-10.8,1.7-15.1,2.7c-4.3,1.1-7.7,2-10.1,2.6c-2.4,0.6-3.8,0.8-3.9,0.6
				c-0.1-0.2,1.2-0.9,3.5-1.8c2.3-1,5.7-2.3,9.9-3.7c4.3-1.3,9.5-2.8,15.4-3.5c5.9-0.8,12.5-0.9,19.3-0.4c6.8,0.5,13.3,1.4,19.1,2.2
				c5.8,0.9,11,1.7,15.4,2.3C350,363,355.5,363.4,355.5,363.9z"/>
		</g>
	</g>
</g>
<g>
	<g>
		<g>
			<path class="st2" d="M1224,921.4c0,0.1-1.4-0.2-3.9-1s-6.2-1.9-11-3.5c-9.5-3.1-23.2-7.8-40.1-13.7c-16.9-6-36.9-13.2-59-21.5
				c-22.2-8.3-46.4-17.6-71.9-27.5c-50.8-19.9-96.6-38.4-129.7-51.9c-16.6-6.8-29.9-12.3-39.1-16.2c-4.6-1.9-8.2-3.5-10.6-4.6
				c-2.4-1.1-3.6-1.7-3.6-1.8c0-0.1,1.4,0.3,3.9,1.2s6.1,2.2,10.8,4c9.4,3.5,22.9,8.7,39.5,15.2c33.3,13.1,79.3,31.1,130.1,51
				c25.4,9.9,49.6,19.3,71.7,27.7c22.1,8.4,42,15.9,58.8,22.1c16.8,6.2,30.3,11.2,39.7,14.7c4.7,1.7,8.3,3.1,10.8,4.1
				S1224,921.3,1224,921.4z"/>
		</g>
	</g>
</g>
<g>
	<g>
		<g>
			<path class="st2" d="M1214.3,977.8c0,0.1-1.5-0.3-4.4-1.3c-2.8-0.9-7-2.3-12.3-4.2c-10.7-3.7-26-9.2-45-16.1
				c-37.9-13.8-90.1-33.3-147.5-55.7c-28.7-11.2-55.9-22-80.7-32c-12.4-5-24.1-9.8-35-14.4c-11-4.5-21.2-8.8-30.5-12.6
				c-18.6-7.8-33.7-14.1-44-18.5c-5.2-2.2-9.2-4-11.9-5.2c-2.7-1.2-4.1-1.9-4.1-2s1.5,0.4,4.3,1.4c2.8,1,6.9,2.6,12.1,4.6
				c10.5,4.1,25.7,10.1,44.4,17.6c18.7,7.5,41,16.4,65.8,26.3c24.8,9.8,52.1,20.6,80.7,31.7c57.3,22.4,109.4,42.2,147.1,56.6
				c18.8,7.2,34.1,13,44.6,17.1c5.3,2,9.3,3.6,12.1,4.8S1214.3,977.7,1214.3,977.8z"/>
		</g>
	</g>
</g>
<g>
	<g>
		<path class="st4" d="M699.6,789.5"/>
	</g>
</g>
<g>
	<g>
		<g>
			<path class="st2" d="M726.6,794.4c-0.5,0.8-6.6-2-14.3-4.6c-7.7-2.7-14.2-4.3-14.1-5.2c0.1-0.9,7.1-0.7,15.2,2.1
				C721.4,789.5,727,793.7,726.6,794.4z"/>
		</g>
	</g>
</g>
<g>
	<g>
		<path class="st4" d="M974.1,687.6"/>
	</g>
</g>
<g>
	<g>
		<g>
			<path class="st2" d="M1371.9,826.6c0,0.1-1.5-0.2-4.1-0.9c-2.7-0.7-6.6-1.8-11.7-3.2c-10.1-2.9-24.8-7.2-42.8-12.8
				c-36-11.2-85.5-27.5-139.7-46.7c-54.3-19.1-103.1-37-138.5-50c-17.7-6.5-32-11.8-41.8-15.6c-4.9-1.9-8.7-3.4-11.3-4.4
				c-2.6-1-3.9-1.6-3.9-1.7c0-0.1,1.4,0.3,4.1,1.1c2.6,0.8,6.5,2.1,11.5,3.8c10,3.4,24.4,8.4,42.2,14.6
				c35.5,12.6,84.6,30,138.8,49.1c54.2,19.1,103.5,35.8,139.3,47.6c17.9,5.8,32.4,10.5,42.4,13.8c5,1.6,8.9,2.9,11.5,3.8
				C1370.6,825.9,1371.9,826.5,1371.9,826.6z"/>
		</g>
	</g>
</g>
<g>
	<g>
		<g>
			<path class="st2" d="M1370,833.5c0.2,0.4-6.7,4.8-17.9,11.7c-11.2,6.9-26.7,16.5-43.6,27.3c-16.9,10.8-32.1,20.8-43.1,28.1
				c-11,7.2-17.8,11.7-18.1,11.3c-0.3-0.4,6.1-5.5,16.8-13.2c10.7-7.7,25.7-18.1,42.7-28.9c17-10.8,32.7-20.1,44.2-26.5
				C1362.4,836.8,1369.7,833.2,1370,833.5z"/>
		</g>
	</g>
</g>
<g>
	<g>
		<g>
			
				<ellipse transform="matrix(0.1612 0.9869 -0.9869 0.1612 1984.6705 -429.6637)" class="st2" cx="1245.1" cy="952.8" rx="31.3" ry="1.6"/>
		</g>
	</g>
</g>
<g>
	<g>
		<g>
			<path class="st2" d="M1387.9,891.3c0.1,0.2-1.7,1.6-5,4.1c-3.3,2.5-8.2,6-14.3,10.3c-12.2,8.5-29.1,20.2-48,32.8
				c-9.4,6.3-18.4,12.3-26.6,17.8c-8.2,5.4-15.6,10.3-22,14.2c-6.4,3.9-11.9,6.5-15.9,7.9c-4,1.4-6.3,1.8-6.3,1.6
				c-0.1-0.2,2.1-1,5.8-2.8c3.7-1.8,9-4.6,15.2-8.7c6.2-4.1,13.4-9.2,21.6-14.7c8.1-5.6,17.1-11.6,26.5-18c18.8-12.7,36-24,48.5-32
				c6.3-4,11.4-7.2,14.9-9.4S1387.8,891.1,1387.9,891.3z"/>
		</g>
	</g>
</g>
<g>
	<g>
		<g>
			<path class="st2" d="M1386,893.4c-0.9,0-1.8-12.7-2.5-28.3c-0.7-15.6-1-28.4-0.1-28.4c0.9-0.1,2.7,12.6,3.4,28.3
				C1387.5,880.6,1386.9,893.4,1386,893.4z"/>
		</g>
	</g>
</g>
<g>
	<g>
		<g>
			<path class="st2" d="M1200,1004.3c-0.1,0.2-3.1-0.7-8.6-2.4c-5.5-1.7-13.4-4.4-23.1-7.8c-19.5-6.8-46.2-16.7-75.4-28.5
				c-29.2-11.8-55.3-23.2-74.1-31.7c-9.4-4.3-16.9-7.9-22.1-10.4c-5.2-2.6-8-4.1-7.9-4.3c0.1-0.2,3.1,0.9,8.4,3.1
				c5.3,2.2,13,5.4,22.5,9.5c19,8,45.2,19.1,74.4,30.8c29.2,11.7,55.7,22,75,29.3c9.6,3.7,17.4,6.7,22.8,8.8
				C1197.2,1002.8,1200.1,1004.1,1200,1004.3z"/>
		</g>
	</g>
</g>
<g>
	<g>
		<g>
			
				<ellipse transform="matrix(0.9465 0.3227 -0.3227 0.9465 379.6898 -309.6305)" class="st2" cx="1123.5" cy="990.1" rx="54.2" ry="1.6"/>
		</g>
	</g>
</g>
</svg>
